<?xml version="1.0" standalone="no"?>
<!DOCTYPE svg PUBLIC "-//W3C//DTD SVG 1.1//EN" "http://www.w3.org/Graphics/SVG/1.1/DTD/svg11.dtd" >
<svg>
<metadata>
Created by FontForge 20090622 at Fri Jan 11 16:25:48 2019
 By deploy user
Copyright 2015 The El Messiri Project Authors.
</metadata>
<defs>
<font id="ElMessiri-SemiBold" horiz-adv-x="0" >
  <font-face 
    font-family="El Messiri SemiBold"
    font-weight="600"
    font-stretch="normal"
    units-per-em="1000"
    panose-1="0 0 7 0 0 0 0 0 0 0"
    ascent="800"
    descent="-200"
    x-height="470"
    cap-height="660"
    bbox="-166.727 -498.778 1389 1000.78"
    underline-thickness="50"
    underline-position="-50"
    unicode-range="U+0020-U+FEFC"
  />
<missing-glyph horiz-adv-x="262" 
 />
    <glyph glyph-name="uniFEF5" unicode="&#xfedf;&#xfe82;" horiz-adv-x="667" arabic-form="isolated" 
d="M297 570q-33 0 -81.5 21.5t-71.5 21.5q-16 0 -29.5 -8t-18.5 -8q-13 0 -7 22q9 33 46 48q17 7 38 7q29 0 79 -19t73 -19q19 0 33.5 9.5t19.5 9.5q11 -1 6 -25q-8 -39 -50 -54q-17 -6 -37 -6zM90 0q-17 0 -28.5 12.5t-11.5 33.5q0 20 11.5 32.5t29.5 12.5h121v281
q0 69 -50 98q3 15 23.5 32t50.5 17q39 0 64.5 -30t25.5 -86v-312h100q30 0 46 24.5t16 62.5v335q0 69 -50 98q3 15 23.5 32t50.5 17q39 0 64.5 -30t25.5 -86v-369q-1 -80 -38.5 -127.5t-101.5 -47.5h-372z" />
    <glyph glyph-name="uniFEF6" unicode="&#xfee0;&#xfe82;" horiz-adv-x="706" arabic-form="final" 
d="M96 597q-13 0 -7 22q9 33 46 48q17 7 38 7q29 0 79 -19t73 -19q19 0 33.5 9.5t19.5 9.5q11 -1 6 -25q-8 -39 -50 -54q-17 -6 -37 -6q-33 0 -81.5 21.5t-71.5 21.5q-16 0 -29.5 -8t-18.5 -8zM588 91h118v-91h-70q-56 0 -94 26q-34 -26 -80 -26h-372q-17 0 -28.5 12.5
t-11.5 33.5q0 20 11.5 32.5t29.5 12.5h121v281q0 69 -50 98q3 15 23.5 32t50.5 17q39 0 64.5 -30t25.5 -86v-312h100q30 0 46 24.5t16 62.5v335q0 69 -50 98q3 15 23.5 32t50.5 17q39 0 64.5 -30t25.5 -86v-369q0 -47 -14 -84z" />
    <glyph glyph-name="uniFEF7" unicode="&#xfedf;&#xfe84;" horiz-adv-x="667" arabic-form="isolated" 
d="M152 564q-24 14 -15.5 39t45.5 21q-15 9 -26.5 29.5t-11.5 44.5q0 38 28 67t79 29q65 0 65 -47q0 -24 -18.5 -30.5t-32.5 2.5q1 15 -8 27t-24 13q-24 -14 -24 -52q0 -33 21.5 -50.5t51.5 -17.5q7 0 14 1t14 2.5t9 1.5q14 0 19 -12t1 -24t-13 -12q-171 -13 -174 -32zM90 0
q-17 0 -28.5 12.5t-11.5 33.5q0 20 11.5 32.5t29.5 12.5h121v281q0 69 -50 98q3 15 23.5 32t50.5 17q39 0 64.5 -30t25.5 -86v-312h100q30 0 46 24.5t16 62.5v335q0 69 -50 98q3 15 23.5 32t50.5 17q39 0 64.5 -30t25.5 -86v-369q-1 -80 -38.5 -127.5t-101.5 -47.5h-372z
" />
    <glyph glyph-name="uniFEF8" unicode="&#xfee0;&#xfe84;" horiz-adv-x="706" arabic-form="final" 
d="M152 564q-24 14 -15.5 39t45.5 21q-15 9 -26.5 29.5t-11.5 44.5q0 38 28 67t79 29q65 0 65 -47q0 -24 -18.5 -30.5t-32.5 2.5q1 15 -8 27t-24 13q-24 -14 -24 -52q0 -33 21.5 -50.5t51.5 -17.5q7 0 14 1t14 2.5t9 1.5q14 0 19 -12t1 -24t-13 -12q-171 -13 -174 -32z
M588 91h118v-91h-70q-56 0 -94 26q-34 -26 -80 -26h-372q-17 0 -28.5 12.5t-11.5 33.5q0 20 11.5 32.5t29.5 12.5h121v281q0 69 -50 98q3 15 23.5 32t50.5 17q39 0 64.5 -30t25.5 -86v-312h100q30 0 46 24.5t16 62.5v335q0 69 -50 98q3 15 23.5 32t50.5 17q39 0 64.5 -30
t25.5 -86v-369q0 -47 -14 -84z" />
    <glyph glyph-name="uniFEF9" unicode="&#xfedf;&#xfe88;" horiz-adv-x="667" arabic-form="isolated" 
d="M90 0q-17 0 -28.5 12.5t-11.5 33.5q0 20 11.5 32.5t29.5 12.5h121v281q0 69 -50 98q3 15 23.5 32t50.5 17q39 0 64.5 -30t25.5 -86v-312h100q30 0 46 24.5t16 62.5v335q0 69 -50 98q3 15 23.5 32t50.5 17q39 0 64.5 -30t25.5 -86v-369q-1 -80 -38.5 -127.5t-101.5 -47.5
h-372zM163 -279q-24 13 -15.5 38t45.5 22q-14 9 -25.5 29t-11.5 44q0 39 28 67.5t80 28.5q65 0 65 -46q0 -25 -19 -31.5t-33 3.5q1 15 -8 27t-24 13q-24 -17 -24 -53q0 -32 21.5 -50t51.5 -18q2 0 37 5q14 0 19 -12t1 -23.5t-13 -11.5q-172 -13 -175 -32z" />
    <glyph glyph-name="uniFEFA" unicode="&#xfee0;&#xfe88;" horiz-adv-x="706" arabic-form="final" 
d="M588 91h118v-91h-70q-56 0 -94 26q-34 -26 -80 -26h-372q-17 0 -28.5 12.5t-11.5 33.5q0 20 11.5 32.5t29.5 12.5h121v281q0 69 -50 98q3 15 23.5 32t50.5 17q39 0 64.5 -30t25.5 -86v-312h100q30 0 46 24.5t16 62.5v335q0 69 -50 98q3 15 23.5 32t50.5 17q39 0 64.5 -30
t25.5 -86v-369q0 -47 -14 -84zM331 -200q14 0 19 -12t1 -23.5t-13 -11.5q-172 -13 -175 -32q-24 13 -15.5 38t45.5 22q-14 9 -25.5 29t-11.5 44q0 39 28 67.5t80 28.5q65 0 65 -46q0 -25 -19 -31.5t-33 3.5q1 15 -8 27t-24 13q-24 -17 -24 -53q0 -32 21.5 -50t51.5 -18
q2 0 37 5z" />
    <glyph glyph-name="uniFEFB" unicode="&#xfedf;&#xfe8e;" horiz-adv-x="667" arabic-form="isolated" 
d="M90 0q-17 0 -28.5 12.5t-11.5 33.5q0 20 11.5 32.5t29.5 12.5h121v281q0 69 -50 98q3 15 23.5 32t50.5 17q39 0 64.5 -30t25.5 -86v-312h100q30 0 46 24.5t16 62.5v335q0 69 -50 98q3 15 23.5 32t50.5 17q39 0 64.5 -30t25.5 -86v-369q-1 -80 -38.5 -127.5t-101.5 -47.5
h-372z" />
    <glyph glyph-name="uniFEFC" unicode="&#xfee0;&#xfe8e;" horiz-adv-x="706" arabic-form="final" 
d="M588 91h118v-91h-70q-56 0 -94 26q-34 -26 -80 -26h-372q-17 0 -28.5 12.5t-11.5 33.5q0 20 11.5 32.5t29.5 12.5h121v281q0 69 -50 98q3 15 23.5 32t50.5 17q39 0 64.5 -30t25.5 -86v-312h100q30 0 46 24.5t16 62.5v335q0 69 -50 98q3 15 23.5 32t50.5 17q39 0 64.5 -30
t25.5 -86v-369q0 -47 -14 -84z" />
    <glyph glyph-name="uni06440671" unicode="&#xfedf;&#xfb51;" horiz-adv-x="667" 
d="M136 569q-9 0 -9 21.5t9 21.5h23q0 8 9.5 28.5t36.5 44t63 23.5q34 0 56 -19.5t22 -56.5q0 -31 -16 -47t-40 -16h-154zM181 612h91q21 0 21 27q0 16 -10 25.5t-28 9.5q-29 0 -51.5 -21.5t-22.5 -40.5zM90 0q-17 0 -28.5 12.5t-11.5 33.5q0 20 11.5 32.5t29.5 12.5h121
v281q0 69 -50 98q3 15 23.5 32t50.5 17q39 0 64.5 -30t25.5 -86v-312h100q30 0 46 24.5t16 62.5v335q0 69 -50 98q3 15 23.5 32t50.5 17q39 0 64.5 -30t25.5 -86v-369q-1 -80 -38.5 -127.5t-101.5 -47.5h-372z" />
    <glyph glyph-name="uni06440671.fina" unicode="&#xfee0;&#xfb51;" horiz-adv-x="706" 
d="M136 569q-9 0 -9 21.5t9 21.5h23q0 8 9.5 28.5t36.5 44t63 23.5q34 0 56 -19.5t22 -56.5q0 -31 -16 -47t-40 -16h-154zM255 674q-29 0 -51.5 -21.5t-22.5 -40.5h91q21 0 21 27q0 16 -10 25.5t-28 9.5zM588 91h118v-91h-70q-56 0 -94 26q-34 -26 -80 -26h-372
q-17 0 -28.5 12.5t-11.5 33.5q0 20 11.5 32.5t29.5 12.5h121v281q0 69 -50 98q3 15 23.5 32t50.5 17q39 0 64.5 -30t25.5 -86v-312h100q30 0 46 24.5t16 62.5v335q0 69 -50 98q3 15 23.5 32t50.5 17q39 0 64.5 -30t25.5 -86v-369q0 -47 -14 -84z" />
    <glyph glyph-name="uni066E.init" unicode="&#x66e;" horiz-adv-x="346" 
d="M0 0v91h82q45 0 65.5 47t20.5 113t-17 108.5t-58 76.5q4 16 21.5 30t48.5 14q60 0 89 -56t29 -145q0 -72 -18 -132.5t-65.5 -103.5t-117.5 -43h-80z" />
    <glyph glyph-name="uni066E.medi" unicode="&#x66e;" horiz-adv-x="350" 
d="M265 91h85v-91h-124q-57 0 -96 31q-41 -30 -87 -31h-43v91h43q40 1 73 22v309q0 58 57 58q56 0 56 -59v-258q0 -72 36 -72z" />
    <glyph glyph-name="uni066E.fina" unicode="&#x66e;" horiz-adv-x="835" 
d="M685 91h150v-91h-104q-59 0 -101 31q-42 -31 -103 -31h-332q-66 0 -98 38t-32 102v234q0 25 14.5 41t42.5 16t42.5 -16.5t14.5 -42.5v-202q0 -42 13.5 -60.5t45.5 -18.5h291q45 0 65.5 48t20.5 112q0 66 -17 108.5t-58 76.5q4 16 22 30t48 14q60 0 89.5 -56t29.5 -145
q0 -113 -44 -188z" />
    <glyph glyph-name="uni066F.init" unicode="&#x66f;" horiz-adv-x="540" 
d="M275 480q50 0 83.5 -8t61.5 -29.5t41.5 -63t13.5 -105.5v-134q0 -64 -32 -102t-98 -38h-345v91h110q-35 58 -35 159q0 60 11.5 103.5t29.5 67.5t46 38t53 17.5t60 3.5zM361 170v139q0 44 -22 62.5t-54 18.5q-45 0 -70.5 -37.5t-25.5 -103.5q0 -22 4 -46t13 -51t28.5 -44
t46.5 -17h21q32 0 45.5 18.5t13.5 60.5z" />
    <glyph glyph-name="uni066F.medi" unicode="&#x66f;" horiz-adv-x="563" 
d="M470 91h93v-91h-100q-35 0 -61 10q-23 -10 -57 -10h-345v91h110q-35 58 -35 159q0 60 11.5 103.5t29.5 67.5t46 38t53 17.5t60 3.5q50 0 83.5 -8t61.5 -29.5t41.5 -63t13.5 -105.5v-134q0 -24 -5 -49zM361 170v139q0 44 -22 62.5t-54 18.5q-45 0 -70.5 -37.5
t-25.5 -103.5q0 -22 4 -46t13 -51t28.5 -44t46.5 -17h21q32 0 45.5 18.5t13.5 60.5z" />
    <glyph glyph-name="uni066F.fina" unicode="&#x66f;" horiz-adv-x="925" 
d="M925 91v-91h-98q-21 -122 -114 -179t-257 -57q-94 0 -165.5 18t-113.5 46.5t-68 68.5t-35 78t-9 81q0 85 30 144t87 59q23 0 38.5 -10t19.5 -22q-25 -22 -43 -72t-18 -111q0 -89 60.5 -139t210.5 -50q240 0 258 145h-97q-178 0 -178 252q0 134 51 181t157 47
q67 0 106 -16t62 -64.5t23 -137.5v-171h93zM547 246q0 -24 4 -47t14 -49.5t32 -42.5t53 -16h68v218q0 43 -22 61.5t-53 18.5q-46 0 -71 -38t-25 -105z" />
    <glyph glyph-name="uni06A1.init" unicode="&#x6a1;" horiz-adv-x="540" 
d="M275 480q50 0 83.5 -8t61.5 -29.5t41.5 -63t13.5 -105.5v-134q0 -64 -32 -102t-98 -38h-345v91h110q-35 58 -35 159q0 60 11.5 103.5t29.5 67.5t46 38t53 17.5t60 3.5zM361 170v139q0 44 -22 62.5t-54 18.5q-45 0 -70.5 -37.5t-25.5 -103.5q0 -22 4 -46t13 -51t28.5 -44
t46.5 -17h21q32 0 45.5 18.5t13.5 60.5z" />
    <glyph glyph-name="uni06A1.medi" unicode="&#x6a1;" horiz-adv-x="563" 
d="M470 91h93v-91h-100q-35 0 -61 10q-23 -10 -57 -10h-345v91h110q-35 58 -35 159q0 60 11.5 103.5t29.5 67.5t46 38t53 17.5t60 3.5q50 0 83.5 -8t61.5 -29.5t41.5 -63t13.5 -105.5v-134q0 -24 -5 -49zM361 170v139q0 44 -22 62.5t-54 18.5q-45 0 -70.5 -37.5
t-25.5 -103.5q0 -22 4 -46t13 -51t28.5 -44t46.5 -17h21q32 0 45.5 18.5t13.5 60.5z" />
    <glyph glyph-name="uni06A1.fina" unicode="&#x6a1;" horiz-adv-x="997" 
d="M904 91h93v-91h-99q-36 0 -62 10q-23 -10 -57 -10h-515q-98 0 -148.5 57t-50.5 156q0 84 33 130t82 46q50 0 65 -41q-26 -16 -46 -55.5t-20 -96.5q0 -105 94 -105h272q-36 60 -36 159q0 60 12 104t29.5 67.5t46 37.5t53.5 17.5t60 3.5q50 0 83.5 -8t61 -29.5t41 -63
t13.5 -105.5v-134q0 -24 -5 -49zM796 170v139q0 44 -22.5 62.5t-53.5 18.5q-46 0 -71.5 -37.5t-25.5 -103.5q0 -21 4 -44.5t13 -51t28.5 -45t46.5 -17.5h21q32 0 46 18.5t14 60.5z" />
    <glyph glyph-name="uni06BA.init" unicode="&#x6ba;" horiz-adv-x="346" 
d="M0 0v91h82q45 0 65.5 47t20.5 113t-17 108.5t-58 76.5q4 16 21.5 30t48.5 14q60 0 89 -56t29 -145q0 -72 -18 -132.5t-65.5 -103.5t-117.5 -43h-80z" />
    <glyph glyph-name="uni06BA.medi" unicode="&#x6ba;" horiz-adv-x="350" 
d="M265 91h85v-91h-124q-57 0 -96 31q-41 -30 -87 -31h-43v91h43q40 1 73 22v309q0 58 57 58q56 0 56 -59v-258q0 -72 36 -72z" />
    <glyph glyph-name="uni06C2.init" unicode="&#x6c2;" horiz-adv-x="346" 
d="M56 569q-24 14 -15.5 39t45.5 21q-15 9 -26.5 29.5t-11.5 44.5q0 38 28 67t79 29q65 0 65 -47q0 -24 -18.5 -30.5t-32.5 2.5q1 15 -8 27t-24 13q-24 -14 -24 -52q0 -33 21.5 -50.5t51.5 -17.5q7 0 14 1t14 2.5t9 1.5q14 0 19 -12t1 -24t-13 -12q-171 -13 -174 -32zM0 0
v91h82q45 0 65.5 47t20.5 113t-17 108.5t-58 76.5q4 16 21.5 30t48.5 14q60 0 89 -56t29 -145q0 -72 -18 -132.5t-65.5 -103.5t-117.5 -43h-80zM147 -298q-31 0 -48.5 21t-17.5 54q0 116 113 188l15 -21q-81 -55 -81 -129l21 6q27 0 43 -16t16 -42q0 -27 -16.5 -44
t-44.5 -17z" />
    <glyph glyph-name="uni06C2.medi" unicode="&#x6c2;" horiz-adv-x="486" 
d="M153 351q-24 14 -15.5 39t45.5 21q-15 9 -26.5 29.5t-11.5 44.5q0 38 28 67t79 29q65 0 65 -47q0 -24 -18.5 -30.5t-32.5 2.5q1 15 -8 27t-24 13q-24 -14 -24 -52q0 -33 21.5 -50.5t51.5 -17.5q7 0 14 1t14 2.5t9 1.5q14 0 19 -12t1 -24t-13 -12q-171 -13 -174 -32z
M486 91v-91h-63v-211q0 -16 -11 -26.5t-26 -10.5q-52 0 -98.5 7.5t-90.5 25.5t-75.5 45.5t-50.5 71t-19 98.5h-52v91h107q33 0 37 -37q0 -2 0.5 -20t1.5 -25t3 -26t5.5 -28.5l9.5 -26.5t14.5 -26.5t21 -22t28 -19t36.5 -11t46 -4.5v209q0 16 10.5 26.5t25.5 10.5h140z" />
    <glyph glyph-name="uni06C2.fina" unicode="&#x6c2;" horiz-adv-x="525" 
d="M178 539q-24 14 -15.5 39t45.5 21q-15 9 -26.5 29.5t-11.5 44.5q0 38 28 67t79 29q65 0 65 -47q0 -24 -18.5 -30.5t-32.5 2.5q1 15 -8 27t-24 13q-24 -14 -24 -52q0 -33 21.5 -50.5t51.5 -17.5q7 0 14 1t14 2.5t9 1.5q14 0 19 -12t1 -24t-13 -12q-171 -13 -174 -32z
M463 91h62v-91h-91q-49 0 -84 20q-40 -22 -98 -22q-96 0 -141.5 57.5t-45.5 180.5q0 77 17 128.5t49.5 75t65.5 32t78 8.5q48 0 80 -8.5t58 -31t38 -65t12 -107.5v-177zM179 240q0 -149 88 -149h82v217q0 43 -22.5 62t-56.5 19q-49 0 -70 -37t-21 -112z" />
    <glyph glyph-name="uni06C3.fina" unicode="&#x6c3;" horiz-adv-x="664" 
d="M301 548q-25 0 -43 18t-18 43q0 26 18 44.5t43 18.5q26 0 44 -18.5t18 -44.5t-18 -43.5t-44 -17.5zM457 548q-26 0 -44 18t-18 43q0 26 18 44.5t44 18.5t43.5 -18.5t17.5 -44.5t-17.5 -43.5t-43.5 -17.5zM567 91h97v-91h-170q-17 0 -28.5 11.5t-11.5 28.5v348
q-84 -15 -148.5 -76t-95.5 -142.5t-31 -169.5h-114q0 210 127 345t323 135q27 0 39.5 -9t12.5 -31v-349z" />
    <glyph glyph-name="uniFB51" unicode="&#x671;" horiz-adv-x="317" arabic-form="final" 
d="M23 639q-9 0 -9 21.5t9 21.5h23q0 8 9.5 28.5t36.5 44t63 23.5q34 0 56 -19.5t22 -56.5q0 -31 -16 -47t-40 -16h-154zM68 682h91q21 0 21 27q0 16 -10 25.5t-28 9.5q-29 0 -51.5 -21.5t-22.5 -40.5zM239 0q-64 0 -101.5 47t-37.5 127v278q0 67 -50 98q3 14 23 31.5
t51 17.5q39 0 64 -30.5t25 -85.5v-306q0 -38 16 -62t46 -24h42v-91h-78z" />
    <glyph glyph-name="uniFB57" unicode="&#x67e;" horiz-adv-x="835" arabic-form="final" 
d="M685 91h150v-91h-104q-59 0 -101 31q-42 -31 -103 -31h-332q-66 0 -98 38t-32 102v234q0 25 14.5 41t42.5 16t42.5 -16.5t14.5 -42.5v-202q0 -42 13.5 -60.5t45.5 -18.5h291q45 0 65.5 48t20.5 112q0 66 -17 108.5t-58 76.5q4 16 22 30t48 14q60 0 89.5 -56t29.5 -145
q0 -113 -44 -188zM368 -142q0 -26 -18 -44t-44 -18q-25 0 -43 18.5t-18 43.5t18 43.5t43 18.5q26 0 44 -18t18 -44zM462 -80q26 0 43.5 -18t17.5 -44t-17.5 -44t-43.5 -18t-44 18t-18 44t18 44t44 18zM384 -220q23 0 40 -17t17 -41t-17 -40.5t-40 -16.5q-25 0 -41 16.5
t-16 40.5t16.5 41t40.5 17z" />
    <glyph glyph-name="uniFB58" unicode="&#x67e;" horiz-adv-x="346" arabic-form="initial" 
d="M0 0v91h82q45 0 65.5 47t20.5 113t-17 108.5t-58 76.5q4 16 21.5 30t48.5 14q60 0 89 -56t29 -145q0 -72 -18 -132.5t-65.5 -103.5t-117.5 -43h-80zM83 -204q-25 0 -43 18.5t-18 43.5t18 43.5t43 18.5q26 0 44 -18t18 -44t-18 -44t-44 -18zM239 -204q-25 0 -43.5 18
t-18.5 44t18.5 44t43.5 18q26 0 43.5 -18t17.5 -44t-17.5 -44t-43.5 -18zM161 -335q-25 0 -41 16.5t-16 40.5t16.5 41t40.5 17q23 0 40 -17t17 -41t-17 -40.5t-40 -16.5z" />
    <glyph glyph-name="uniFB59" unicode="&#x67e;" horiz-adv-x="350" arabic-form="medial" 
d="M265 91h85v-91h-124q-57 0 -96 31q-41 -30 -87 -31h-43v91h43q40 1 73 22v309q0 58 57 58q56 0 56 -59v-258q0 -72 36 -72zM157 -142q0 -26 -18 -44t-44 -18q-25 0 -43 18.5t-18 43.5t18 43.5t43 18.5q26 0 44 -18t18 -44zM251 -80q26 0 43.5 -18t17.5 -44t-17.5 -44
t-43.5 -18q-25 0 -43.5 18t-18.5 44t18.5 44t43.5 18zM173 -220q23 0 40 -17t17 -41t-17 -40.5t-40 -16.5q-25 0 -41 16.5t-16 40.5t16.5 41t40.5 17z" />
    <glyph glyph-name="uniFB67" unicode="&#x679;" horiz-adv-x="835" arabic-form="final" 
d="M282 500q-8 0 -8 21t8 21h13v127q0 20 -12 24q-1 5 4.5 9t14.5 4q25 0 25 -32v-86q34 51 88 51q33 0 55.5 -19.5t22.5 -56.5q0 -31 -16 -47t-40 -16h-155zM402 604q-29 0 -52 -21.5t-23 -40.5h92q21 0 21 28q0 15 -10 24.5t-28 9.5zM685 91h150v-91h-104q-59 0 -101 31
q-42 -31 -103 -31h-332q-66 0 -98 38t-32 102v234q0 25 14.5 41t42.5 16t42.5 -16.5t14.5 -42.5v-202q0 -42 13.5 -60.5t45.5 -18.5h291q45 0 65.5 48t20.5 112q0 66 -17 108.5t-58 76.5q4 16 22 30t48 14q60 0 89.5 -56t29.5 -145q0 -113 -44 -188z" />
    <glyph glyph-name="uniFB68" unicode="&#x679;" horiz-adv-x="346" arabic-form="initial" 
d="M62 545q-8 0 -8 21t8 21h13v127q0 20 -12 24q-1 5 4.5 9t14.5 4q25 0 25 -32v-86q34 51 88 51q33 0 55.5 -19.5t22.5 -56.5q0 -31 -16 -47t-40 -16h-155zM107 587h92q21 0 21 28q0 15 -10 24.5t-28 9.5q-29 0 -52 -21.5t-23 -40.5zM0 0v91h82q45 0 65.5 47t20.5 113
t-17 108.5t-58 76.5q4 16 21.5 30t48.5 14q60 0 89 -56t29 -145q0 -72 -18 -132.5t-65.5 -103.5t-117.5 -43h-80z" />
    <glyph glyph-name="uniFB69" unicode="&#x679;" horiz-adv-x="350" arabic-form="medial" 
d="M71 545q-8 0 -8 21t8 21h13v127q0 20 -12 24q-1 5 4.5 9t14.5 4q25 0 25 -32v-86q34 51 88 51q33 0 55.5 -19.5t22.5 -56.5q0 -31 -16 -47t-40 -16h-155zM191 649q-29 0 -52 -21.5t-23 -40.5h92q21 0 21 28q0 15 -10 24.5t-28 9.5zM265 91h85v-91h-124q-57 0 -96 31
q-41 -30 -87 -31h-43v91h43q40 1 73 22v309q0 58 57 58q56 0 56 -59v-258q0 -72 36 -72z" />
    <glyph glyph-name="uniFB6B" unicode="&#x6a4;" horiz-adv-x="997" arabic-form="final" 
d="M721 685q-24 0 -40.5 17t-16.5 41t16 40.5t41 16.5q23 0 40 -16.5t17 -40.5t-17 -41t-40 -17zM643 545q-25 0 -43 18.5t-18 43.5t18 43.5t43 18.5q26 0 44 -18t18 -44t-18 -44t-44 -18zM737 607q0 25 18.5 43.5t43.5 18.5q26 0 43.5 -18t17.5 -44t-17.5 -44t-43.5 -18
q-25 0 -43.5 18.5t-18.5 43.5zM904 91h93v-91h-99q-36 0 -62 10q-23 -10 -57 -10h-515q-98 0 -148.5 57t-50.5 156q0 84 33 130t82 46q50 0 65 -41q-26 -16 -46 -55.5t-20 -96.5q0 -105 94 -105h272q-36 60 -36 159q0 60 12 104t29.5 67.5t46 37.5t53.5 17.5t60 3.5
q50 0 83.5 -8t61 -29.5t41 -63t13.5 -105.5v-134q0 -24 -5 -49zM796 170v139q0 44 -22.5 62.5t-53.5 18.5q-46 0 -71.5 -37.5t-25.5 -103.5q0 -21 4 -44.5t13 -51t28.5 -45t46.5 -17.5h21q32 0 46 18.5t14 60.5z" />
    <glyph glyph-name="uniFB6C" unicode="&#x6a4;" horiz-adv-x="540" arabic-form="initial" 
d="M287 685q-24 0 -40.5 17t-16.5 41t16 40.5t41 16.5q23 0 40 -16.5t17 -40.5t-17 -41t-40 -17zM209 545q-25 0 -43 18.5t-18 43.5t18 43.5t43 18.5q26 0 44 -18t18 -44t-18 -44t-44 -18zM303 607q0 25 18.5 43.5t43.5 18.5q26 0 43.5 -18t17.5 -44t-17.5 -44t-43.5 -18
q-25 0 -43.5 18.5t-18.5 43.5zM275 480q50 0 83.5 -8t61.5 -29.5t41.5 -63t13.5 -105.5v-134q0 -64 -32 -102t-98 -38h-345v91h110q-35 58 -35 159q0 60 11.5 103.5t29.5 67.5t46 38t53 17.5t60 3.5zM361 170v139q0 44 -22 62.5t-54 18.5q-45 0 -70.5 -37.5t-25.5 -103.5
q0 -22 4 -46t13 -51t28.5 -44t46.5 -17h21q32 0 45.5 18.5t13.5 60.5z" />
    <glyph glyph-name="uniFB6D" unicode="&#x6a4;" horiz-adv-x="563" arabic-form="medial" 
d="M289 685q-24 0 -40.5 17t-16.5 41t16 40.5t41 16.5q23 0 40 -16.5t17 -40.5t-17 -41t-40 -17zM211 545q-25 0 -43 18.5t-18 43.5t18 43.5t43 18.5q26 0 44 -18t18 -44t-18 -44t-44 -18zM305 607q0 25 18.5 43.5t43.5 18.5q26 0 43.5 -18t17.5 -44t-17.5 -44t-43.5 -18
q-25 0 -43.5 18.5t-18.5 43.5zM470 91h93v-91h-100q-35 0 -61 10q-23 -10 -57 -10h-345v91h110q-35 58 -35 159q0 60 11.5 103.5t29.5 67.5t46 38t53 17.5t60 3.5q50 0 83.5 -8t61.5 -29.5t41.5 -63t13.5 -105.5v-134q0 -24 -5 -49zM361 170v139q0 44 -22 62.5t-54 18.5
q-45 0 -70.5 -37.5t-25.5 -103.5q0 -22 4 -46t13 -51t28.5 -44t46.5 -17h21q32 0 45.5 18.5t13.5 60.5z" />
    <glyph glyph-name="uniFB7B" unicode="&#x686;" horiz-adv-x="627" arabic-form="final" 
d="M541 91h86v-91h-41q-62 0 -100 31q-46 -31 -108 -31h-217q0 -174 79 -235q-5 -12 -22.5 -21.5t-40.5 -9.5q-33 0 -58 21t-37 54t-17.5 64.5t-5.5 60.5q0 74 30 115.5t91 41.5h165q44 0 81 33.5t37 110.5q0 155 -191 155h-81q-38 0 -59.5 25.5t-24.5 56.5t13 38
q21 -33 94 -33q12 0 52 1.5t54 1.5q111 0 184 -64.5t73 -177.5q0 -85 -36 -147zM369 -117q0 -26 -18 -44t-44 -18q-25 0 -43 18.5t-18 43.5t18 43.5t43 18.5q26 0 44 -18t18 -44zM463 -55q26 0 43.5 -18t17.5 -44t-17.5 -44t-43.5 -18q-25 0 -43.5 18.5t-18.5 43.5
t18.5 43.5t43.5 18.5zM385 -195q23 0 40 -17t17 -41t-17 -40.5t-40 -16.5q-25 0 -41 16.5t-16 40.5t16.5 41t40.5 17z" />
    <glyph glyph-name="uniFB7C" unicode="&#x686;" horiz-adv-x="559" arabic-form="initial" 
d="M0 0v91h268q44 0 81 33.5t37 110.5q0 155 -191 155h-81q-40 0 -61 23.5t-23 59.5q-1 16 3 26t10 11q21 -33 94 -33q12 0 52 1.5t54 1.5q111 0 184 -64.5t73 -177.5q0 -41 -10 -80t-31.5 -76t-62.5 -59.5t-95 -22.5h-301zM197 -204q-25 0 -43 18.5t-18 43.5t18 43.5
t43 18.5q26 0 44 -18t18 -44t-18 -44t-44 -18zM353 -204q-25 0 -43.5 18t-18.5 44t18.5 44t43.5 18q26 0 43.5 -18t17.5 -44t-17.5 -44t-43.5 -18zM275 -335q-25 0 -41 16.5t-16 40.5t16.5 41t40.5 17q23 0 40 -17t17 -41t-17 -40.5t-40 -16.5z" />
    <glyph glyph-name="uniFB7D" unicode="&#x686;" horiz-adv-x="543" arabic-form="medial" 
d="M464 91h79v-91h-34q-62 0 -100 31q-46 -31 -108 -31h-301v91h268q44 0 81 33.5t37 110.5q0 155 -191 155h-81q-40 0 -61 23.5t-23 59.5q-1 16 3 26t10 11q21 -33 94 -33q12 0 52 1.5t54 1.5q111 0 184 -64.5t73 -177.5q0 -85 -36 -147zM259 -142q0 -26 -18 -44t-44 -18
q-25 0 -43 18.5t-18 43.5t18 43.5t43 18.5q26 0 44 -18t18 -44zM353 -80q26 0 43.5 -18t17.5 -44t-17.5 -44t-43.5 -18q-25 0 -43.5 18t-18.5 44t18.5 44t43.5 18zM275 -220q23 0 40 -17t17 -41t-17 -40.5t-40 -16.5q-25 0 -41 16.5t-16 40.5t16.5 41t40.5 17z" />
    <glyph glyph-name="uniFB89" unicode="&#x688;" horiz-adv-x="544" arabic-form="final" 
d="M150 545q-8 0 -8 21t8 21h13v127q0 20 -12 24q-1 5 4.5 9t14.5 4q25 0 25 -32v-86q34 51 88 51q33 0 55.5 -19.5t22.5 -56.5q0 -31 -16 -47t-40 -16h-155zM270 649q-29 0 -52 -21.5t-23 -40.5h92q21 0 21 28q0 15 -10 24.5t-28 9.5zM401 91h143v-91h-103q-60 0 -98 28
q-43 -28 -98 -28h-150q-36 0 -36 45q0 46 40 46h59q90 0 131.5 43.5t41.5 111.5q0 60 -29 101.5t-71 47.5q-55 -15 -55 -88q-30 -9 -56 -5q-23 2 -39 19t-16 47q0 55 53 83.5t110 28.5q83 0 150 -66t67 -161q0 -90 -44 -162zM244 397l8 1q-5 0 -8 -1z" />
    <glyph glyph-name="uniFB8B" unicode="&#x698;" horiz-adv-x="350" arabic-form="final" 
d="M196 685q-24 0 -40.5 17t-16.5 41t16 40.5t41 16.5q23 0 40 -16.5t17 -40.5t-17 -41t-40 -17zM118 545q-25 0 -43 18.5t-18 43.5t18 43.5t43 18.5q26 0 44 -18t18 -44t-18 -44t-44 -18zM212 607q0 25 18 43.5t44 18.5t43.5 -18t17.5 -44t-17.5 -44t-43.5 -18t-44 18.5
t-18 43.5zM350 91v-91h-98v-58q0 -25 -6.5 -50.5t-22.5 -55t-51 -47.5t-85 -18q-69 0 -102 33t-29 68q42 -26 90 -26q42 0 67.5 22t25.5 55v503q0 26 16 40t41 14t40.5 -14t15.5 -41v-334h98z" />
    <glyph glyph-name="uniFB8D" unicode="&#x691;" horiz-adv-x="350" arabic-form="final" 
d="M94 545q-8 0 -8 21t8 21h13v127q0 20 -12 24q-1 5 4.5 9t14.5 4q25 0 25 -32v-86q34 51 88 51q33 0 55.5 -19.5t22.5 -56.5q0 -31 -16 -47t-40 -16h-155zM214 649q-29 0 -52 -21.5t-23 -40.5h92q21 0 21 28q0 15 -10 24.5t-28 9.5zM350 91v-91h-98v-58q0 -25 -6.5 -50.5
t-22.5 -55t-51 -47.5t-85 -18q-69 0 -102 33t-29 68q42 -26 90 -26q42 0 67.5 22t25.5 55v503q0 26 16 40t41 14t40.5 -14t15.5 -41v-334h98z" />
    <glyph glyph-name="uniFB8F" unicode="&#x6a9;" horiz-adv-x="915" arabic-form="final" 
d="M756 91h159v-91h-123q-53 0 -88 22q-33 -21 -81 -21h-428q-65 0 -97.5 43t-32.5 109v108q0 25 14.5 40.5t42.5 15.5t42.5 -16t14.5 -42v-88q0 -42 13.5 -60.5t45.5 -18.5h344q35 0 53.5 22t18.5 57q0 81 -98 81h-104q-76 0 -116 44.5t-40 121.5q0 176 220 176
q16 0 64 -1.5t58 -1.5q71 0 94 33q15 -7 14 -38q-3 -33 -24.5 -58t-59.5 -25h-140q-113 0 -113 -81q0 -36 21 -57.5t60 -21.5h79q199 0 199 -175q0 -44 -12 -77z" />
    <glyph glyph-name="uniFB90" unicode="&#x6a9;" horiz-adv-x="607" arabic-form="initial" 
d="M0 0v91h356q35 0 54 22t19 57q0 81 -99 81h-103q-76 0 -116.5 44.5t-40.5 122.5q0 175 220 175q59 0 122 -3q70 0 95 33q16 -5 13 -38t-24 -58t-59 -25l-140 1q-113 0 -113 -82q0 -36 20.5 -57t59.5 -21h79q199 0 199 -176q0 -77 -37.5 -122t-107.5 -45h-397z" />
    <glyph glyph-name="uniFB91" unicode="&#x6a9;" horiz-adv-x="769" arabic-form="medial" 
d="M530 91h239v-91h-230q-41 0 -74 14q-30 -14 -68 -14h-397v91h356q35 0 54 22t19 57q0 81 -99 81h-103q-76 0 -116.5 44.5t-40.5 122.5q0 175 220 175q59 0 122 -3q70 0 95 33q16 -5 13 -38t-24 -58t-59 -25l-140 1q-113 0 -113 -82q0 -36 20.5 -57t59.5 -21h79
q199 0 199 -176q0 -43 -12 -76z" />
    <glyph glyph-name="uniFB93" unicode="&#x6af;" horiz-adv-x="915" arabic-form="final" 
d="M377 620q-15 5 -13 38q3 33 24 58t59 25q104 0 176 -2q71 0 95 34q14 -7 13 -39q-3 -33 -24.5 -58t-59.5 -25q-103 0 -175 2q-70 0 -95 -33zM756 91h159v-91h-123q-53 0 -88 22q-33 -21 -81 -21h-428q-65 0 -97.5 43t-32.5 109v108q0 25 14.5 40.5t42.5 15.5t42.5 -16
t14.5 -42v-88q0 -42 13.5 -60.5t45.5 -18.5h344q35 0 53.5 22t18.5 57q0 81 -98 81h-104q-76 0 -116 44.5t-40 121.5q0 176 220 176q16 0 64 -1.5t58 -1.5q71 0 94 33q15 -7 14 -38q-3 -33 -24.5 -58t-59.5 -25h-140q-113 0 -113 -81q0 -36 21 -57.5t60 -21.5h79
q199 0 199 -175q0 -44 -12 -77z" />
    <glyph glyph-name="uniFB94" unicode="&#x6af;" horiz-adv-x="590" arabic-form="initial" 
d="M102 620q-15 5 -13 38q3 33 24 58t59 25q104 0 176 -2q71 0 95 34q14 -7 13 -39q-3 -33 -24.5 -58t-59.5 -25q-103 0 -175 2q-70 0 -95 -33zM0 0v91h356q35 0 54 22t19 57q0 81 -99 81h-103q-76 0 -116.5 44.5t-40.5 122.5q0 175 220 175q59 0 122 -3q70 0 95 33
q16 -5 13 -38t-24 -58t-59 -25l-140 1q-113 0 -113 -82q0 -36 20.5 -57t59.5 -21h79q199 0 199 -176q0 -77 -37.5 -122t-107.5 -45h-397z" />
    <glyph glyph-name="uniFB95" unicode="&#x6af;" horiz-adv-x="769" arabic-form="medial" 
d="M102 620q-15 5 -13 38q3 33 24 58t59 25q104 0 176 -2q71 0 95 34q14 -7 13 -39q-3 -33 -24.5 -58t-59.5 -25q-103 0 -175 2q-70 0 -95 -33zM530 91h239v-91h-230q-41 0 -74 14q-30 -14 -68 -14h-397v91h356q35 0 54 22t19 57q0 81 -99 81h-103q-76 0 -116.5 44.5
t-40.5 122.5q0 175 220 175q59 0 122 -3q70 0 95 33q16 -5 13 -38t-24 -58t-59 -25l-140 1q-113 0 -113 -82q0 -36 20.5 -57t59.5 -21h79q199 0 199 -176q0 -43 -12 -76z" />
    <glyph glyph-name="uniFB9F" unicode="&#x6ba;" horiz-adv-x="722" arabic-form="final" 
d="M631 91h91v-91h-14q-44 0 -77 21q-7 -257 -272 -257q-146 0 -220 74.5t-74 198.5q0 78 30 137.5t91 59.5q39 0 68 -23q-24 -18 -48.5 -66.5t-24.5 -114.5q0 -89 53.5 -132t128.5 -43q47 0 80 17t48 46.5t21 57t6 59.5v390q0 25 15.5 40t40.5 15q26 0 41.5 -15t15.5 -42
v-332z" />
    <glyph glyph-name="uniFBA7" unicode="&#x6c1;" horiz-adv-x="664" arabic-form="final" 
d="M567 91h97v-91h-170q-17 0 -28.5 11.5t-11.5 28.5v348q-84 -15 -148.5 -76t-95.5 -142.5t-31 -169.5h-114q0 210 127 345t323 135q27 0 39.5 -9t12.5 -31v-349z" />
    <glyph glyph-name="uniFBA8" unicode="&#x6c1;" horiz-adv-x="346" arabic-form="initial" 
d="M0 0v91h82q45 0 65.5 47t20.5 113t-17 108.5t-58 76.5q4 16 21.5 30t48.5 14q60 0 89 -56t29 -145q0 -72 -18 -132.5t-65.5 -103.5t-117.5 -43h-80zM147 -298q-31 0 -48.5 21t-17.5 54q0 116 113 188l15 -21q-81 -55 -81 -129l21 6q27 0 43 -16t16 -42q0 -27 -16.5 -44
t-44.5 -17z" />
    <glyph glyph-name="uniFBA9" unicode="&#x6c1;" horiz-adv-x="486" arabic-form="medial" 
d="M486 91v-91h-63v-211q0 -16 -11 -26.5t-26 -10.5q-52 0 -98.5 7.5t-90.5 25.5t-75.5 45.5t-50.5 71t-19 98.5h-52v91h107q33 0 37 -37q0 -2 0.5 -20t1.5 -25t3 -26t5.5 -28.5l9.5 -26.5t14.5 -26.5t21 -22t28 -19t36.5 -11t46 -4.5v209q0 16 10.5 26.5t25.5 10.5h140z
" />
    <glyph glyph-name="uniFBAB" unicode="&#x6be;" horiz-adv-x="757" arabic-form="final" 
d="M627 91h130v-91h-108q-57 0 -99 28l3 3q-60 -31 -140 -31q-88 0 -147 24q-47 -24 -164 -24h-37v91h21q29 -13 59 -13q17 0 33 4q-48 62 -48 161q0 76 33.5 129t101.5 53q67 0 101.5 -53t34.5 -127q0 -53 -17 -103.5t-37 -67.5q16 -4 42 -4q85 0 134.5 51t49.5 154
q0 61 -19.5 106.5t-51.5 70.5t-67 37t-72 12h-106q-60 0 -84 37.5t-18 90.5q26 -38 125 -38q11 0 41 1t55 2t32 1q44 1 89.5 -15t89.5 -49.5t72 -96t28 -144.5q0 -122 -60 -199zM265 108q17 18 29 54t12 74t-11.5 68t-29.5 30t-29 -29.5t-11 -69.5q0 -83 40 -127zM199 93
q4 4 4 6z" />
    <glyph glyph-name="uniFBAC" unicode="&#x6be;" horiz-adv-x="687" arabic-form="initial" 
d="M343 595q44 1 89.5 -15t89.5 -49.5t72 -96t28 -144.5q0 -134 -71.5 -212t-202.5 -78q-88 0 -147 24q-47 -24 -164 -24h-37v91h21q29 -13 59 -13q17 0 33 4q-48 62 -48 161q0 76 33.5 129t101.5 53q67 0 101.5 -53t34.5 -127q0 -53 -17 -103.5t-37 -67.5q16 -4 42 -4
q85 0 134.5 51t49.5 154q0 61 -19.5 106.5t-51.5 70.5t-67 37t-72 12h-106q-60 0 -84 37.5t-18 90.5q26 -38 125 -38q11 0 41 1t55 2t32 1zM200 108q17 18 29 54t12 74t-11.5 68t-29.5 30t-29 -29.5t-11 -69.5q0 -83 40 -127zM134 93q4 4 4 6z" />
    <glyph glyph-name="uniFBAD" unicode="&#x6be;" horiz-adv-x="683" arabic-form="medial" 
d="M562 91h121v-91h-99q-59 0 -99 28l3 3q-60 -31 -140 -31q-88 0 -147 24q-47 -24 -164 -24h-37v91h21q29 -13 59 -13q17 0 33 4q-48 62 -48 161q0 76 33.5 129t101.5 53q67 0 101.5 -53t34.5 -127q0 -53 -17 -103.5t-37 -67.5q16 -4 42 -4q85 0 134.5 51t49.5 154
q0 61 -19.5 106.5t-51.5 70.5t-67 37t-72 12h-106q-60 0 -84 37.5t-18 90.5q26 -38 125 -38q11 0 41 1t55 2t32 1q44 1 89.5 -15t89.5 -49.5t72 -96t28 -144.5q0 -122 -60 -199zM200 108q17 18 29 54t12 74t-11.5 68t-29.5 30t-29 -29.5t-11 -69.5q0 -83 40 -127zM134 93
q4 4 4 6z" />
    <glyph glyph-name="uniFBAF" unicode="&#x6d2;" horiz-adv-x="456" arabic-form="final" 
d="M284 -236q-27 0 -52 2.5t-57 12.5t-55 26.5t-39 48t-16 73.5q0 44 18 77t41 49t55.5 25.5t51.5 11t39 1.5h186v-91h-180q-75 0 -98 -30q-13 -17 -13 -43q0 -42 31.5 -57t85.5 -15h303v-91h-301z" />
    <glyph glyph-name="uniFBB1" unicode="&#x6d3;" horiz-adv-x="456" arabic-form="final" 
d="M110 152q-24 14 -15.5 39t45.5 21q-15 9 -26.5 29.5t-11.5 44.5q0 38 28 67t79 29q65 0 65 -47q0 -24 -18.5 -30.5t-32.5 2.5q1 15 -8 27t-24 13q-24 -14 -24 -52q0 -33 21.5 -50.5t51.5 -17.5q7 0 14 1t14 2.5t9 1.5q14 0 19 -12t1 -24t-13 -12q-171 -13 -174 -32z
M284 -236q-27 0 -52 2.5t-57 12.5t-55 26.5t-39 48t-16 73.5q0 44 18 77t41 49t55.5 25.5t51.5 11t39 1.5h186v-91h-180q-75 0 -98 -30q-13 -17 -13 -43q0 -42 31.5 -57t85.5 -15h303v-91h-301z" />
    <glyph glyph-name="uniFBE8" unicode="&#x649;" horiz-adv-x="346" arabic-form="initial" 
d="M0 0v91h82q45 0 65.5 47t20.5 113t-17 108.5t-58 76.5q4 16 21.5 30t48.5 14q60 0 89 -56t29 -145q0 -72 -18 -132.5t-65.5 -103.5t-117.5 -43h-80z" />
    <glyph glyph-name="uniFBE9" unicode="&#x649;" horiz-adv-x="350" arabic-form="medial" 
d="M265 91h85v-91h-124q-57 0 -96 31q-41 -30 -87 -31h-43v91h43q40 1 73 22v309q0 58 57 58q56 0 56 -59v-258q0 -72 36 -72z" />
    <glyph glyph-name="uniFBFD" unicode="&#x6cc;" horiz-adv-x="930" arabic-form="final" 
d="M424 -236q-91 0 -158.5 21t-103.5 50t-57 70.5t-26.5 73t-5.5 66.5q0 95 36 140.5t83 45.5q26 0 41.5 -13.5t19.5 -29.5q-26 -21 -46 -65.5t-20 -95.5q0 -33 10 -60t35 -54t77 -42.5t126 -15.5q122 0 183 41t61 104h-24q-30 0 -52 8t-33 21t-15 29.5t-2 32.5t9 31
q33 -31 92 -31h276v-91h-138q0 -34 -10.5 -65.5t-36 -63t-64 -55t-99 -38t-136.5 -14.5h-22z" />
    <glyph glyph-name="uniFBFE" unicode="&#x6cc;" horiz-adv-x="346" arabic-form="initial" 
d="M0 0v91h82q45 0 65.5 47t20.5 113t-17 108.5t-58 76.5q4 16 21.5 30t48.5 14q60 0 89 -56t29 -145q0 -72 -18 -132.5t-65.5 -103.5t-117.5 -43h-80zM83 -207q-25 0 -43 18.5t-18 43.5t18 43.5t43 18.5q26 0 44 -18t18 -44t-18 -44t-44 -18zM239 -207q-25 0 -43.5 18.5
t-18.5 43.5t18.5 43.5t43.5 18.5q26 0 43.5 -18t17.5 -44t-17.5 -44t-43.5 -18z" />
    <glyph glyph-name="uniFBFF" unicode="&#x6cc;" horiz-adv-x="350" arabic-form="medial" 
d="M265 91h85v-91h-124q-57 0 -96 31q-41 -30 -87 -31h-43v91h43q40 1 73 22v309q0 58 57 58q56 0 56 -59v-258q0 -72 36 -72zM95 -83q26 0 44 -18t18 -44t-18 -44t-44 -18q-25 0 -43 18.5t-18 43.5t18 43.5t43 18.5zM251 -83q26 0 43.5 -18t17.5 -44t-17.5 -44t-43.5 -18
q-25 0 -43.5 18.5t-18.5 43.5t18.5 43.5t43.5 18.5z" />
    <glyph glyph-name="uniFC64" unicode="&#xfc64;" horiz-adv-x="685" arabic-form="final" 
d="M437 539q-24 14 -15.5 39t45.5 21q-15 9 -26.5 29.5t-11.5 44.5q0 38 28 67t79 29q65 0 65 -47q0 -24 -18.5 -30.5t-32.5 2.5q1 15 -8 27t-24 13q-24 -14 -24 -52q0 -33 21.5 -50.5t51.5 -17.5q7 0 14 1t14 2.5t9 1.5q14 0 19 -12t1 -24t-13 -12q-171 -13 -174 -32z
M641 91h44v-91h-81q-64 0 -101.5 47t-37.5 127v215q-131 -1 -213 -56v-391q0 -25 -6.5 -50.5t-22.5 -55t-51 -47.5t-85 -18q-69 0 -102 33t-29 68q42 -26 90 -26q42 0 67.5 22t25.5 55v425q26 50 108 91t203 41q62 0 95.5 -21.5t33.5 -89.5v-192q0 -38 16 -62t46 -24z" />
    <glyph glyph-name="uniFC65" unicode="&#xfc65;" horiz-adv-x="685" arabic-form="final" 
d="M437 539q-24 14 -15.5 39t45.5 21q-15 9 -26.5 29.5t-11.5 44.5q0 38 28 67t79 29q65 0 65 -47q0 -24 -18.5 -30.5t-32.5 2.5q1 15 -8 27t-24 13q-24 -14 -24 -52q0 -33 21.5 -50.5t51.5 -17.5q7 0 14 1t14 2.5t9 1.5q14 0 19 -12t1 -24t-13 -12q-171 -13 -174 -32z
M197 545q-28 0 -47.5 19.5t-19.5 46.5q0 28 19.5 47t47.5 19q27 0 46.5 -19t19.5 -47q0 -27 -19.5 -46.5t-46.5 -19.5zM641 91h44v-91h-81q-64 0 -101.5 47t-37.5 127v215q-131 -1 -213 -56v-391q0 -25 -6.5 -50.5t-22.5 -55t-51 -47.5t-85 -18q-69 0 -102 33t-29 68
q42 -26 90 -26q42 0 67.5 22t25.5 55v425q26 50 108 91t203 41q62 0 95.5 -21.5t33.5 -89.5v-192q0 -38 16 -62t46 -24z" />
    <glyph glyph-name="uniFC6A" unicode="&#xfc6a;" horiz-adv-x="685" arabic-form="final" 
d="M641 91h44v-91h-81q-64 0 -101.5 47t-37.5 127v215q-131 -1 -213 -56v-391q0 -25 -6.5 -50.5t-22.5 -55t-51 -47.5t-85 -18q-69 0 -102 33t-29 68q42 -26 90 -26q42 0 67.5 22t25.5 55v425q26 50 108 91t203 41q62 0 95.5 -21.5t33.5 -89.5v-192q0 -38 16 -62t46 -24z
M523 -80q27 0 46.5 -19.5t19.5 -46.5t-19.5 -46.5t-46.5 -19.5q-28 0 -47.5 19.5t-19.5 46.5t19.5 46.5t47.5 19.5z" />
    <glyph glyph-name="uniFC6B" unicode="&#xfc6b;" horiz-adv-x="685" arabic-form="final" 
d="M197 545q-28 0 -47.5 19.5t-19.5 46.5q0 28 19.5 47t47.5 19q27 0 46.5 -19t19.5 -47q0 -27 -19.5 -46.5t-46.5 -19.5zM641 91h44v-91h-81q-64 0 -101.5 47t-37.5 127v215q-131 -1 -213 -56v-391q0 -25 -6.5 -50.5t-22.5 -55t-51 -47.5t-85 -18q-69 0 -102 33t-29 68
q42 -26 90 -26q42 0 67.5 22t25.5 55v425q26 50 108 91t203 41q62 0 95.5 -21.5t33.5 -89.5v-192q0 -38 16 -62t46 -24zM523 -80q27 0 46.5 -19.5t19.5 -46.5t-19.5 -46.5t-46.5 -19.5q-28 0 -47.5 19.5t-19.5 46.5t19.5 46.5t47.5 19.5z" />
    <glyph glyph-name="uniFC70" unicode="&#xfc70;" horiz-adv-x="685" arabic-form="final" 
d="M444 548q-25 0 -43 18t-18 43q0 26 18 44.5t43 18.5q26 0 44 -18.5t18 -44.5t-18 -43.5t-44 -17.5zM600 548q-26 0 -44 18t-18 43q0 26 18 44.5t44 18.5t43.5 -18.5t17.5 -44.5t-17.5 -43.5t-43.5 -17.5zM641 91h44v-91h-81q-64 0 -101.5 47t-37.5 127v215
q-131 -1 -213 -56v-391q0 -25 -6.5 -50.5t-22.5 -55t-51 -47.5t-85 -18q-69 0 -102 33t-29 68q42 -26 90 -26q42 0 67.5 22t25.5 55v425q26 50 108 91t203 41q62 0 95.5 -21.5t33.5 -89.5v-192q0 -38 16 -62t46 -24z" />
    <glyph glyph-name="uniFC71" unicode="&#xfc71;" horiz-adv-x="685" arabic-form="final" 
d="M197 545q-28 0 -47.5 19.5t-19.5 46.5q0 28 19.5 47t47.5 19q27 0 46.5 -19t19.5 -47q0 -27 -19.5 -46.5t-46.5 -19.5zM444 548q-25 0 -43 18t-18 43q0 26 18 44.5t43 18.5q26 0 44 -18.5t18 -44.5t-18 -43.5t-44 -17.5zM600 548q-26 0 -44 18t-18 43q0 26 18 44.5
t44 18.5t43.5 -18.5t17.5 -44.5t-17.5 -43.5t-43.5 -17.5zM641 91h44v-91h-81q-64 0 -101.5 47t-37.5 127v215q-131 -1 -213 -56v-391q0 -25 -6.5 -50.5t-22.5 -55t-51 -47.5t-85 -18q-69 0 -102 33t-29 68q42 -26 90 -26q42 0 67.5 22t25.5 55v425q26 50 108 91t203 41
q62 0 95.5 -21.5t33.5 -89.5v-192q0 -38 16 -62t46 -24z" />
    <glyph glyph-name="uniFC76" unicode="&#xfc76;" horiz-adv-x="685" arabic-form="final" 
d="M522 685q-24 0 -40.5 17t-16.5 41t16 40.5t41 16.5q23 0 40 -16.5t17 -40.5t-17 -41t-40 -17zM444 545q-25 0 -43 18.5t-18 43.5t18 43.5t43 18.5q26 0 44 -18t18 -44t-18 -44t-44 -18zM538 607q0 25 18 43.5t44 18.5t43.5 -18t17.5 -44t-17.5 -44t-43.5 -18t-44 18.5
t-18 43.5zM641 91h44v-91h-81q-64 0 -101.5 47t-37.5 127v215q-131 -1 -213 -56v-391q0 -25 -6.5 -50.5t-22.5 -55t-51 -47.5t-85 -18q-69 0 -102 33t-29 68q42 -26 90 -26q42 0 67.5 22t25.5 55v425q26 50 108 91t203 41q62 0 95.5 -21.5t33.5 -89.5v-192q0 -38 16 -62
t46 -24z" />
    <glyph glyph-name="uniFC77" unicode="&#xfc77;" horiz-adv-x="685" arabic-form="final" 
d="M522 685q-24 0 -40.5 17t-16.5 41t16 40.5t41 16.5q23 0 40 -16.5t17 -40.5t-17 -41t-40 -17zM197 545q-28 0 -47.5 19.5t-19.5 46.5q0 28 19.5 47t47.5 19q27 0 46.5 -19t19.5 -47q0 -27 -19.5 -46.5t-46.5 -19.5zM444 545q-25 0 -43 18.5t-18 43.5t18 43.5t43 18.5
q26 0 44 -18t18 -44t-18 -44t-44 -18zM538 607q0 25 18 43.5t44 18.5t43.5 -18t17.5 -44t-17.5 -44t-43.5 -18t-44 18.5t-18 43.5zM641 91h44v-91h-81q-64 0 -101.5 47t-37.5 127v215q-131 -1 -213 -56v-391q0 -25 -6.5 -50.5t-22.5 -55t-51 -47.5t-85 -18q-69 0 -102 33
t-29 68q42 -26 90 -26q42 0 67.5 22t25.5 55v425q26 50 108 91t203 41q62 0 95.5 -21.5t33.5 -89.5v-192q0 -38 16 -62t46 -24z" />
    <glyph glyph-name="uniFC8A" unicode="&#xfc8a;" horiz-adv-x="685" arabic-form="final" 
d="M523 545q-28 0 -47.5 19.5t-19.5 46.5q0 28 19.5 47t47.5 19q27 0 46.5 -19t19.5 -47q0 -27 -19.5 -46.5t-46.5 -19.5zM641 91h44v-91h-81q-64 0 -101.5 47t-37.5 127v215q-131 -1 -213 -56v-391q0 -25 -6.5 -50.5t-22.5 -55t-51 -47.5t-85 -18q-69 0 -102 33t-29 68
q42 -26 90 -26q42 0 67.5 22t25.5 55v425q26 50 108 91t203 41q62 0 95.5 -21.5t33.5 -89.5v-192q0 -38 16 -62t46 -24z" />
    <glyph glyph-name="uniFC8B" unicode="&#xfc8b;" horiz-adv-x="685" arabic-form="final" 
d="M197 545q-28 0 -47.5 19.5t-19.5 46.5q0 28 19.5 47t47.5 19q27 0 46.5 -19t19.5 -47q0 -27 -19.5 -46.5t-46.5 -19.5zM523 545q-28 0 -47.5 19.5t-19.5 46.5q0 28 19.5 47t47.5 19q27 0 46.5 -19t19.5 -47q0 -27 -19.5 -46.5t-46.5 -19.5zM641 91h44v-91h-81
q-64 0 -101.5 47t-37.5 127v215q-131 -1 -213 -56v-391q0 -25 -6.5 -50.5t-22.5 -55t-51 -47.5t-85 -18q-69 0 -102 33t-29 68q42 -26 90 -26q42 0 67.5 22t25.5 55v425q26 50 108 91t203 41q62 0 95.5 -21.5t33.5 -89.5v-192q0 -38 16 -62t46 -24z" />
    <glyph glyph-name="uniFC91" unicode="&#xfc91;" horiz-adv-x="685" arabic-form="final" 
d="M641 91h44v-91h-81q-64 0 -101.5 47t-37.5 127v215q-131 -1 -213 -56v-391q0 -25 -6.5 -50.5t-22.5 -55t-51 -47.5t-85 -18q-69 0 -102 33t-29 68q42 -26 90 -26q42 0 67.5 22t25.5 55v425q26 50 108 91t203 41q62 0 95.5 -21.5t33.5 -89.5v-192q0 -38 16 -62t46 -24z
M444 -83q26 0 44 -18t18 -44t-18 -44t-44 -18q-25 0 -43 18.5t-18 43.5t18 43.5t43 18.5zM600 -83q26 0 43.5 -18t17.5 -44t-17.5 -44t-43.5 -18t-44 18.5t-18 43.5t18 43.5t44 18.5z" />
    <glyph glyph-name="uniFC92" unicode="&#xfc92;" horiz-adv-x="685" arabic-form="final" 
d="M197 545q-28 0 -47.5 19.5t-19.5 46.5q0 28 19.5 47t47.5 19q27 0 46.5 -19t19.5 -47q0 -27 -19.5 -46.5t-46.5 -19.5zM641 91h44v-91h-81q-64 0 -101.5 47t-37.5 127v215q-131 -1 -213 -56v-391q0 -25 -6.5 -50.5t-22.5 -55t-51 -47.5t-85 -18q-69 0 -102 33t-29 68
q42 -26 90 -26q42 0 67.5 22t25.5 55v425q26 50 108 91t203 41q62 0 95.5 -21.5t33.5 -89.5v-192q0 -38 16 -62t46 -24zM444 -83q26 0 44 -18t18 -44t-18 -44t-44 -18q-25 0 -43 18.5t-18 43.5t18 43.5t43 18.5zM600 -83q26 0 43.5 -18t17.5 -44t-17.5 -44t-43.5 -18
t-44 18.5t-18 43.5t18 43.5t44 18.5z" />
    <glyph glyph-name="uniFD0D" unicode="&#xfd0d;" horiz-adv-x="1291" arabic-form="isolated" 
d="M836 685q-24 0 -40.5 17t-16.5 41t16 40.5t41 16.5q23 0 40 -16.5t17 -40.5t-17 -41t-40 -17zM758 545q-25 0 -43 18.5t-18 43.5t18 43.5t43 18.5q26 0 44 -18t18 -44t-18 -44t-44 -18zM852 607q0 25 18 43.5t44 18.5t43.5 -18t17.5 -44t-17.5 -44t-43.5 -18t-44 18.5
t-18 43.5zM1103 480q61 0 92 -58t31 -156q0 -32 -3.5 -62.5t-16.5 -69t-34 -67t-60.5 -48t-92.5 -19.5h-12q-96 0 -153 58q-40 -58 -104 -58h-146q-64 0 -101.5 47t-37.5 127v215q-131 -1 -213 -56v-391q0 -25 -6.5 -50.5t-22.5 -55t-51 -47.5t-85 -18q-69 0 -102 33t-29 68
q42 -26 90 -26q42 0 67.5 22t25.5 55v425q26 50 108 91t203 41q62 0 95.5 -21.5t33.5 -89.5v-192q0 -38 16 -62t46 -24h73q64 0 64 77v219q0 32 16.5 47t41.5 15q24 0 40 -14.5t16 -47.5v-196q0 -100 50 -100h84q45 0 66 48t21 104q0 142 -79 195q4 17 21.5 29.5t47.5 12.5z
" />
    <glyph glyph-name="uniFD0E" unicode="&#xfd0e;" horiz-adv-x="1291" arabic-form="isolated" 
d="M1103 480q61 0 92 -58t31 -156q0 -32 -3.5 -62.5t-16.5 -69t-34 -67t-60.5 -48t-92.5 -19.5h-12q-96 0 -153 58q-40 -58 -104 -58h-146q-64 0 -101.5 47t-37.5 127v215q-131 -1 -213 -56v-391q0 -25 -6.5 -50.5t-22.5 -55t-51 -47.5t-85 -18q-69 0 -102 33t-29 68
q42 -26 90 -26q42 0 67.5 22t25.5 55v425q26 50 108 91t203 41q62 0 95.5 -21.5t33.5 -89.5v-192q0 -38 16 -62t46 -24h73q64 0 64 77v219q0 32 16.5 47t41.5 15q24 0 40 -14.5t16 -47.5v-196q0 -100 50 -100h84q45 0 66 48t21 104q0 142 -79 195q4 17 21.5 29.5t47.5 12.5z
" />
    <glyph glyph-name="uniFD0F" unicode="&#xfd0f;" horiz-adv-x="1118" arabic-form="isolated" 
d="M782 480q48 0 92.5 -12t86.5 -38.5t67 -76.5t25 -118q0 -26 -3.5 -51.5t-16 -60.5t-33 -60.5t-60 -44t-92.5 -18.5h-383v389q-131 -1 -213 -56v-391q0 -25 -6.5 -50.5t-22.5 -55t-51 -47.5t-85 -18q-69 0 -102 33t-29 68q42 -26 90 -26q42 0 67.5 22t25.5 55v425
q26 50 108 91t203 41q54 0 85.5 -15t40.5 -61q30 31 84 53.5t122 22.5zM836 91q52 0 77.5 41.5t25.5 94.5q0 83 -53 122.5t-120 39.5q-59 0 -113.5 -27.5t-73.5 -65.5v-205h257z" />
    <glyph glyph-name="uniFD10" unicode="&#xfd10;" horiz-adv-x="1118" arabic-form="isolated" 
d="M783 545q-28 0 -47.5 19.5t-19.5 46.5q0 28 19.5 47t47.5 19q27 0 46.5 -19t19.5 -47q0 -27 -19.5 -46.5t-46.5 -19.5zM782 480q48 0 92.5 -12t86.5 -38.5t67 -76.5t25 -118q0 -26 -3.5 -51.5t-16 -60.5t-33 -60.5t-60 -44t-92.5 -18.5h-383v389q-131 -1 -213 -56v-391
q0 -25 -6.5 -50.5t-22.5 -55t-51 -47.5t-85 -18q-69 0 -102 33t-29 68q42 -26 90 -26q42 0 67.5 22t25.5 55v425q26 50 108 91t203 41q54 0 85.5 -15t40.5 -61q30 31 84 53.5t122 22.5zM836 91q52 0 77.5 41.5t25.5 94.5q0 83 -53 122.5t-120 39.5q-59 0 -113.5 -27.5
t-73.5 -65.5v-205h257z" />
    <glyph glyph-name="uniFD29" unicode="&#xfd29;" horiz-adv-x="1325" arabic-form="final" 
d="M836 685q-24 0 -40.5 17t-16.5 41t16 40.5t41 16.5q23 0 40 -16.5t17 -40.5t-17 -41t-40 -17zM758 545q-25 0 -43 18.5t-18 43.5t18 43.5t43 18.5q26 0 44 -18t18 -44t-18 -44t-44 -18zM852 607q0 25 18 43.5t44 18.5t43.5 -18t17.5 -44t-17.5 -44t-43.5 -18t-44 18.5
t-18 43.5zM1187 91h138v-91h-105q-59 0 -95 26q-45 -26 -106 -26h-12q-96 0 -153 58q-40 -58 -104 -58h-146q-64 0 -101.5 47t-37.5 127v215q-131 -1 -213 -56v-391q0 -25 -6.5 -50.5t-22.5 -55t-51 -47.5t-85 -18q-69 0 -102 33t-29 68q42 -26 90 -26q42 0 67.5 22t25.5 55
v425q26 50 108 91t203 41q62 0 95.5 -21.5t33.5 -89.5v-192q0 -38 16 -62t46 -24h73q64 0 64 77v219q0 32 16.5 47t41.5 15q24 0 40 -14.5t16 -47.5v-196q0 -100 50 -100h84q45 0 66 48t21 104q0 142 -79 195q4 17 21.5 29.5t47.5 12.5q61 0 92 -58t31 -156q0 -108 -39 -175
z" />
    <glyph glyph-name="uniFD2A" unicode="&#xfd2a;" horiz-adv-x="1325" arabic-form="final" 
d="M1187 91h138v-91h-105q-59 0 -95 26q-45 -26 -106 -26h-12q-96 0 -153 58q-40 -58 -104 -58h-146q-64 0 -101.5 47t-37.5 127v215q-131 -1 -213 -56v-391q0 -25 -6.5 -50.5t-22.5 -55t-51 -47.5t-85 -18q-69 0 -102 33t-29 68q42 -26 90 -26q42 0 67.5 22t25.5 55v425
q26 50 108 91t203 41q62 0 95.5 -21.5t33.5 -89.5v-192q0 -38 16 -62t46 -24h73q64 0 64 77v219q0 32 16.5 47t41.5 15q24 0 40 -14.5t16 -47.5v-196q0 -100 50 -100h84q45 0 66 48t21 104q0 142 -79 195q4 17 21.5 29.5t47.5 12.5q61 0 92 -58t31 -156q0 -108 -39 -175z
" />
    <glyph glyph-name="uniFD2B" unicode="&#xfd2b;" horiz-adv-x="1131" arabic-form="final" 
d="M1020 91h111v-91h-85q-56 0 -93 24q-43 -24 -105 -24h-383v389q-131 -1 -213 -56v-391q0 -25 -6.5 -50.5t-22.5 -55t-51 -47.5t-85 -18q-69 0 -102 33t-29 68q42 -26 90 -26q42 0 67.5 22t25.5 55v425q26 50 108 91t203 41q54 0 85.5 -15t40.5 -61q30 31 84 53.5
t122 22.5q48 0 92.5 -12t86.5 -38.5t67 -76.5t25 -118q0 -85 -33 -144zM836 91q52 0 77.5 41.5t25.5 94.5q0 83 -53 122.5t-120 39.5q-59 0 -113.5 -27.5t-73.5 -65.5v-205h257z" />
    <glyph glyph-name="uniFD2C" unicode="&#xfd2c;" horiz-adv-x="1131" arabic-form="final" 
d="M783 545q-28 0 -47.5 19.5t-19.5 46.5q0 28 19.5 47t47.5 19q27 0 46.5 -19t19.5 -47q0 -27 -19.5 -46.5t-46.5 -19.5zM1020 91h111v-91h-85q-56 0 -93 24q-43 -24 -105 -24h-383v389q-131 -1 -213 -56v-391q0 -25 -6.5 -50.5t-22.5 -55t-51 -47.5t-85 -18q-69 0 -102 33
t-29 68q42 -26 90 -26q42 0 67.5 22t25.5 55v425q26 50 108 91t203 41q54 0 85.5 -15t40.5 -61q30 31 84 53.5t122 22.5q48 0 92.5 -12t86.5 -38.5t67 -76.5t25 -118q0 -85 -33 -144zM836 91q52 0 77.5 41.5t25.5 94.5q0 83 -53 122.5t-120 39.5q-59 0 -113.5 -27.5
t-73.5 -65.5v-205h257z" />
    <glyph glyph-name="uniFE82" unicode="&#x622;" horiz-adv-x="317" arabic-form="final" 
d="M184 640q-33 0 -81.5 21.5t-71.5 21.5q-16 0 -29.5 -8t-18.5 -8q-13 0 -7 22q9 33 46 48q17 7 38 7q29 0 79 -19t73 -19q19 0 33.5 9.5t19.5 9.5q11 -1 6 -25q-8 -39 -50 -54q-17 -6 -37 -6zM239 0q-64 0 -101.5 47t-37.5 127v278q0 67 -50 98q3 14 23 31.5t51 17.5
q39 0 64 -30.5t25 -85.5v-306q0 -38 16 -62t46 -24h42v-91h-78z" />
    <glyph glyph-name="uniFE84" unicode="&#x623;" horiz-adv-x="317" arabic-form="final" 
d="M39 634q-24 14 -15.5 39t45.5 21q-15 9 -26.5 29.5t-11.5 44.5q0 38 28 67t79 29q65 0 65 -47q0 -24 -18.5 -30.5t-32.5 2.5q1 15 -8 27t-24 13q-24 -14 -24 -52q0 -33 21.5 -50.5t51.5 -17.5q7 0 14 1t14 2.5t9 1.5q14 0 19 -12t1 -24t-13 -12q-171 -13 -174 -32zM239 0
q-64 0 -101.5 47t-37.5 127v278q0 67 -50 98q3 14 23 31.5t51 17.5q39 0 64 -30.5t25 -85.5v-306q0 -38 16 -62t46 -24h42v-91h-78z" />
    <glyph glyph-name="uniFE86" unicode="&#x624;" horiz-adv-x="555" arabic-form="final" 
d="M180 539q-24 14 -15.5 39t45.5 21q-15 9 -26.5 29.5t-11.5 44.5q0 38 28 67t79 29q65 0 65 -47q0 -24 -18.5 -30.5t-32.5 2.5q1 15 -8 27t-24 13q-24 -14 -24 -52q0 -33 21.5 -50.5t51.5 -17.5q7 0 14 1t14 2.5t9 1.5q14 0 19 -12t1 -24t-13 -12q-171 -13 -174 -32z
M555 91v-91h-92v-56q0 -20 -3.5 -40t-14 -45t-28 -43.5t-48.5 -31.5t-72 -13q-66 0 -99.5 31.5t-34.5 70.5q44 -27 90 -27q41 0 68.5 21t27.5 58l1 75l-98 -2q-96 0 -141.5 57.5t-45.5 180.5q0 77 17 128.5t49.5 75t65.5 32t78 8.5q48 0 80 -8.5t58 -31t38 -65t12 -107.5
v-177h92zM179 240q0 -149 88 -149h82v217q0 43 -22.5 62t-56.5 19q-49 0 -70 -37t-21 -112z" />
    <glyph glyph-name="uniFE88" unicode="&#x625;" horiz-adv-x="317" arabic-form="final" 
d="M239 0q-64 0 -101 47t-38 127v339q0 67 -50 98q3 14 23 31.5t51 17.5q39 0 64 -30.5t25 -85.5v-367q0 -38 16 -62t46 -24h42v-91h-78zM74 -279q-24 13 -15.5 38t45.5 22q-14 9 -25.5 29t-11.5 44q0 39 28 67.5t80 28.5q65 0 65 -46q0 -25 -19 -31.5t-33 3.5q1 15 -8 27
t-24 13q-24 -17 -24 -53q0 -32 21.5 -50t51.5 -18q2 0 37 5q14 0 19 -12t1 -23.5t-13 -11.5q-172 -13 -175 -32z" />
    <glyph glyph-name="uniFE8A" unicode="&#x626;" horiz-adv-x="930" arabic-form="final" 
d="M110 296q-24 14 -15.5 39t45.5 21q-15 9 -26.5 29.5t-11.5 44.5q0 38 28 67t79 29q65 0 65 -47q0 -24 -18.5 -30.5t-32.5 2.5q1 15 -8 27t-24 13q-24 -14 -24 -52q0 -33 21.5 -50.5t51.5 -17.5q7 0 14 1t14 2.5t9 1.5q14 0 19 -12t1 -24t-13 -12q-171 -13 -174 -32z
M424 -236q-91 0 -158.5 21t-103.5 50t-57 70.5t-26.5 73t-5.5 66.5q0 95 36 140.5t83 45.5q26 0 41.5 -13.5t19.5 -29.5q-26 -21 -46 -65.5t-20 -95.5q0 -33 10 -60t35 -54t77 -42.5t126 -15.5q122 0 183 41t61 104h-24q-30 0 -52 8t-33 21t-15 29.5t-2 32.5t9 31
q33 -31 92 -31h276v-91h-138q0 -34 -10.5 -65.5t-36 -63t-64 -55t-99 -38t-136.5 -14.5h-22z" />
    <glyph glyph-name="uniFE8B" unicode="&#x626;" horiz-adv-x="346" arabic-form="initial" 
d="M79 539q-24 14 -15.5 39t45.5 21q-15 9 -26.5 29.5t-11.5 44.5q0 38 28 67t79 29q65 0 65 -47q0 -24 -18.5 -30.5t-32.5 2.5q1 15 -8 27t-24 13q-24 -14 -24 -52q0 -33 21.5 -50.5t51.5 -17.5q7 0 14 1t14 2.5t9 1.5q14 0 19 -12t1 -24t-13 -12q-171 -13 -174 -32zM0 0
v91h82q45 0 65.5 47t20.5 113t-17 108.5t-58 76.5q4 16 21.5 30t48.5 14q60 0 89 -56t29 -145q0 -72 -18 -132.5t-65.5 -103.5t-117.5 -43h-80z" />
    <glyph glyph-name="uniFE8C" unicode="&#x626;" horiz-adv-x="350" arabic-form="medial" 
d="M88 539q-24 14 -15.5 39t45.5 21q-15 9 -26.5 29.5t-11.5 44.5q0 38 28 67t79 29q65 0 65 -47q0 -24 -18.5 -30.5t-32.5 2.5q1 15 -8 27t-24 13q-24 -14 -24 -52q0 -33 21.5 -50.5t51.5 -17.5q7 0 14 1t14 2.5t9 1.5q14 0 19 -12t1 -24t-13 -12q-171 -13 -174 -32z
M265 91h85v-91h-124q-57 0 -96 31q-41 -30 -87 -31h-43v91h43q40 1 73 22v309q0 58 57 58q56 0 56 -59v-258q0 -72 36 -72z" />
    <glyph glyph-name="uniFE8E" unicode="&#x627;" horiz-adv-x="317" arabic-form="final" 
d="M239 0q-64 0 -101 47t-38 127v339q0 67 -50 98q3 14 23 31.5t51 17.5q39 0 64 -30.5t25 -85.5v-367q0 -38 16 -62t46 -24h42v-91h-78z" />
    <glyph glyph-name="uniFE90" unicode="&#x628;" horiz-adv-x="835" arabic-form="final" 
d="M685 91h150v-91h-104q-59 0 -101 31q-42 -31 -103 -31h-332q-66 0 -98 38t-32 102v234q0 25 14.5 41t42.5 16t42.5 -16.5t14.5 -42.5v-202q0 -42 13.5 -60.5t45.5 -18.5h291q45 0 65.5 48t20.5 112q0 66 -17 108.5t-58 76.5q4 16 22 30t48 14q60 0 89.5 -56t29.5 -145
q0 -113 -44 -188zM385 -80q27 0 46.5 -19.5t19.5 -46.5t-19.5 -46.5t-46.5 -19.5q-28 0 -47.5 19.5t-19.5 46.5t19.5 46.5t47.5 19.5z" />
    <glyph glyph-name="uniFE91" unicode="&#x628;" horiz-adv-x="346" arabic-form="initial" 
d="M0 0v91h82q45 0 65.5 47t20.5 113t-17 108.5t-58 76.5q4 16 21.5 30t48.5 14q60 0 89 -56t29 -145q0 -72 -18 -132.5t-65.5 -103.5t-117.5 -43h-80zM162 -212q-28 0 -47.5 19.5t-19.5 46.5t19.5 46.5t47.5 19.5q27 0 46.5 -19.5t19.5 -46.5t-19.5 -46.5t-46.5 -19.5z" />
    <glyph glyph-name="uniFE92" unicode="&#x628;" horiz-adv-x="350" arabic-form="medial" 
d="M265 91h85v-91h-124q-57 0 -96 31q-41 -30 -87 -31h-43v91h43q40 1 73 22v309q0 58 57 58q56 0 56 -59v-258q0 -72 36 -72zM174 -80q27 0 46.5 -19.5t19.5 -46.5t-19.5 -46.5t-46.5 -19.5q-28 0 -47.5 19.5t-19.5 46.5t19.5 46.5t47.5 19.5z" />
    <glyph glyph-name="uniFE94" unicode="&#x629;" horiz-adv-x="525" arabic-form="final" 
d="M185 548q-25 0 -43 18t-18 43q0 26 18 44.5t43 18.5q26 0 44 -18.5t18 -44.5t-18 -43.5t-44 -17.5zM341 548q-26 0 -44 18t-18 43q0 26 18 44.5t44 18.5t43.5 -18.5t17.5 -44.5t-17.5 -43.5t-43.5 -17.5zM463 91h62v-91h-91q-49 0 -84 20q-40 -22 -98 -22
q-96 0 -141.5 57.5t-45.5 180.5q0 77 17 128.5t49.5 75t65.5 32t78 8.5q48 0 80 -8.5t58 -31t38 -65t12 -107.5v-177zM179 240q0 -149 88 -149h82v217q0 43 -22.5 62t-56.5 19q-49 0 -70 -37t-21 -112z" />
    <glyph glyph-name="uniFE96" unicode="&#x62a;" horiz-adv-x="835" arabic-form="final" 
d="M306 503q-25 0 -43 18t-18 43q0 26 18 44.5t43 18.5q26 0 44 -18.5t18 -44.5t-18 -43.5t-44 -17.5zM462 503q-26 0 -44 18t-18 43q0 26 18 44.5t44 18.5t43.5 -18.5t17.5 -44.5t-17.5 -43.5t-43.5 -17.5zM685 91h150v-91h-104q-59 0 -101 31q-42 -31 -103 -31h-332
q-66 0 -98 38t-32 102v234q0 25 14.5 41t42.5 16t42.5 -16.5t14.5 -42.5v-202q0 -42 13.5 -60.5t45.5 -18.5h291q45 0 65.5 48t20.5 112q0 66 -17 108.5t-58 76.5q4 16 22 30t48 14q60 0 89.5 -56t29.5 -145q0 -113 -44 -188z" />
    <glyph glyph-name="uniFE97" unicode="&#x62a;" horiz-adv-x="346" arabic-form="initial" 
d="M86 548q-25 0 -43 18t-18 43q0 26 18 44.5t43 18.5q26 0 44 -18.5t18 -44.5t-18 -43.5t-44 -17.5zM242 548q-26 0 -44 18t-18 43q0 26 18 44.5t44 18.5t43.5 -18.5t17.5 -44.5t-17.5 -43.5t-43.5 -17.5zM0 0v91h82q45 0 65.5 47t20.5 113t-17 108.5t-58 76.5
q4 16 21.5 30t48.5 14q60 0 89 -56t29 -145q0 -72 -18 -132.5t-65.5 -103.5t-117.5 -43h-80z" />
    <glyph glyph-name="uniFE98" unicode="&#x62a;" horiz-adv-x="350" arabic-form="medial" 
d="M95 548q-25 0 -43 18t-18 43q0 26 18 44.5t43 18.5q26 0 44 -18.5t18 -44.5t-18 -43.5t-44 -17.5zM251 548q-26 0 -44 18t-18 43q0 26 18 44.5t44 18.5t43.5 -18.5t17.5 -44.5t-17.5 -43.5t-43.5 -17.5zM265 91h85v-91h-124q-57 0 -96 31q-41 -30 -87 -31h-43v91h43
q40 1 73 22v309q0 58 57 58q56 0 56 -59v-258q0 -72 36 -72z" />
    <glyph glyph-name="uniFE9A" unicode="&#x62b;" horiz-adv-x="835" arabic-form="final" 
d="M384 640q-24 0 -40.5 17t-16.5 41t16 40.5t41 16.5q23 0 40 -16.5t17 -40.5t-17 -41t-40 -17zM306 500q-25 0 -43 18.5t-18 43.5t18 43.5t43 18.5q26 0 44 -18t18 -44t-18 -44t-44 -18zM400 562q0 26 18 44t44 18t43.5 -18t17.5 -44t-17.5 -44t-43.5 -18t-44 18t-18 44z
M685 91h150v-91h-104q-59 0 -101 31q-42 -31 -103 -31h-332q-66 0 -98 38t-32 102v234q0 25 14.5 41t42.5 16t42.5 -16.5t14.5 -42.5v-202q0 -42 13.5 -60.5t45.5 -18.5h291q45 0 65.5 48t20.5 112q0 66 -17 108.5t-58 76.5q4 16 22 30t48 14q60 0 89.5 -56t29.5 -145
q0 -113 -44 -188z" />
    <glyph glyph-name="uniFE9B" unicode="&#x62b;" horiz-adv-x="346" arabic-form="initial" 
d="M164 800q23 0 40 -16.5t17 -40.5t-17 -41t-40 -17q-24 0 -40.5 17t-16.5 41t16 40.5t41 16.5zM86 669q26 0 44 -18t18 -44t-18 -44t-44 -18q-25 0 -43 18.5t-18 43.5t18 43.5t43 18.5zM242 669q26 0 43.5 -18t17.5 -44t-17.5 -44t-43.5 -18t-44 18.5t-18 43.5t18 43.5
t44 18.5zM0 0v91h82q45 0 65.5 47t20.5 113t-17 108.5t-58 76.5q4 16 21.5 30t48.5 14q60 0 89 -56t29 -145q0 -72 -18 -132.5t-65.5 -103.5t-117.5 -43h-80z" />
    <glyph glyph-name="uniFE9C" unicode="&#x62b;" horiz-adv-x="350" arabic-form="medial" 
d="M173 685q-24 0 -40.5 17t-16.5 41t16 40.5t41 16.5q23 0 40 -16.5t17 -40.5t-17 -41t-40 -17zM95 545q-25 0 -43 18.5t-18 43.5t18 43.5t43 18.5q26 0 44 -18t18 -44t-18 -44t-44 -18zM189 607q0 25 18.5 43.5t43.5 18.5q26 0 43.5 -18t17.5 -44t-17.5 -44t-43.5 -18
q-25 0 -43.5 18.5t-18.5 43.5zM265 91h85v-91h-124q-57 0 -96 31q-41 -30 -87 -31h-43v91h43q40 1 73 22v309q0 58 57 58q56 0 56 -59v-258q0 -72 36 -72z" />
    <glyph glyph-name="uniFE9E" unicode="&#x62c;" horiz-adv-x="627" arabic-form="final" 
d="M541 91h86v-91h-41q-62 0 -100 31q-46 -31 -108 -31h-217q0 -174 79 -235q-5 -12 -22.5 -21.5t-40.5 -9.5q-33 0 -58 21t-37 54t-17.5 64.5t-5.5 60.5q0 74 30 115.5t91 41.5h165q44 0 81 33.5t37 110.5q0 155 -191 155h-81q-38 0 -59.5 25.5t-24.5 56.5t13 38
q21 -33 94 -33q12 0 52 1.5t54 1.5q111 0 184 -64.5t73 -177.5q0 -85 -36 -147zM345 -50q27 0 46.5 -19t19.5 -47q0 -27 -19.5 -46.5t-46.5 -19.5q-28 0 -47.5 19.5t-19.5 46.5q0 28 19.5 47t47.5 19z" />
    <glyph glyph-name="uniFE9F" unicode="&#x62c;" horiz-adv-x="559" arabic-form="initial" 
d="M0 0v91h268q44 0 81 33.5t37 110.5q0 155 -191 155h-81q-40 0 -61 23.5t-23 59.5q-1 16 3 26t10 11q21 -33 94 -33q12 0 52 1.5t54 1.5q111 0 184 -64.5t73 -177.5q0 -41 -10 -80t-31.5 -76t-62.5 -59.5t-95 -22.5h-301zM276 -212q-28 0 -47.5 19.5t-19.5 46.5t19.5 46.5
t47.5 19.5q27 0 46.5 -19.5t19.5 -46.5t-19.5 -46.5t-46.5 -19.5z" />
    <glyph glyph-name="uniFEA0" unicode="&#x62c;" horiz-adv-x="543" arabic-form="medial" 
d="M464 91h79v-91h-34q-62 0 -100 31q-46 -31 -108 -31h-301v91h268q44 0 81 33.5t37 110.5q0 155 -191 155h-81q-40 0 -61 23.5t-23 59.5q-1 16 3 26t10 11q21 -33 94 -33q12 0 52 1.5t54 1.5q111 0 184 -64.5t73 -177.5q0 -85 -36 -147zM276 -80q27 0 46.5 -19.5
t19.5 -46.5t-19.5 -46.5t-46.5 -19.5q-28 0 -47.5 19.5t-19.5 46.5t19.5 46.5t47.5 19.5z" />
    <glyph glyph-name="uniFEA2" unicode="&#x62d;" horiz-adv-x="627" arabic-form="final" 
d="M541 91h86v-91h-41q-62 0 -100 31q-46 -31 -108 -31h-217q0 -174 79 -235q-5 -12 -22.5 -21.5t-40.5 -9.5q-33 0 -58 21t-37 54t-17.5 64.5t-5.5 60.5q0 74 30 115.5t91 41.5h165q44 0 81 33.5t37 110.5q0 155 -191 155h-81q-38 0 -59.5 25.5t-24.5 56.5t13 38
q21 -33 94 -33q12 0 52 1.5t54 1.5q111 0 184 -64.5t73 -177.5q0 -85 -36 -147z" />
    <glyph glyph-name="uniFEA3" unicode="&#x62d;" horiz-adv-x="559" arabic-form="initial" 
d="M0 0v91h268q44 0 81 33.5t37 110.5q0 155 -191 155h-81q-40 0 -61 23.5t-23 59.5q-1 16 3 26t10 11q21 -33 94 -33q12 0 52 1.5t54 1.5q111 0 184 -64.5t73 -177.5q0 -41 -10 -80t-31.5 -76t-62.5 -59.5t-95 -22.5h-301z" />
    <glyph glyph-name="uniFEA4" unicode="&#x62d;" horiz-adv-x="543" arabic-form="medial" 
d="M464 91h79v-91h-34q-62 0 -100 31q-46 -31 -108 -31h-301v91h268q44 0 81 33.5t37 110.5q0 155 -191 155h-81q-40 0 -61 23.5t-23 59.5q-1 16 3 26t10 11q21 -33 94 -33q12 0 52 1.5t54 1.5q111 0 184 -64.5t73 -177.5q0 -85 -36 -147z" />
    <glyph glyph-name="uniFEA6" unicode="&#x62e;" horiz-adv-x="627" arabic-form="final" 
d="M319 545q-28 0 -47.5 19.5t-19.5 46.5q0 28 19.5 47t47.5 19q27 0 46.5 -19t19.5 -47q0 -27 -19.5 -46.5t-46.5 -19.5zM541 91h86v-91h-41q-62 0 -100 31q-46 -31 -108 -31h-217q0 -174 79 -235q-5 -12 -22.5 -21.5t-40.5 -9.5q-33 0 -58 21t-37 54t-17.5 64.5t-5.5 60.5
q0 74 30 115.5t91 41.5h165q44 0 81 33.5t37 110.5q0 155 -191 155h-81q-38 0 -59.5 25.5t-24.5 56.5t13 38q21 -33 94 -33q12 0 52 1.5t54 1.5q111 0 184 -64.5t73 -177.5q0 -85 -36 -147z" />
    <glyph glyph-name="uniFEA7" unicode="&#x62e;" horiz-adv-x="559" arabic-form="initial" 
d="M276 545q-28 0 -47.5 19.5t-19.5 46.5q0 28 19.5 47t47.5 19q27 0 46.5 -19t19.5 -47q0 -27 -19.5 -46.5t-46.5 -19.5zM0 0v91h268q44 0 81 33.5t37 110.5q0 155 -191 155h-81q-40 0 -61 23.5t-23 59.5q-1 16 3 26t10 11q21 -33 94 -33q12 0 52 1.5t54 1.5
q111 0 184 -64.5t73 -177.5q0 -41 -10 -80t-31.5 -76t-62.5 -59.5t-95 -22.5h-301z" />
    <glyph glyph-name="uniFEA8" unicode="&#x62e;" horiz-adv-x="543" arabic-form="medial" 
d="M276 545q-28 0 -47.5 19.5t-19.5 46.5q0 28 19.5 47t47.5 19q27 0 46.5 -19t19.5 -47q0 -27 -19.5 -46.5t-46.5 -19.5zM464 91h79v-91h-34q-62 0 -100 31q-46 -31 -108 -31h-301v91h268q44 0 81 33.5t37 110.5q0 155 -191 155h-81q-40 0 -61 23.5t-23 59.5q-1 16 3 26
t10 11q21 -33 94 -33q12 0 52 1.5t54 1.5q111 0 184 -64.5t73 -177.5q0 -85 -36 -147z" />
    <glyph glyph-name="uniFEAA" unicode="&#x62f;" horiz-adv-x="544" arabic-form="final" 
d="M401 91h143v-91h-103q-60 0 -98 28q-43 -28 -98 -28h-150q-36 0 -36 45q0 46 40 46h59q90 0 131.5 43.5t41.5 111.5q0 60 -29 101.5t-71 47.5q-55 -15 -55 -88q-30 -9 -56 -5q-23 2 -39 19t-16 47q0 55 53 83.5t110 28.5q83 0 150 -66t67 -161q0 -90 -44 -162zM244 397
l8 1q-5 0 -8 -1z" />
    <glyph glyph-name="uniFEAC" unicode="&#x630;" horiz-adv-x="544" arabic-form="final" 
d="M253 545q-28 0 -47.5 19.5t-19.5 46.5q0 28 19.5 47t47.5 19q27 0 46.5 -19t19.5 -47q0 -27 -19.5 -46.5t-46.5 -19.5zM401 91h143v-91h-103q-60 0 -98 28q-43 -28 -98 -28h-150q-36 0 -36 45q0 46 40 46h59q90 0 131.5 43.5t41.5 111.5q0 60 -29 101.5t-71 47.5
q-55 -15 -55 -88q-30 -9 -56 -5q-23 2 -39 19t-16 47q0 55 53 83.5t110 28.5q83 0 150 -66t67 -161q0 -90 -44 -162zM244 397l8 1q-5 0 -8 -1z" />
    <glyph glyph-name="uniFEAE" unicode="&#x631;" horiz-adv-x="350" arabic-form="final" 
d="M350 91v-91h-98v-58q0 -25 -6.5 -50.5t-22.5 -55t-51 -47.5t-85 -18q-69 0 -102 33t-29 68q42 -26 90 -26q42 0 67.5 22t25.5 55v503q0 26 16 40t41 14t40.5 -14t15.5 -41v-334h98z" />
    <glyph glyph-name="uniFEB0" unicode="&#x632;" horiz-adv-x="350" arabic-form="final" 
d="M197 545q-28 0 -47.5 19.5t-19.5 46.5q0 28 19.5 47t47.5 19q27 0 46.5 -19t19.5 -47q0 -27 -19.5 -46.5t-46.5 -19.5zM350 91v-91h-98v-58q0 -25 -6.5 -50.5t-22.5 -55t-51 -47.5t-85 -18q-69 0 -102 33t-29 68q42 -26 90 -26q42 0 67.5 22t25.5 55v503q0 26 16 40
t41 14t40.5 -14t15.5 -41v-334h98z" />
    <glyph glyph-name="uniFEB2" unicode="&#x633;" horiz-adv-x="1389" arabic-form="final" 
d="M1212 91h177v-91h-137q-60 0 -99 29q-45 -29 -109 -29h-13q-96 0 -153 58q-40 -58 -104 -58h-89q-45 1 -81 28q-2 -147 -62.5 -214.5t-205.5 -67.5q-139 0 -205 67.5t-66 216.5q0 132 38 185t92 53q26 0 44.5 -11t24.5 -24q-33 -28 -60 -91t-27 -142q0 -54 13 -90.5
t37.5 -53t49 -23t59.5 -6.5q83 0 118.5 47t35.5 163v327q0 61 57 61t57 -61v-190q0 -82 42 -83h92q65 0 65 77v219q0 32 16 47t40 15t40.5 -15t16.5 -47v-196q0 -100 50 -100h85q31 0 51.5 27t27.5 59.5t7 67.5q0 67 -21 117.5t-58 75.5q13 42 69 42q62 0 93 -58t31 -156
q0 -108 -39 -175z" />
    <glyph glyph-name="uniFEB3" unicode="&#x633;" horiz-adv-x="938" arabic-form="initial" 
d="M750 480q61 0 92 -58t31 -156q0 -32 -3.5 -62.5t-16.5 -69t-34 -67t-60.5 -48t-92.5 -19.5h-12q-96 0 -153 58q-38 -58 -103 -58h-127q-56 0 -102 35q-45 -35 -94 -35h-75v91h50q63 0 63 80v193q0 29 11.5 45t44.5 16t45 -16t12 -45v-190q0 -82 42 -83h93q64 0 64 77v219
q0 32 16.5 47t41.5 15q56 0 56 -62v-196q0 -100 50 -100h84q45 0 66 48t21 104q0 142 -79 195q13 42 69 42z" />
    <glyph glyph-name="uniFEB4" unicode="&#x633;" horiz-adv-x="1014" arabic-form="medial" 
d="M834 91h180v-91h-139q-61 0 -99 29q-45 -29 -110 -29h-12q-96 0 -153 58q-38 -58 -103 -58h-127q-56 0 -102 35q-45 -35 -94 -35h-75v91h50q63 0 63 80v193q0 29 11.5 45t44.5 16t45 -16t12 -45v-190q0 -82 42 -83h93q64 0 64 77v219q0 32 16.5 47t41.5 15q56 0 56 -62
v-196q0 -100 50 -100h84q45 0 66 48t21 104q0 142 -79 195q13 42 69 42q61 0 92 -58t31 -156q0 -108 -39 -175z" />
    <glyph glyph-name="uniFEB6" unicode="&#x634;" horiz-adv-x="1389" arabic-form="final" 
d="M858 685q-24 0 -40.5 17t-16.5 41t16 40.5t41 16.5q23 0 40 -16.5t17 -40.5t-17 -41t-40 -17zM780 545q-25 0 -43 18.5t-18 43.5t18 43.5t43 18.5q26 0 44 -18t18 -44t-18 -44t-44 -18zM874 607q0 25 18 43.5t44 18.5t43.5 -18t17.5 -44t-17.5 -44t-43.5 -18t-44 18.5
t-18 43.5zM1212 91h177v-91h-137q-60 0 -99 29q-45 -29 -109 -29h-13q-96 0 -153 58q-40 -58 -104 -58h-89q-45 1 -81 28q-2 -147 -62.5 -214.5t-205.5 -67.5q-139 0 -205 67.5t-66 216.5q0 132 38 185t92 53q26 0 44.5 -11t24.5 -24q-33 -28 -60 -91t-27 -142
q0 -54 13 -90.5t37.5 -53t49 -23t59.5 -6.5q83 0 118.5 47t35.5 163v327q0 61 57 61t57 -61v-190q0 -82 42 -83h92q65 0 65 77v219q0 32 16 47t40 15t40.5 -15t16.5 -47v-196q0 -100 50 -100h85q31 0 51.5 27t27.5 59.5t7 67.5q0 67 -21 117.5t-58 75.5q13 42 69 42
q62 0 93 -58t31 -156q0 -108 -39 -175z" />
    <glyph glyph-name="uniFEB7" unicode="&#x634;" horiz-adv-x="938" arabic-form="initial" 
d="M483 685q-24 0 -40.5 17t-16.5 41t16 40.5t41 16.5q23 0 40 -16.5t17 -40.5t-17 -41t-40 -17zM405 545q-25 0 -43 18.5t-18 43.5t18 43.5t43 18.5q26 0 44 -18t18 -44t-18 -44t-44 -18zM499 607q0 25 18.5 43.5t43.5 18.5q26 0 43.5 -18t17.5 -44t-17.5 -44t-43.5 -18
q-25 0 -43.5 18.5t-18.5 43.5zM750 480q61 0 92 -58t31 -156q0 -32 -3.5 -62.5t-16.5 -69t-34 -67t-60.5 -48t-92.5 -19.5h-12q-96 0 -153 58q-38 -58 -103 -58h-127q-56 0 -102 35q-45 -35 -94 -35h-75v91h50q63 0 63 80v193q0 29 11.5 45t44.5 16t45 -16t12 -45v-190
q0 -82 42 -83h93q64 0 64 77v219q0 32 16.5 47t41.5 15q56 0 56 -62v-196q0 -100 50 -100h84q45 0 66 48t21 104q0 142 -79 195q13 42 69 42z" />
    <glyph glyph-name="uniFEB8" unicode="&#x634;" horiz-adv-x="1014" arabic-form="medial" 
d="M477 685q-24 0 -40.5 17t-16.5 41t16 40.5t41 16.5q23 0 40 -16.5t17 -40.5t-17 -41t-40 -17zM399 545q-25 0 -43 18.5t-18 43.5t18 43.5t43 18.5q26 0 44 -18t18 -44t-18 -44t-44 -18zM493 607q0 25 18.5 43.5t43.5 18.5q26 0 43.5 -18t17.5 -44t-17.5 -44t-43.5 -18
q-25 0 -43.5 18.5t-18.5 43.5zM834 91h180v-91h-139q-61 0 -99 29q-45 -29 -110 -29h-12q-96 0 -153 58q-38 -58 -103 -58h-127q-56 0 -102 35q-45 -35 -94 -35h-75v91h50q63 0 63 80v193q0 29 11.5 45t44.5 16t45 -16t12 -45v-190q0 -82 42 -83h93q64 0 64 77v219
q0 32 16.5 47t41.5 15q56 0 56 -62v-196q0 -100 50 -100h84q45 0 66 48t21 104q0 142 -79 195q13 42 69 42q61 0 92 -58t31 -156q0 -108 -39 -175z" />
    <glyph glyph-name="uniFEBA" unicode="&#x635;" horiz-adv-x="1160" arabic-form="final" 
d="M1045 91h115v-91h-85q-58 0 -94 26q-45 -26 -108 -26h-270q-6 -132 -67.5 -193t-199.5 -61q-139 0 -205 67.5t-66 216.5q0 132 38 185t92 53q26 0 44.5 -11t24.5 -24q-33 -28 -60 -91t-27 -142q0 -54 13 -90.5t37.5 -53t49 -23t59.5 -6.5q83 0 118.5 47t35.5 163v275
q0 26 -14.5 47t-31.5 30q7 15 27 27.5t49 12.5q48 0 69 -38q26 35 83.5 62t134.5 27q48 0 92 -12t86 -38.5t67.5 -76.5t25.5 -118q0 -85 -33 -144zM860 91q52 0 78 41.5t26 94.5q0 83 -53 122.5t-121 39.5q-58 0 -112 -27.5t-74 -64.5v-206h256z" />
    <glyph glyph-name="uniFEBB" unicode="&#x635;" horiz-adv-x="753" arabic-form="initial" 
d="M417 480q48 0 92.5 -12t86.5 -38.5t67 -76.5t25 -118q0 -26 -3.5 -51.5t-16 -60.5t-33 -60.5t-60 -44t-92.5 -18.5h-483v91h100v221q0 26 -14.5 47t-31.5 30q21 40 76 40q48 0 69 -38q26 35 83.5 62t134.5 27zM471 91q52 0 77.5 41.5t25.5 94.5q0 83 -53 122.5t-120 39.5
q-59 0 -113.5 -27.5t-73.5 -65.5v-205h257z" />
    <glyph glyph-name="uniFEBC" unicode="&#x635;" horiz-adv-x="791" arabic-form="medial" 
d="M655 91h136v-91h-99q-58 0 -98 27q-47 -27 -111 -27h-483v91h100v221q0 26 -14.5 47t-31.5 30q21 40 76 40q48 0 69 -38q26 35 83.5 62t134.5 27q48 0 92.5 -12t86.5 -38.5t67 -76.5t25 -118q0 -85 -33 -144zM471 91q52 0 77.5 41.5t25.5 94.5q0 83 -53 122.5t-120 39.5
q-59 0 -113.5 -27.5t-73.5 -65.5v-205h257z" />
    <glyph glyph-name="uniFEBE" unicode="&#x636;" horiz-adv-x="1160" arabic-form="final" 
d="M783 545q-28 0 -47.5 19.5t-19.5 46.5q0 28 19.5 47t47.5 19q27 0 46.5 -19t19.5 -47q0 -27 -19.5 -46.5t-46.5 -19.5zM1045 91h115v-91h-85q-58 0 -94 26q-45 -26 -108 -26h-270q-6 -132 -67.5 -193t-199.5 -61q-139 0 -205 67.5t-66 216.5q0 132 38 185t92 53
q26 0 44.5 -11t24.5 -24q-33 -28 -60 -91t-27 -142q0 -54 13 -90.5t37.5 -53t49 -23t59.5 -6.5q83 0 118.5 47t35.5 163v275q0 26 -14.5 47t-31.5 30q7 15 27 27.5t49 12.5q48 0 69 -38q26 35 83.5 62t134.5 27q48 0 92 -12t86 -38.5t67.5 -76.5t25.5 -118q0 -85 -33 -144z
M860 91q52 0 78 41.5t26 94.5q0 83 -53 122.5t-121 39.5q-58 0 -112 -27.5t-74 -64.5v-206h256z" />
    <glyph glyph-name="uniFEBF" unicode="&#x636;" horiz-adv-x="753" arabic-form="initial" 
d="M412 545q-28 0 -47.5 19.5t-19.5 46.5q0 28 19.5 47t47.5 19q27 0 46.5 -19t19.5 -47q0 -27 -19.5 -46.5t-46.5 -19.5zM417 480q48 0 92.5 -12t86.5 -38.5t67 -76.5t25 -118q0 -26 -3.5 -51.5t-16 -60.5t-33 -60.5t-60 -44t-92.5 -18.5h-483v91h100v221q0 26 -14.5 47
t-31.5 30q21 40 76 40q48 0 69 -38q26 35 83.5 62t134.5 27zM471 91q52 0 77.5 41.5t25.5 94.5q0 83 -53 122.5t-120 39.5q-59 0 -113.5 -27.5t-73.5 -65.5v-205h257z" />
    <glyph glyph-name="uniFEC0" unicode="&#x636;" horiz-adv-x="791" arabic-form="medial" 
d="M412 545q-28 0 -47.5 19.5t-19.5 46.5q0 28 19.5 47t47.5 19q27 0 46.5 -19t19.5 -47q0 -27 -19.5 -46.5t-46.5 -19.5zM655 91h136v-91h-99q-58 0 -98 27q-47 -27 -111 -27h-483v91h100v221q0 26 -14.5 47t-31.5 30q21 40 76 40q48 0 69 -38q26 35 83.5 62t134.5 27
q48 0 92.5 -12t86.5 -38.5t67 -76.5t25 -118q0 -85 -33 -144zM471 91q52 0 77.5 41.5t25.5 94.5q0 83 -53 122.5t-120 39.5q-59 0 -113.5 -27.5t-73.5 -65.5v-205h257z" />
    <glyph glyph-name="uniFEC2" unicode="&#x637;" horiz-adv-x="870" arabic-form="final" 
d="M731 91h139v-91h-102q-57 0 -97 29q-50 -29 -120 -29h-500q-16 0 -23.5 15.5t-7.5 30.5q0 14 7.5 29.5t23.5 15.5h60v422q0 67 -50 98q3 15 23 32t51 17q39 0 64 -30t25 -86v-248q30 70 102.5 127t169.5 57q48 0 93.5 -15.5t84.5 -46t63 -82t24 -117.5q0 -76 -30 -128z
M511 91q67 0 102 38t35 97q0 78 -53 120.5t-125 42.5q-40 0 -77 -15.5t-63.5 -38t-49 -52t-35 -53.5t-21.5 -46v-93h287z" />
    <glyph glyph-name="uniFEC3" unicode="&#x637;" horiz-adv-x="829" arabic-form="initial" 
d="M499 480q48 0 93.5 -15.5t84.5 -46t63 -82t24 -117.5q0 -43 -10.5 -80t-33.5 -69.5t-65.5 -51t-100.5 -18.5h-554v91h113v422q0 67 -49 98q3 15 23 32t50 17q40 0 65 -30t25 -86v-246q31 70 103 126t169 56zM514 91q67 0 102 38t35 97q0 78 -53 120.5t-125 42.5
q-40 0 -77 -15t-63 -37.5t-48.5 -51.5t-35.5 -52.5t-22 -46.5v-95h287z" />
    <glyph glyph-name="uniFEC4" unicode="&#x637;" horiz-adv-x="876" arabic-form="medial" 
d="M734 91h142v-91h-102q-60 0 -99 30q-47 -30 -121 -30h-554v91h113v422q0 67 -49 98q3 15 23 32t50 17q40 0 65 -30t25 -86v-246q31 70 103 126t169 56q48 0 93.5 -15.5t84.5 -46t63 -82t24 -117.5q0 -76 -30 -128zM514 91q67 0 102 38t35 97q0 78 -53 120.5t-125 42.5
q-40 0 -77 -15t-63 -37.5t-48.5 -51.5t-35.5 -52.5t-22 -46.5v-95h287z" />
    <glyph glyph-name="uniFEC6" unicode="&#x638;" horiz-adv-x="870" arabic-form="final" 
d="M418 545q-28 0 -47.5 19.5t-19.5 46.5q0 28 19.5 47t47.5 19q27 0 46.5 -19t19.5 -47q0 -27 -19.5 -46.5t-46.5 -19.5zM731 91h139v-91h-102q-57 0 -97 29q-50 -29 -120 -29h-500q-16 0 -23.5 15.5t-7.5 30.5q0 14 7.5 29.5t23.5 15.5h60v422q0 67 -50 98q3 15 23 32
t51 17q39 0 64 -30t25 -86v-248q30 70 102.5 127t169.5 57q48 0 93.5 -15.5t84.5 -46t63 -82t24 -117.5q0 -76 -30 -128zM511 91q67 0 102 38t35 97q0 78 -53 120.5t-125 42.5q-40 0 -77 -15.5t-63.5 -38t-49 -52t-35 -53.5t-21.5 -46v-93h287z" />
    <glyph glyph-name="uniFEC7" unicode="&#x638;" horiz-adv-x="829" arabic-form="initial" 
d="M408 545q-28 0 -47.5 19.5t-19.5 46.5q0 28 19.5 47t47.5 19q27 0 46.5 -19t19.5 -47q0 -27 -19.5 -46.5t-46.5 -19.5zM499 480q48 0 93.5 -15.5t84.5 -46t63 -82t24 -117.5q0 -43 -10.5 -80t-33.5 -69.5t-65.5 -51t-100.5 -18.5h-554v91h113v422q0 67 -49 98q3 15 23 32
t50 17q40 0 65 -30t25 -86v-246q31 70 103 126t169 56zM514 91q67 0 102 38t35 97q0 78 -53 120.5t-125 42.5q-40 0 -77 -15t-63 -37.5t-48.5 -51.5t-35.5 -52.5t-22 -46.5v-95h287z" />
    <glyph glyph-name="uniFEC8" unicode="&#x638;" horiz-adv-x="876" arabic-form="medial" 
d="M407 545q-28 0 -47.5 19.5t-19.5 46.5q0 28 19.5 47t47.5 19q27 0 46.5 -19t19.5 -47q0 -27 -19.5 -46.5t-46.5 -19.5zM734 91h142v-91h-102q-60 0 -99 30q-47 -30 -121 -30h-554v91h113v422q0 67 -49 98q3 15 23 32t50 17q40 0 65 -30t25 -86v-246q31 70 103 126t169 56
q48 0 93.5 -15.5t84.5 -46t63 -82t24 -117.5q0 -76 -30 -128zM514 91q67 0 102 38t35 97q0 78 -53 120.5t-125 42.5q-40 0 -77 -15t-63 -37.5t-48.5 -51.5t-35.5 -52.5t-22 -46.5v-95h287z" />
    <glyph glyph-name="uniFECA" unicode="&#x639;" horiz-adv-x="610" arabic-form="final" 
d="M531 91h79v-91h-82q-42 0 -74 16q-34 -16 -75 -16h-175q-1 -175 79 -235q-5 -12 -22.5 -21.5t-41.5 -9.5q-33 0 -57.5 21t-36.5 54t-17.5 65t-5.5 63q0 71 30.5 112.5t92.5 41.5h44l-201 273q14 44 73 80t153 36q123 0 199.5 -61t76.5 -166q0 -92 -39 -162zM382 102
q41 19 58 62t17 84q0 65 -45.5 102.5t-115.5 37.5q-62 0 -101 -34z" />
    <glyph glyph-name="uniFECB" unicode="&#x639;" horiz-adv-x="505" arabic-form="initial" 
d="M404 91q36 0 36 -45q0 -46 -36 -46h-149q-56 0 -96 28q-39 -26 -94 -28h-65v92h103q-49 78 -49 158q0 100 66.5 165t153.5 65q33 0 66.5 -8.5t63 -35t29.5 -66.5q0 -34 -18.5 -51t-44.5 -17q-22 0 -48 10q0 78 -63 84q-37 -10 -64.5 -50t-27.5 -97q0 -71 42 -114.5
t132 -43.5h63z" />
    <glyph glyph-name="uniFECC" unicode="&#x639;" horiz-adv-x="569" arabic-form="medial" 
d="M489 91h80v-91h-81q-44 0 -76 16q-34 -16 -74 -16h-338v91h228l-201 273q14 44 73 80t153 36q123 0 199.5 -61t76.5 -166q0 -91 -40 -162zM342 102q40 19 57 63.5t17 84.5q0 63 -45.5 100.5t-115.5 37.5q-62 0 -101 -34z" />
    <glyph glyph-name="uniFECE" unicode="&#x63a;" horiz-adv-x="610" arabic-form="final" 
d="M321 545q-28 0 -47.5 19.5t-19.5 46.5q0 28 19.5 47t47.5 19q27 0 46.5 -19t19.5 -47q0 -27 -19.5 -46.5t-46.5 -19.5zM531 91h79v-91h-82q-42 0 -74 16q-34 -16 -75 -16h-175q-1 -175 79 -235q-5 -12 -22.5 -21.5t-41.5 -9.5q-33 0 -57.5 21t-36.5 54t-17.5 65t-5.5 63
q0 71 30.5 112.5t92.5 41.5h44l-201 273q14 44 73 80t153 36q123 0 199.5 -61t76.5 -166q0 -92 -39 -162zM382 102q41 19 58 62t17 84q0 65 -45.5 102.5t-115.5 37.5q-62 0 -101 -34z" />
    <glyph glyph-name="uniFECF" unicode="&#x63a;" horiz-adv-x="505" arabic-form="initial" 
d="M253 545q-28 0 -47.5 19.5t-19.5 46.5q0 28 19.5 47t47.5 19q27 0 46.5 -19t19.5 -47q0 -27 -19.5 -46.5t-46.5 -19.5zM404 91q36 0 36 -45q0 -46 -36 -46h-149q-56 0 -96 28q-39 -26 -94 -28h-65v92h103q-49 78 -49 158q0 100 66.5 165t153.5 65q33 0 66.5 -8.5t63 -35
t29.5 -66.5q0 -34 -18.5 -51t-44.5 -17q-22 0 -48 10q0 78 -63 84q-37 -10 -64.5 -50t-27.5 -97q0 -71 42 -114.5t132 -43.5h63z" />
    <glyph glyph-name="uniFED0" unicode="&#x63a;" horiz-adv-x="569" arabic-form="medial" 
d="M286 545q-28 0 -47.5 19.5t-19.5 46.5q0 28 19.5 47t47.5 19q27 0 46.5 -19t19.5 -47q0 -27 -19.5 -46.5t-46.5 -19.5zM489 91h80v-91h-81q-44 0 -76 16q-34 -16 -74 -16h-338v91h228l-201 273q14 44 73 80t153 36q123 0 199.5 -61t76.5 -166q0 -91 -40 -162zM342 102
q40 19 57 63.5t17 84.5q0 63 -45.5 100.5t-115.5 37.5q-62 0 -101 -34z" />
    <glyph glyph-name="uniFED2" unicode="&#x641;" horiz-adv-x="997" arabic-form="final" 
d="M722 545q-28 0 -47.5 19.5t-19.5 46.5q0 28 19.5 47t47.5 19q27 0 46.5 -19t19.5 -47q0 -27 -19.5 -46.5t-46.5 -19.5zM904 91h93v-91h-99q-36 0 -62 10q-23 -10 -57 -10h-515q-98 0 -148.5 57t-50.5 156q0 84 33 130t82 46q50 0 65 -41q-26 -16 -46 -55.5t-20 -96.5
q0 -105 94 -105h272q-36 60 -36 159q0 60 12 104t29.5 67.5t46 37.5t53.5 17.5t60 3.5q50 0 83.5 -8t61 -29.5t41 -63t13.5 -105.5v-134q0 -24 -5 -49zM796 170v139q0 44 -22.5 62.5t-53.5 18.5q-46 0 -71.5 -37.5t-25.5 -103.5q0 -21 4 -44.5t13 -51t28.5 -45t46.5 -17.5
h21q32 0 46 18.5t14 60.5z" />
    <glyph glyph-name="uniFED3" unicode="&#x641;" horiz-adv-x="540" arabic-form="initial" 
d="M288 545q-28 0 -47.5 19.5t-19.5 46.5q0 28 19.5 47t47.5 19q27 0 46.5 -19t19.5 -47q0 -27 -19.5 -46.5t-46.5 -19.5zM275 480q50 0 83.5 -8t61.5 -29.5t41.5 -63t13.5 -105.5v-134q0 -64 -32 -102t-98 -38h-345v91h110q-35 58 -35 159q0 60 11.5 103.5t29.5 67.5t46 38
t53 17.5t60 3.5zM361 170v139q0 44 -22 62.5t-54 18.5q-45 0 -70.5 -37.5t-25.5 -103.5q0 -22 4 -46t13 -51t28.5 -44t46.5 -17h21q32 0 45.5 18.5t13.5 60.5z" />
    <glyph glyph-name="uniFED4" unicode="&#x641;" horiz-adv-x="563" arabic-form="medial" 
d="M290 545q-28 0 -47.5 19.5t-19.5 46.5q0 28 19.5 47t47.5 19q27 0 46.5 -19t19.5 -47q0 -27 -19.5 -46.5t-46.5 -19.5zM470 91h93v-91h-100q-35 0 -61 10q-23 -10 -57 -10h-345v91h110q-35 58 -35 159q0 60 11.5 103.5t29.5 67.5t46 38t53 17.5t60 3.5q50 0 83.5 -8
t61.5 -29.5t41.5 -63t13.5 -105.5v-134q0 -24 -5 -49zM361 170v139q0 44 -22 62.5t-54 18.5q-45 0 -70.5 -37.5t-25.5 -103.5q0 -22 4 -46t13 -51t28.5 -44t46.5 -17h21q32 0 45.5 18.5t13.5 60.5z" />
    <glyph glyph-name="uniFED6" unicode="&#x642;" horiz-adv-x="925" arabic-form="final" 
d="M567 548q-25 0 -43 18t-18 43q0 26 18 44.5t43 18.5q26 0 44 -18.5t18 -44.5t-18 -43.5t-44 -17.5zM723 548q-26 0 -44 18t-18 43q0 26 18 44.5t44 18.5t43.5 -18.5t17.5 -44.5t-17.5 -43.5t-43.5 -17.5zM925 91v-91h-98q-21 -122 -114 -179t-257 -57q-94 0 -165.5 18
t-113.5 46.5t-68 68.5t-35 78t-9 81q0 85 30 144t87 59q23 0 38.5 -10t19.5 -22q-25 -22 -43 -72t-18 -111q0 -89 60.5 -139t210.5 -50q240 0 258 145h-97q-178 0 -178 252q0 134 51 181t157 47q67 0 106 -16t62 -64.5t23 -137.5v-171h93zM547 246q0 -24 4 -47t14 -49.5
t32 -42.5t53 -16h68v218q0 43 -22 61.5t-53 18.5q-46 0 -71 -38t-25 -105z" />
    <glyph glyph-name="uniFED7" unicode="&#x642;" horiz-adv-x="540" arabic-form="initial" 
d="M209 548q-25 0 -43 18t-18 43q0 26 18 44.5t43 18.5q26 0 44 -18.5t18 -44.5t-18 -43.5t-44 -17.5zM365 548q-26 0 -44 18t-18 43q0 26 18 44.5t44 18.5t43.5 -18.5t17.5 -44.5t-17.5 -43.5t-43.5 -17.5zM275 480q50 0 83.5 -8t61.5 -29.5t41.5 -63t13.5 -105.5v-134
q0 -64 -32 -102t-98 -38h-345v91h110q-35 58 -35 159q0 60 11.5 103.5t29.5 67.5t46 38t53 17.5t60 3.5zM361 170v139q0 44 -22 62.5t-54 18.5q-45 0 -70.5 -37.5t-25.5 -103.5q0 -22 4 -46t13 -51t28.5 -44t46.5 -17h21q32 0 45.5 18.5t13.5 60.5z" />
    <glyph glyph-name="uniFED8" unicode="&#x642;" horiz-adv-x="563" arabic-form="medial" 
d="M211 548q-25 0 -43 18t-18 43q0 26 18 44.5t43 18.5q26 0 44 -18.5t18 -44.5t-18 -43.5t-44 -17.5zM367 548q-26 0 -44 18t-18 43q0 26 18 44.5t44 18.5t43.5 -18.5t17.5 -44.5t-17.5 -43.5t-43.5 -17.5zM470 91h93v-91h-100q-35 0 -61 10q-23 -10 -57 -10h-345v91h110
q-35 58 -35 159q0 60 11.5 103.5t29.5 67.5t46 38t53 17.5t60 3.5q50 0 83.5 -8t61.5 -29.5t41.5 -63t13.5 -105.5v-134q0 -24 -5 -49zM361 170v139q0 44 -22 62.5t-54 18.5q-45 0 -70.5 -37.5t-25.5 -103.5q0 -22 4 -46t13 -51t28.5 -44t46.5 -17h21q32 0 45.5 18.5
t13.5 60.5z" />
    <glyph glyph-name="uniFEDA" unicode="&#x643;" horiz-adv-x="874" arabic-form="final" 
d="M754 91h120v-91h-91q-49 0 -84 19q-30 -19 -70 -19h-434q-65 0 -97.5 43t-32.5 109v108q0 25 14.5 41t42.5 16t42.5 -16.5t14.5 -42.5v-88q0 -42 13.5 -60.5t45.5 -18.5h354q30 0 46 24.5t16 62.5v335q0 67 -49 98q3 15 23 32t50 17q40 0 65 -30t25 -86v-369
q0 -47 -14 -84zM333 314q-24 14 -15.5 39t45.5 21q-15 9 -26.5 29.5t-11.5 44.5q0 38 28 67t79 29q65 0 65 -47q0 -24 -18.5 -30.5t-32.5 2.5q1 15 -8 27t-24 13q-24 -14 -24 -52q0 -33 21.5 -50.5t51.5 -17.5q7 0 14 1t14 2.5t9 1.5q14 0 19 -12t1 -24t-13 -12
q-171 -13 -174 -32z" />
    <glyph glyph-name="uniFEDB" unicode="&#x643;" horiz-adv-x="607" arabic-form="initial" 
d="M0 0v91h356q35 0 54 22t19 57q0 81 -99 81h-103q-76 0 -116.5 44.5t-40.5 122.5q0 175 220 175q59 0 122 -3q70 0 95 33q16 -5 13 -38t-24 -58t-59 -25l-140 1q-113 0 -113 -82q0 -36 20.5 -57t59.5 -21h79q199 0 199 -176q0 -77 -37.5 -122t-107.5 -45h-397z" />
    <glyph glyph-name="uniFEDC" unicode="&#x643;" horiz-adv-x="769" arabic-form="medial" 
d="M530 91h239v-91h-230q-41 0 -74 14q-30 -14 -68 -14h-397v91h356q35 0 54 22t19 57q0 81 -99 81h-103q-76 0 -116.5 44.5t-40.5 122.5q0 175 220 175q59 0 122 -3q70 0 95 33q16 -5 13 -38t-24 -58t-59 -25l-140 1q-113 0 -113 -82q0 -36 20.5 -57t59.5 -21h79
q199 0 199 -176q0 -43 -12 -76z" />
    <glyph glyph-name="uniFEDE" unicode="&#x644;" horiz-adv-x="730" arabic-form="final" 
d="M631 91h99v-91h-15q-49 0 -84 23q-7 -259 -272 -259q-146 0 -220 74.5t-74 198.5q0 78 30 137.5t91 59.5q39 0 68 -23q-24 -18 -48.5 -66.5t-24.5 -114.5q0 -89 53.5 -132t128.5 -43q47 0 80 17t48 46.5t21 57t6 59.5v478q0 67 -50 98q3 15 23 32t50 17q39 0 64.5 -30
t25.5 -86v-453z" />
    <glyph glyph-name="uniFEDF" unicode="&#x644;" horiz-adv-x="293" arabic-form="initial" 
d="M0 0v91h66q48 0 48 87v335q0 69 -50 98q3 15 23.5 32t50.5 17q39 0 64.5 -30t25.5 -86v-369q-1 -80 -38.5 -127.5t-101.5 -47.5h-88z" />
    <glyph glyph-name="uniFEE0" unicode="&#x644;" horiz-adv-x="333" arabic-form="medial" 
d="M214 91h119v-91h-71q-54 0 -94 26q-34 -26 -80 -26h-88v91h66q48 0 48 87v335q0 69 -50 98q3 15 23.5 32t50.5 17q39 0 64.5 -30t25.5 -86v-369q0 -47 -14 -84z" />
    <glyph glyph-name="uniFEE2" unicode="&#x645;" horiz-adv-x="689" arabic-form="final" 
d="M542 91h147v-91h-99q-58 0 -99 29q-42 -29 -112 -29h-82q-48 0 -71 -23t-23 -56v-83q0 -55 -25 -85.5t-64 -30.5q-31 0 -51 17.5t-23 31.5q50 31 50 98v51q0 16 3.5 34.5t11 41t24.5 43.5t40 34v196q0 65 12 107t37.5 64.5t58 31t80.5 8.5q45 0 78 -8.5t65.5 -32
t49.5 -75t17 -128.5q0 -92 -25 -145zM365 91q88 0 88 150q0 75 -21 111.5t-70 36.5q-34 0 -57 -19t-23 -62v-217h83z" />
    <glyph glyph-name="uniFEE3" unicode="&#x645;" horiz-adv-x="525" arabic-form="initial" 
d="M250 480q45 0 78 -8.5t65.5 -32t49.5 -75t17 -128.5q0 -122 -45.5 -180t-140.5 -58q-58 0 -98 22q-38 -20 -85 -20h-91v91h62v177q0 65 12 107.5t38 65t58 31t80 8.5zM258 91q89 0 89 149q0 75 -21.5 112t-70.5 37q-34 0 -56.5 -19t-22.5 -62v-217h82z" />
    <glyph glyph-name="uniFEE4" unicode="&#x645;" horiz-adv-x="528" arabic-form="medial" 
d="M435 91h93v-91h-44q-58 0 -98 28q-44 -30 -112 -30q-58 0 -98 22q-38 -20 -85 -20h-91v91h62v177q0 65 12 107.5t38 65t58 31t80 8.5q45 0 78 -8.5t65.5 -32t49.5 -75t17 -128.5q0 -91 -25 -145zM258 91q89 0 89 149q0 75 -21.5 112t-70.5 37q-34 0 -56.5 -19t-22.5 -62
v-217h82z" />
    <glyph glyph-name="uniFEE6" unicode="&#x646;" horiz-adv-x="722" arabic-form="final" 
d="M349 480q-28 0 -47.5 19.5t-19.5 46.5q0 28 19.5 47t47.5 19q27 0 46.5 -19t19.5 -47q0 -27 -19.5 -46.5t-46.5 -19.5zM631 91h91v-91h-14q-44 0 -77 21q-7 -257 -272 -257q-146 0 -220 74.5t-74 198.5q0 78 30 137.5t91 59.5q39 0 68 -23q-24 -18 -48.5 -66.5
t-24.5 -114.5q0 -89 53.5 -132t128.5 -43q47 0 80 17t48 46.5t21 57t6 59.5v390q0 25 15.5 40t40.5 15q26 0 41.5 -15t15.5 -42v-332z" />
    <glyph glyph-name="uniFEE7" unicode="&#x646;" horiz-adv-x="346" arabic-form="initial" 
d="M165 545q-28 0 -47.5 19.5t-19.5 46.5q0 28 19.5 47t47.5 19q27 0 46.5 -19t19.5 -47q0 -27 -19.5 -46.5t-46.5 -19.5zM0 0v91h82q45 0 65.5 47t20.5 113t-17 108.5t-58 76.5q4 16 21.5 30t48.5 14q60 0 89 -56t29 -145q0 -72 -18 -132.5t-65.5 -103.5t-117.5 -43h-80z
" />
    <glyph glyph-name="uniFEE8" unicode="&#x646;" horiz-adv-x="350" arabic-form="medial" 
d="M174 545q-28 0 -47.5 19.5t-19.5 46.5q0 28 19.5 47t47.5 19q27 0 46.5 -19t19.5 -47q0 -27 -19.5 -46.5t-46.5 -19.5zM265 91h85v-91h-124q-57 0 -96 31q-41 -30 -87 -31h-43v91h43q40 1 73 22v309q0 58 57 58q56 0 56 -59v-258q0 -72 36 -72z" />
    <glyph glyph-name="uniFEEA" unicode="&#x647;" horiz-adv-x="525" arabic-form="final" 
d="M463 91h62v-91h-91q-49 0 -84 20q-40 -22 -98 -22q-96 0 -141.5 57.5t-45.5 180.5q0 77 17 128.5t49.5 75t65.5 32t78 8.5q48 0 80 -8.5t58 -31t38 -65t12 -107.5v-177zM179 240q0 -149 88 -149h82v217q0 43 -22.5 62t-56.5 19q-49 0 -70 -37t-21 -112z" />
    <glyph glyph-name="uniFEEB" unicode="&#x647;" horiz-adv-x="687" arabic-form="initial" 
d="M343 595q44 1 89.5 -15t89.5 -49.5t72 -96t28 -144.5q0 -134 -71.5 -212t-202.5 -78q-88 0 -147 24q-47 -24 -164 -24h-37v91h21q29 -13 59 -13q17 0 33 4q-48 62 -48 161q0 76 33.5 129t101.5 53q67 0 101.5 -53t34.5 -127q0 -53 -17 -103.5t-37 -67.5q16 -4 42 -4
q85 0 134.5 51t49.5 154q0 61 -19.5 106.5t-51.5 70.5t-67 37t-72 12h-106q-60 0 -84 37.5t-18 90.5q26 -38 125 -38q11 0 41 1t55 2t32 1zM200 108q17 18 29 54t12 74t-11.5 68t-29.5 30t-29 -29.5t-11 -69.5q0 -83 40 -127zM134 93q4 4 4 6z" />
    <glyph glyph-name="uniFEEC" unicode="&#x647;" horiz-adv-x="531" arabic-form="medial" 
d="M531 91v-91h-87q-2 -19 -8 -41.5t-20 -49.5t-34 -48.5t-51.5 -36t-69.5 -14.5q-75 0 -127 52.5t-62 137.5h-72v91h70v115q0 71 13.5 124.5t32 81t43 44t40 20.5t29.5 4q20 0 42.5 -9.5t48.5 -32t43 -71t17 -114.5q0 -61 -15 -108t-36 -72.5t-50 -42.5t-49.5 -22.5
t-41.5 -6.5q6 -48 28 -74t47 -26q30 0 54 36.5t35 79t11 74.5h169zM227 382q-17 -8 -30 -57t-13 -134v-98q44 8 63 40.5t19 95.5q0 57 -12 98t-27 55z" />
    <glyph glyph-name="uniFEEE" unicode="&#x648;" horiz-adv-x="555" arabic-form="final" 
d="M555 91v-91h-92v-56q0 -20 -3.5 -40t-14 -45t-28 -43.5t-48.5 -31.5t-72 -13q-66 0 -99.5 31.5t-34.5 70.5q44 -27 90 -27q41 0 68.5 21t27.5 58l1 75l-98 -2q-96 0 -141.5 57.5t-45.5 180.5q0 77 17 128.5t49.5 75t65.5 32t78 8.5q48 0 80 -8.5t58 -31t38 -65t12 -107.5
v-177h92zM179 240q0 -149 88 -149h82v217q0 43 -22.5 62t-56.5 19q-49 0 -70 -37t-21 -112z" />
    <glyph glyph-name="uniFEF0" unicode="&#x649;" horiz-adv-x="930" arabic-form="final" 
d="M424 -236q-91 0 -158.5 21t-103.5 50t-57 70.5t-26.5 73t-5.5 66.5q0 95 36 140.5t83 45.5q26 0 41.5 -13.5t19.5 -29.5q-26 -21 -46 -65.5t-20 -95.5q0 -33 10 -60t35 -54t77 -42.5t126 -15.5q122 0 183 41t61 104h-24q-30 0 -52 8t-33 21t-15 29.5t-2 32.5t9 31
q33 -31 92 -31h276v-91h-138q0 -34 -10.5 -65.5t-36 -63t-64 -55t-99 -38t-136.5 -14.5h-22z" />
    <glyph glyph-name="uniFEF2" unicode="&#x64a;" horiz-adv-x="930" arabic-form="final" 
d="M424 -236q-91 0 -158.5 21t-103.5 50t-57 70.5t-26.5 73t-5.5 66.5q0 95 36 140.5t83 45.5q26 0 41.5 -13.5t19.5 -29.5q-26 -21 -46 -65.5t-20 -95.5q0 -33 10 -60t35 -54t77 -42.5t126 -15.5q122 0 183 41t61 104h-24q-30 0 -52 8t-33 21t-15 29.5t-2 32.5t9 31
q33 -31 92 -31h276v-91h-138q0 -34 -10.5 -65.5t-36 -63t-64 -55t-99 -38t-136.5 -14.5h-22zM351 -423q-25 0 -43 18.5t-18 43.5t18 43.5t43 18.5q26 0 44 -18t18 -44t-18 -44t-44 -18zM507 -423q-25 0 -43.5 18.5t-18.5 43.5t18.5 43.5t43.5 18.5q26 0 43.5 -18t17.5 -44
t-17.5 -44t-43.5 -18z" />
    <glyph glyph-name="uniFEF3" unicode="&#x64a;" horiz-adv-x="346" arabic-form="initial" 
d="M0 0v91h82q45 0 65.5 47t20.5 113t-17 108.5t-58 76.5q4 16 21.5 30t48.5 14q60 0 89 -56t29 -145q0 -72 -18 -132.5t-65.5 -103.5t-117.5 -43h-80zM83 -207q-25 0 -43 18.5t-18 43.5t18 43.5t43 18.5q26 0 44 -18t18 -44t-18 -44t-44 -18zM239 -207q-25 0 -43.5 18.5
t-18.5 43.5t18.5 43.5t43.5 18.5q26 0 43.5 -18t17.5 -44t-17.5 -44t-43.5 -18z" />
    <glyph glyph-name="uniFEF4" unicode="&#x64a;" horiz-adv-x="350" arabic-form="medial" 
d="M265 91h85v-91h-124q-57 0 -96 31q-41 -30 -87 -31h-43v91h43q40 1 73 22v309q0 58 57 58q56 0 56 -59v-258q0 -72 36 -72zM95 -83q26 0 44 -18t18 -44t-18 -44t-44 -18q-25 0 -43 18.5t-18 43.5t18 43.5t43 18.5zM251 -83q26 0 43.5 -18t17.5 -44t-17.5 -44t-43.5 -18
q-25 0 -43.5 18.5t-18.5 43.5t18.5 43.5t43.5 18.5z" />
    <glyph glyph-name=".notdef" horiz-adv-x="262" 
 />
    <glyph glyph-name=".null" 
 />
    <glyph glyph-name="nonmarkingreturn" horiz-adv-x="333" 
 />
    <glyph glyph-name="space" unicode=" " horiz-adv-x="250" 
 />
    <glyph glyph-name="exclam" unicode="!" horiz-adv-x="240" 
d="M80 155l-18 505h117l-19 -505h-80zM120 -14q-26 0 -42 16.5t-16 42.5q0 25 16 41t42 16t42 -16t16 -41q0 -26 -16 -42.5t-42 -16.5z" />
    <glyph glyph-name="quotedbl" unicode="&#x22;" horiz-adv-x="380" 
d="M78 390l-30 270h118l-30 -270h-58zM244 390l-30 270h118l-30 -270h-58z" />
    <glyph glyph-name="numbersign" unicode="#" horiz-adv-x="686" 
d="M120 0l36 173h-126v63h139l37 178h-116v63h129l42 198h85l-42 -198h135l41 198h85l-41 -198h131v-63h-145l-36 -178h121v-63h-135l-35 -173h-85l35 173h-134l-36 -173h-85zM254 236h135l36 178h-134z" />
    <glyph glyph-name="dollar" unicode="$" horiz-adv-x="540" 
d="M235 -80v65q-79 7 -134.5 39t-55.5 80v113h24q15 -91 55.5 -136.5t110.5 -53.5v263l-68 41q-66 39 -94 80t-28 96q0 73 51.5 119t138.5 51v58h58v-59q75 -6 130.5 -38.5t55.5 -79.5v-113h-24q-15 92 -54.5 136t-107.5 52v-246l84 -49q68 -40 98 -78t30 -91
q0 -82 -55.5 -131.5t-156.5 -53.5v-64h-58zM235 422v210q-39 -7 -63.5 -32.5t-24.5 -63.5q0 -36 20 -60t68 -54zM293 28q46 5 74 30.5t28 66.5q0 40 -24 68.5t-78 61.5v-227z" />
    <glyph glyph-name="percent" unicode="%" horiz-adv-x="722" 
d="M185 391q-73 0 -113.5 36t-40.5 101t40.5 101t113.5 36q71 0 111.5 -36t40.5 -101t-40.5 -101t-111.5 -36zM78 0l473 660h93l-472 -660h-94zM184 429q82 0 82 99t-83 99q-80 0 -80 -99t81 -99zM539 -5q-72 0 -113 36t-41 101t41 101t113 36q71 0 112 -36t41 -101
t-41 -101t-112 -36zM538 33q82 0 82 99t-82 99q-81 0 -81 -99t81 -99z" />
    <glyph glyph-name="ampersand" unicode="&#x26;" horiz-adv-x="628" 
d="M268 -20q-118 0 -175 43.5t-57 113.5q0 59 39.5 102t112.5 87q-108 98 -108 198q0 73 51 114.5t141 41.5q84 0 130.5 -38.5t46.5 -101.5q0 -59 -40 -106t-111 -94l191 -208q24 26 63 82q15 24 24 40l30 -20q-9 -22 -22 -43q-30 -51 -66 -90l93 -101h-125l-39 40
q-14 -11 -34.5 -22.5t-61.5 -24.5t-83 -13zM263 379q80 70 80 151q0 57 -21.5 84.5t-49.5 27.5q-76 0 -76 -118q0 -82 67 -145zM281 18q79 0 140 52l-197 213q-72 -63 -72 -136q0 -62 32.5 -95.5t96.5 -33.5z" />
    <glyph glyph-name="quotesingle" unicode="'" horiz-adv-x="214" 
d="M78 390l-30 270h118l-30 -270h-58z" />
    <glyph glyph-name="parenleft" unicode="(" horiz-adv-x="315" 
d="M292 -216q-133 93 -198.5 203t-65.5 253t65.5 253t198.5 203l12 -18q-162 -143 -162 -438t162 -438z" />
    <glyph glyph-name="parenright" unicode=")" horiz-adv-x="316" 
d="M24 -216l-12 18q162 143 162 438t-162 438l12 18q133 -93 198.5 -203t65.5 -253t-65.5 -253t-198.5 -203z" />
    <glyph glyph-name="asterisk" unicode="*" horiz-adv-x="430" 
d="M166 326l26 133l-105 -95l-45 79l144 50l-144 50l45 80l105 -96l-26 133h98l-26 -133l105 96l45 -80l-144 -50l144 -50l-45 -79l-106 96l27 -134h-98z" />
    <glyph glyph-name="plus" unicode="+" horiz-adv-x="539" 
d="M231 100v197h-198v66h198v197h78v-197h198v-66h-198v-197h-78z" />
    <glyph glyph-name="comma" unicode="," horiz-adv-x="232" 
d="M66 -158l-14 20q81 57 81 129q-13 -5 -21 -5q-27 0 -43 16t-16 42q0 27 16.5 44t44.5 17q31 0 48 -21t17 -54q0 -119 -113 -188z" />
    <glyph glyph-name="hyphen" unicode="-" horiz-adv-x="392" 
d="M61 222v85h269v-85h-269z" />
    <glyph glyph-name="period" unicode="." horiz-adv-x="222" 
d="M111 -14q-26 0 -42 16.5t-16 42.5q0 25 16 41.5t42 16.5t42 -16.5t16 -41.5q0 -26 -16 -42.5t-42 -16.5z" />
    <glyph glyph-name="slash" unicode="/" horiz-adv-x="461" 
d="M22 0l321 660h96l-321 -660h-96z" />
    <glyph glyph-name="zero" unicode="0" horiz-adv-x="597" 
d="M298 -20q-251 0 -251 350t251 350q252 0 252 -350t-252 -350zM298 23q70 0 99.5 73t29.5 234t-29.5 234t-99.5 73q-69 0 -98.5 -73t-29.5 -234t29.5 -234t98.5 -73z" />
    <glyph glyph-name="one" unicode="1" horiz-adv-x="316" 
d="M123 0v549l-91 -58l-22 27l155 142h72v-660h-114z" />
    <glyph glyph-name="two" unicode="2" horiz-adv-x="535" 
d="M41 0v59l69 66.5l74.5 72t64 68.5t58 74.5t35 71.5t15.5 76q0 73 -34.5 111t-84.5 38q-63 0 -106 -43.5t-58 -129.5h-29q0 105 24 136q28 34 81 57t112 23q30 0 57 -4t57.5 -17t52.5 -33t36.5 -55.5t14.5 -82.5q0 -51 -25 -103.5t-70 -101t-87 -86.5l-97 -84t-80 -70h214
q60 0 92.5 27.5t32.5 80.5h26v-71q0 -80 -85 -80h-360z" />
    <glyph glyph-name="three" unicode="3" horiz-adv-x="538" 
d="M272 -20q-83 0 -138.5 27.5t-101.5 80.5l23 24q80 -89 181 -89q64 0 104 40.5t40 121.5q0 76 -37.5 115.5t-91.5 39.5q-43 0 -111 -17l-25 39l272 255h-181q-60 0 -92.5 -27.5t-32.5 -80.5h-26v71q0 80 85 80h330v-43l-257 -241q21 7 74 7q25 0 52.5 -5.5t57 -20t53 -36
t38.5 -57t15 -79.5q0 -49 -17 -87t-42 -59.5t-58 -35.5t-60.5 -18.5t-53.5 -4.5z" />
    <glyph glyph-name="four" unicode="4" horiz-adv-x="561" 
d="M333 0v170h-320v40l339 450h94v-447h90v-43h-90v-170h-113zM78 213h255v339z" />
    <glyph glyph-name="five" unicode="5" horiz-adv-x="539" 
d="M262 -20q-75 0 -126 26.5t-97 80.5l25 22q73 -86 178 -86q63 0 103 41t40 124q0 77 -41.5 115.5t-117.5 38.5q-38 0 -125 -17l-40 39l11 296h383v-42h-281l-9 -237l31 2q51 3 62 3q34 0 66 -5t66.5 -19t60 -35.5t42 -57t16.5 -81.5q0 -48 -17.5 -86t-43.5 -60.5
t-60.5 -37t-65 -19.5t-60.5 -5z" />
    <glyph glyph-name="six" unicode="6" horiz-adv-x="551" 
d="M289 -20q-242 0 -242 350t268 350q81 0 158 -32l-6 -25q-80 14 -132 14q-81 0 -125 -65t-44 -187q61 47 144 47q206 0 206 -227q0 -93 -59.5 -159t-167.5 -66zM289 23q50 0 79 52.5t29 129.5q0 184 -117 184q-66 0 -114 -51q0 -315 123 -315z" />
    <glyph glyph-name="seven" unicode="7" horiz-adv-x="473" 
d="M106 0l250 617h-182q-60 0 -92.5 -27.5t-32.5 -80.5h-26v71q0 80 85 80h357v-43l-250 -617h-109z" />
    <glyph glyph-name="eight" unicode="8" horiz-adv-x="568" 
d="M284 -20q-106 0 -174 42.5t-68 128.5q0 66 44.5 109t119.5 75q-68 38 -103.5 76.5t-35.5 97.5q0 171 217 171q98 0 157.5 -37.5t59.5 -123.5q0 -102 -131 -162q36 -20 59 -36.5t48 -40t37 -53.5t12 -66q0 -93 -67 -137t-175 -44zM321 382q61 46 61 137q0 63 -29.5 90.5
t-68.5 27.5t-68.5 -25.5t-29.5 -82.5q0 -83 135 -147zM284 23q53 0 88 31t35 87q0 57 -38.5 95t-112.5 77q-46 -24 -70.5 -60.5t-24.5 -101.5q0 -64 34 -96t89 -32z" />
    <glyph glyph-name="nine" unicode="9" horiz-adv-x="550" 
d="M235 -20q-85 0 -158 32l6 25q76 -14 132 -14q81 0 125 65t44 187q-61 -47 -144 -47q-206 0 -206 227q0 93 59.5 159t167.5 66q242 0 242 -350q0 -178 -66.5 -264t-201.5 -86zM270 271q37 0 67.5 17t46.5 34q0 315 -123 315q-50 0 -79 -53t-29 -129q0 -184 117 -184z" />
    <glyph glyph-name="colon" unicode=":" horiz-adv-x="239" 
d="M120 345q-26 0 -42 16t-16 42q0 25 16 41.5t42 16.5t42 -16.5t16 -41.5q0 -26 -15.5 -42t-42.5 -16zM119 -14q-25 0 -41.5 16.5t-16.5 42.5q0 25 16.5 41.5t41.5 16.5q27 0 43 -16.5t16 -41.5q0 -26 -16 -42.5t-43 -16.5z" />
    <glyph glyph-name="semicolon" unicode=";" horiz-adv-x="253" 
d="M127 345q-26 0 -42 16.5t-16 42.5q0 25 16 41.5t42 16.5t42 -16.5t16 -41.5q0 -26 -16 -42.5t-42 -16.5zM77 -158l-14 20q81 57 81 129q-12 -5 -21 -5q-27 0 -43 16t-16 42q0 27 16.5 44t44.5 17q31 0 48 -21t17 -54q0 -119 -113 -188z" />
    <glyph glyph-name="less" unicode="&#x3c;" horiz-adv-x="613" 
d="M549 83l-520 225v54l520 225v-78l-402 -174l402 -174v-78z" />
    <glyph glyph-name="equal" unicode="=" horiz-adv-x="662" 
d="M61 387v66h539v-66h-539zM61 207v66h539v-66h-539z" />
    <glyph glyph-name="greater" unicode="&#x3e;" horiz-adv-x="613" 
d="M64 83v78l402 174l-402 174v78l520 -225v-54z" />
    <glyph glyph-name="question" unicode="?" horiz-adv-x="490" 
d="M204 156q2 43 16 79t33 62.5l38 53t32 61.5t13 76q0 77 -31.5 113t-83.5 36q-62 0 -105.5 -45t-60.5 -136h-26q0 37 1 56.5t7 45.5t18 41q29 34 83.5 57.5t112.5 23.5q56 0 101.5 -18.5t76.5 -63t31 -110.5q0 -46 -19.5 -84.5t-48.5 -65.5l-57.5 -52.5t-50.5 -58.5
t-24 -71h-56zM232 -14q-27 0 -42.5 16.5t-15.5 42.5q0 25 16 41.5t42 16.5t42 -16.5t16 -41.5q0 -26 -16 -42.5t-42 -16.5z" />
    <glyph glyph-name="at" unicode="@" horiz-adv-x="868" 
d="M436 -180q-181 0 -290.5 112t-109.5 318t109.5 318t290.5 112q180 0 289.5 -109t109.5 -301q0 -265 -204 -265q-93 0 -117 55h-5q-37 -55 -125 -55q-70 0 -115 35.5t-45 101.5q0 74 64 109.5t200 35.5h21q0 94 -25 129.5t-72 35.5q-84 0 -104 -88h-51q0 68 32 99
q32 32 143 32q191 0 191 -210v-182q0 -54 44 -54q50 0 80.5 54t30.5 167q0 176 -92.5 271.5t-249.5 95.5q-158 0 -250 -99t-92 -288t92 -288t250 -99q183 0 314 91l24 -36q-140 -98 -338 -98zM420 53q56 0 89 63v127h-21q-148 0 -148 -101q0 -44 21.5 -66.5t58.5 -22.5z" />
    <glyph glyph-name="A" unicode="A" horiz-adv-x="642" 
d="M626 -4q-134 0 -186 130l-24 59h-272l-81 -185h-49l289 660h38l223 -534q21 -50 45.5 -74t60.5 -28v-23q-18 -5 -44 -5zM163 228h233l-114 273z" />
    <glyph glyph-name="B" unicode="B" horiz-adv-x="635" 
d="M100 0v534q0 51 -14 75.5t-56 24.5h-15v26h266q285 0 285 -175q0 -46 -34.5 -85.5t-100.5 -58.5q91 -12 129 -53.5t38 -105.5q0 -182 -287 -182h-211zM213 359h83q65 0 107 32.5t42 98.5q0 68 -49.5 100t-116.5 32q-26 0 -66 -8v-255zM296 38q86 0 132.5 36t46.5 103
q0 139 -179 139h-83v-266q42 -12 83 -12z" />
    <glyph glyph-name="C" unicode="C" horiz-adv-x="673" 
d="M362 -20q-148 0 -235 96t-87 244q0 151 93 255.5t229 104.5q84 0 144 -22.5t90 -58.5q12 -15 18 -43t6.5 -47t0.5 -61h-26q-38 189 -203 189q-229 0 -229 -317q0 -80 22 -144.5t75.5 -108.5t131.5 -44q144 0 223 142l29 -22q-47 -86 -114.5 -124.5t-167.5 -38.5z" />
    <glyph glyph-name="D" unicode="D" horiz-adv-x="727" 
d="M100 0v534q0 51 -14 75.5t-56 24.5h-15v26h268q199 0 302 -86t103 -240q0 -151 -99 -242.5t-280 -91.5h-209zM306 38q109 0 179 79.5t70 212.5q0 131 -69.5 211.5t-181.5 80.5q-38 0 -90 -11v-564q47 -9 92 -9z" />
    <glyph glyph-name="E" unicode="E" horiz-adv-x="596" 
d="M100 0v534q0 51 -14 75.5t-56 24.5h-15v26h435q85 0 85 -80v-81h-26q0 118 -125 118h-171v-254h264v-43h-264v-277h173q62 0 100 25t63 87l24 -8l-32 -85q-11 -31 -29 -46.5t-53 -15.5h-359z" />
    <glyph glyph-name="F" unicode="F" horiz-adv-x="534" 
d="M100 0v534q0 51 -14 75.5t-56 24.5h-15v26h411q85 0 85 -80v-81h-26q0 118 -125 118h-147v-259h223v-43h-223v-315h-113z" />
    <glyph glyph-name="G" unicode="G" horiz-adv-x="728" 
d="M390 -20q-152 0 -251.5 104t-99.5 256q0 146 88.5 243t232.5 97q88 0 150 -22.5t92 -58.5q25 -32 25 -137h-26q-19 90 -70.5 132.5t-140.5 42.5q-114 0 -171 -86t-57 -211q0 -170 62 -245t166 -75q82 0 144 30v176q0 24 6 42.5t23.5 37.5t56 29.5t96.5 10.5v-23
q-38 0 -53.5 -23.5t-15.5 -71.5v-183q-108 -65 -257 -65z" />
    <glyph glyph-name="H" unicode="H" horiz-adv-x="709" 
d="M100 0v534q0 51 -14 75.5t-56 24.5h-15v26h108q53 0 71.5 -25.5t18.5 -100.5v-171h282v297h114v-534q0 -51 14 -75.5t56 -24.5h14v-26h-108q-53 0 -71.5 25.5t-18.5 100.5v194h-282v-320h-113z" />
    <glyph glyph-name="I" unicode="I" horiz-adv-x="296" 
d="M173 0q-53 0 -71.5 25.5t-18.5 100.5v534h114v-534q0 -51 14 -75.5t56 -24.5h14v-26h-108z" />
    <glyph glyph-name="J" unicode="J" horiz-adv-x="271" 
d="M-15 -137v26q48 4 71 49t23 143v579h114v-579q0 -125 -43 -171.5t-165 -46.5z" />
    <glyph glyph-name="K" unicode="K" horiz-adv-x="686" 
d="M627 -10q-56 0 -111 25.5t-121 94.5l-181 189v-299h-114v534q0 51 -14 75.5t-56 24.5h-15v26h108q53 0 72 -26t19 -100v-192l188 213q43 51 82 78t92 27h62v-31q-54 0 -93.5 -15.5t-74.5 -54.5l-167 -189l230 -240q40 -43 85.5 -73.5t78.5 -34.5v-22q-30 -10 -70 -10z
" />
    <glyph glyph-name="L" unicode="L" horiz-adv-x="565" 
d="M100 0v534q0 51 -14 75.5t-56 24.5h-15v26h108q53 0 71.5 -25.5t18.5 -100.5v-491h349v-43h-462z" />
    <glyph glyph-name="M" unicode="M" horiz-adv-x="862" 
d="M845 -45q-107 0 -151.5 50t-44.5 165v367l-232 -537h-27l-265 553v-553h-46v660h111l241 -503l217 503h115v-490q0 -93 19 -140.5t63 -51.5v-23z" />
    <glyph glyph-name="N" unicode="N" horiz-adv-x="689" 
d="M575 -6l-426 513v-507h-46v540q0 94 -90 94h-7v26h68q96 0 144 -60l347 -414v474h46v-666h-36z" />
    <glyph glyph-name="O" unicode="O" horiz-adv-x="724" 
d="M362 -20q-144 0 -232.5 99.5t-88.5 250.5t88.5 250.5t232.5 99.5t233 -99.5t89 -250.5t-89 -250.5t-233 -99.5zM362 23q94 0 146.5 81t52.5 226t-52.5 226t-146.5 81t-146 -81t-52 -226t52 -226t146 -81z" />
    <glyph glyph-name="P" unicode="P" horiz-adv-x="567" 
d="M100 0v534q0 51 -14 75.5t-56 24.5h-15v26h269q32 0 61.5 -3t68 -15.5t66 -33t47 -59t19.5 -90.5q0 -49 -19 -86t-45.5 -56t-61.5 -31t-59.5 -15t-46.5 -3h-101v-268h-113zM213 306h66q57 0 100 37.5t43 120.5t-42.5 120.5t-97.5 37.5q-26 0 -69 -8v-308z" />
    <glyph glyph-name="Q" unicode="Q" horiz-adv-x="726" 
d="M686 -205q-257 0 -421 200q-103 31 -163 122t-60 213q0 151 88.5 250.5t232.5 99.5t233 -99.5t89 -250.5q0 -125 -62.5 -217t-169.5 -121q25 -71 96.5 -122t136.5 -51v-24zM363 23q94 0 146.5 81t52.5 226t-52.5 226t-146.5 81t-146 -81t-52 -226t52 -226t146 -81z" />
    <glyph glyph-name="R" unicode="R" horiz-adv-x="607" 
d="M553 -10q-53 0 -96 32.5t-91 112.5l-100 168h-52v-303h-114v534q0 51 -14 75.5t-56 24.5h-15v26h270q32 0 61.5 -3t68 -14.5t66 -30t47 -52.5t19.5 -80q0 -131 -162 -170l105 -175q62 -103 129 -112v-23q-22 -10 -66 -10zM214 341h65q55 0 99.5 34.5t44.5 105.5t-44 106
t-99 35q-24 0 -66 -8v-273z" />
    <glyph glyph-name="S" unicode="S" horiz-adv-x="550" 
d="M277 -17q-88 0 -157.5 33.5t-69.5 87.5v113h24q16 -102 64 -146.5t134 -44.5q57 0 92.5 26t35.5 73q0 41 -25 70t-80 63l-123 73q-66 39 -94 80t-28 96q0 78 58 124.5t154 46.5q85 0 153.5 -33t68.5 -87v-113h-24q-17 101 -63.5 145.5t-127.5 44.5q-51 0 -84 -27t-33 -72
q0 -39 25 -65.5t82 -59.5l123 -73q68 -40 98 -78t30 -91q0 -86 -62 -136t-171 -50z" />
    <glyph glyph-name="T" unicode="T" horiz-adv-x="578" 
d="M242 0v617h-79q-119 0 -119 -118h-26v81q0 80 85 80h468v-43h-216v-617h-113z" />
    <glyph glyph-name="U" unicode="U" horiz-adv-x="691" 
d="M359 -10q-138 0 -201 73t-63 224v247q0 49 -13.5 74t-51.5 26h-13v26h101q53 0 71.5 -25.5t18.5 -100.5l1 -277q2 -224 166 -224q106 0 152.5 60.5t46.5 193.5v373h46v-373q0 -151 -58.5 -224t-202.5 -73z" />
    <glyph glyph-name="V" unicode="V" horiz-adv-x="637" 
d="M305 -10l-233 553q-24 56 -46 78.5t-57 26.5v20q2 0 17.5 1t20.5 1q37 0 66.5 -7t65 -37t57.5 -83l163 -386l215 503h49l-287 -670h-31z" />
    <glyph glyph-name="W" unicode="W" horiz-adv-x="890" 
d="M275 -9l-207 552q-21 56 -44 78.5t-60 26.5v20q2 0 18 1t21 1q29 0 51 -4t49 -15.5t49.5 -39t37.5 -68.5l135 -362l97 281l-31 81q-21 55 -45.5 78t-61.5 27v20q2 0 16.5 1t19.5 1q29 0 51.5 -4t49 -16t49 -39t37.5 -68l140 -373l171 490h46l-234 -669h-32l-151 403
l-140 -403h-32z" />
    <glyph glyph-name="X" unicode="X" horiz-adv-x="655" 
d="M27 0l247 317l-141 213q-67 104 -144 110v20h114q82 0 153 -110l93 -141l196 251h58l-227 -291l158 -239q69 -103 139 -110v-20h-108q-85 0 -154 110l-109 166l-216 -276h-59z" />
    <glyph glyph-name="Y" unicode="Y" horiz-adv-x="634" 
d="M284 0v268l-175 262q-71 104 -138 110v20h102q91 0 157 -110l140 -213l200 323h57l-230 -374v-286h-113z" />
    <glyph glyph-name="Z" unicode="Z" horiz-adv-x="596" 
d="M28 0v27l390 591h-227q-119 0 -119 -119h-26v81q0 80 85 80h447l-405 -617h396v-43h-541z" />
    <glyph glyph-name="bracketleft" unicode="[" horiz-adv-x="325" 
d="M70 -200v880h232v-43h-129v-794h129v-43h-232z" />
    <glyph glyph-name="backslash" unicode="\" horiz-adv-x="461" 
d="M343 0l-321 660h96l321 -660h-96z" />
    <glyph glyph-name="bracketright" unicode="]" horiz-adv-x="325" 
d="M22 -200v43h130v794h-130v43h233v-880h-233z" />
    <glyph glyph-name="asciicircum" unicode="^" horiz-adv-x="504" 
d="M20 330l215 350h34l215 -350h-85l-147 239l-147 -239h-85z" />
    <glyph glyph-name="underscore" unicode="_" horiz-adv-x="434" 
d="M11 -66v66h412v-66h-412z" />
    <glyph glyph-name="grave" unicode="`" horiz-adv-x="216" 
d="M132 478l-112 202h115l61 -202h-64z" />
    <glyph glyph-name="a" unicode="a" horiz-adv-x="490" 
d="M193 -10q-70 0 -115 35.5t-45 101.5q0 76 63.5 111t200.5 35h21q0 91 -25 127.5t-74 36.5q-41 0 -67 -19t-37 -69h-51q0 69 25 96q32 35 150 35q193 0 193 -210v-270h-71l-35 45h-5q-39 -55 -128 -55zM229 38q56 0 89 63v129h-21q-145 0 -145 -103q0 -43 21.5 -66
t55.5 -23z" />
    <glyph glyph-name="b" unicode="b" horiz-adv-x="537" 
d="M299 -10q-85 0 -123 55h-5l-35 -45h-71v534q0 51 -14 75.5t-56 24.5h-14v26h108q53 0 71.5 -25.5t18.5 -100.5v-84q52 30 113 30q100 0 152 -68.5t52 -176.5q0 -107 -51 -176t-146 -69zM275 33q52 0 77.5 55t25.5 147q0 202 -110 202q-38 0 -89 -30v-311q33 -63 96 -63z
" />
    <glyph glyph-name="c" unicode="c" horiz-adv-x="491" 
d="M271 -10q-111 0 -171 69.5t-60 175.5t60 175.5t171 69.5q116 0 151 -35q17 -17 21 -43.5t4 -92.5h-26q-4 63 -39 95.5t-93 32.5q-62 0 -96.5 -53.5t-34.5 -148.5q0 -96 33.5 -149t99.5 -53q49 0 82 20.5t62 61.5l27 -20q-65 -105 -191 -105z" />
    <glyph glyph-name="d" unicode="d" horiz-adv-x="538" 
d="M239 -10q-95 0 -146.5 69t-51.5 176q0 108 52.5 176.5t152.5 68.5q59 0 113 -30v84q0 51 -14 75.5t-56 24.5h-14v26h108q53 0 71.5 -25.5t18.5 -100.5v-534h-71l-35 45h-5q-40 -55 -123 -55zM263 33q56 0 96 63v311q-51 30 -89 30q-110 0 -110 -202q0 -92 25 -147t78 -55
z" />
    <glyph glyph-name="e" unicode="e" horiz-adv-x="500" 
d="M262 -10q-103 0 -162.5 69t-59.5 176q0 111 59 178t153 67q97 0 154.5 -56t57.5 -152l-3 -54h-302q0 -90 32 -137.5t88 -47.5q47 0 80 21t62 61l26 -20q-63 -105 -185 -105zM159 261h186q0 176 -93 176q-41 0 -67 -44.5t-26 -131.5z" />
    <glyph glyph-name="f" unicode="f" horiz-adv-x="340" 
d="M80 0v427h-64v43h64v28q0 172 187 172q62 0 88 -16q24 -16 37 -44l-35 -31q-31 48 -90 48q-74 0 -74 -129v-28h134v-43h-134v-427h-113z" />
    <glyph glyph-name="g" unicode="g" horiz-adv-x="510" 
d="M254 -200q-235 0 -235 155q0 48 36 81.5t89 48.5q-43 17 -43 57q0 33 38 52q-39 16 -64.5 51.5t-25.5 80.5q0 154 205 154h199v-26l-79 -11q37 -17 60.5 -49t23.5 -68q0 -152 -204 -152q-102 0 -102 -32q0 -30 102 -30q103 -2 168.5 -41.5t65.5 -115.5q0 -155 -234 -155z
M254 212q88 0 88 114q0 56 -24.5 86t-63.5 30q-41 0 -65 -28.5t-24 -87.5q0 -114 89 -114zM254 -157q55 0 86.5 28t31.5 84q0 95 -110 113l-50 5q-77 -31 -77 -118q0 -57 31.5 -84.5t87.5 -27.5z" />
    <glyph glyph-name="h" unicode="h" horiz-adv-x="538" 
d="M65 0v534q0 51 -14 75.5t-56 24.5h-14v26h108q53 0 71.5 -25.5t18.5 -100.5v-97q49 43 118 43q36 0 66 -8.5t57.5 -27.5t43 -56.5t15.5 -89.5v-298h-114v295q0 71 -28 104t-70 33q-46 0 -88 -42v-390h-114z" />
    <glyph glyph-name="i" unicode="i" horiz-adv-x="258" 
d="M136 526q-31 0 -49 21t-18 51q0 23 14.5 37t36.5 14q31 0 49.5 -20.5t18.5 -50.5q0 -24 -14.5 -38t-37.5 -14zM82 0v344q0 51 -14 75.5t-56 24.5h-14v26h108q53 0 71.5 -25.5t18.5 -100.5v-344h-114z" />
    <glyph glyph-name="j" unicode="j" horiz-adv-x="258" 
d="M136 526q-31 0 -49 21t-18 51q0 23 14.5 37t36.5 14q31 0 49.5 -20.5t18.5 -50.5q0 -24 -14.5 -38t-37.5 -14zM-9 -190v23q47 5 69 50t22 142v319q0 51 -14 75.5t-56 24.5h-14v26h108q53 0 71.5 -25.5t18.5 -100.5v-319q0 -120 -44 -167.5t-161 -47.5z" />
    <glyph glyph-name="k" unicode="k" horiz-adv-x="497" 
d="M432 -10q-88 0 -148 80l-105 140v-210h-114v534q0 51 -14 75.5t-56 24.5h-14v26h108q53 0 71.5 -25.5t18.5 -100.5v-289l122 153q31 38 60.5 55t77.5 17h25v-26q-60 0 -98 -48l-103 -127l130 -169q51 -68 100 -78v-22q-22 -10 -61 -10z" />
    <glyph glyph-name="l" unicode="l" horiz-adv-x="251" 
d="M69 0v534q0 51 -14 75.5t-56 24.5h-14v26h108q53 0 71.5 -25.5t18.5 -100.5v-534h-114z" />
    <glyph glyph-name="m" unicode="m" horiz-adv-x="809" 
d="M83 0v344q0 51 -14 75.5t-56 24.5h-14v26h96q65 0 85 -39h4q51 49 128 49q46 0 80.5 -17.5t49.5 -44.5q55 62 146 62q160 0 160 -182v-298h-113v298q0 134 -80 134q-27 0 -53.5 -14.5t-40.5 -34.5q11 -25 11 -85v-298h-113v298q0 134 -80 134q-44 0 -83 -41v-391h-113z
" />
    <glyph glyph-name="n" unicode="n" horiz-adv-x="562" 
d="M83 0v344q0 51 -14 75.5t-56 24.5h-14v26h96q65 0 84 -38q55 48 142 48q181 0 181 -182v-298h-113v298q0 69 -28 101.5t-73 32.5q-52 0 -92 -36v-396h-113z" />
    <glyph glyph-name="o" unicode="o" horiz-adv-x="543" 
d="M271 -10q-106 0 -168.5 70t-62.5 175t62.5 175t168.5 70q107 0 169.5 -70t62.5 -175t-62.5 -175t-169.5 -70zM271 33q53 0 83.5 56.5t30.5 145.5t-30.5 145.5t-83.5 56.5t-83 -56.5t-30 -145.5t30 -145.5t83 -56.5z" />
    <glyph glyph-name="p" unicode="p" horiz-adv-x="555" 
d="M83 -190v534q0 51 -14 75.5t-56 24.5h-14v26h96q66 0 84 -43q58 53 138 53q95 0 146 -69t51 -176q0 -108 -52 -176.5t-152 -68.5q-64 0 -114 30v-210h-113zM286 33q110 0 110 202q0 92 -25.5 147t-77.5 55q-58 0 -97 -45v-329q49 -30 90 -30z" />
    <glyph glyph-name="q" unicode="q" horiz-adv-x="538" 
d="M359 -190v210q-48 -30 -113 -30q-100 0 -152.5 68.5t-52.5 176.5q0 107 51.5 176t146.5 69q82 0 123 -55h5l35 45h71v-660h-114zM270 33q42 0 89 30v311q-41 63 -96 63q-53 0 -78 -55t-25 -147q0 -202 110 -202z" />
    <glyph glyph-name="r" unicode="r" horiz-adv-x="409" 
d="M80 0v344q0 51 -13.5 75.5t-55.5 24.5h-10v26h91q65 0 84 -40q55 50 126 50q42 0 66 -18q7 -5 13.5 -12t9.5 -12.5l7 -12.5t5 -8l-47 -35q-25 35 -73 35q-61 0 -92 -39q3 -26 3 -40v-338h-114z" />
    <glyph glyph-name="s" unicode="s" horiz-adv-x="459" 
d="M229 -10q-115 0 -159 41q-11 11 -16.5 30t-6.5 34.5t-1 48.5h29q19 -111 134 -111q104 0 104 69q0 27 -22 46t-68 38l-55 24q-62 26 -93.5 58.5t-31.5 79.5q0 63 50 97.5t130 34.5q113 0 156 -41q12 -11 17.5 -30t6.5 -34.5t1 -48.5h-29q-19 111 -132 111q-45 0 -68 -19
t-23 -50q0 -46 74 -78l60 -25q72 -30 104 -61.5t32 -81.5q0 -63 -53.5 -97.5t-139.5 -34.5z" />
    <glyph glyph-name="t" unicode="t" horiz-adv-x="347" 
d="M220 -10q-64 0 -99.5 35t-35.5 104v298h-64v43h64v90l50 60h64v-150h114v-43h-114v-301q0 -50 14.5 -71.5t44.5 -21.5q41 0 77 24l13 -25q-52 -42 -128 -42z" />
    <glyph glyph-name="u" unicode="u" horiz-adv-x="553" 
d="M250 -10q-86 0 -132.5 42.5t-46.5 139.5v172q0 51 -14 75.5t-56 24.5h-10v26h104q53 0 71.5 -25.5t18.5 -100.5v-172q0 -137 95 -137q52 0 94 60v375h114v-470h-71l-35 43h-5q-49 -53 -127 -53z" />
    <glyph glyph-name="v" unicode="v" horiz-adv-x="499" 
d="M249 -10l-163 365q-26 56 -46 78.5t-49 24.5v20q2 0 16.5 1t19.5 1q61 0 105.5 -26.5t77.5 -98.5l88 -201l138 316h52l-209 -480h-30z" />
    <glyph glyph-name="w" unicode="w" horiz-adv-x="764" 
d="M243 -10l-155 365q-25 56 -46.5 79t-51.5 25v19q2 0 19.5 1t22.5 1q62 0 103 -27t72 -98l85 -199l75 183q-31 68 -52 93t-49 27v19q2 0 16.5 1t19.5 1q63 0 107 -27.5t74 -97.5l89 -205l126 320h51l-188 -480h-35l-128 293l-120 -293h-35z" />
    <glyph glyph-name="x" unicode="x" horiz-adv-x="493" 
d="M29 0l165 216l-92 154q-42 72 -97 80v20h91q75 0 122 -80l54 -91l130 171h60l-165 -215l93 -155q42 -72 99 -80v-20h-93q-75 0 -122 80l-54 91l-131 -171h-60z" />
    <glyph glyph-name="y" unicode="y" horiz-adv-x="511" 
d="M97 -200v33q52 0 85.5 21.5t55.5 78.5l20 55l-172 392q-30 72 -100 80v20h87q91 0 126 -80l115 -262l123 332h52l-199 -535q-29 -78 -65 -106.5t-92 -28.5h-36z" />
    <glyph glyph-name="z" unicode="z" horiz-adv-x="482" 
d="M41 0v26l262 401h-117q-62 0 -90.5 -23t-28.5 -70h-26v56q0 80 85 80h335l-278 -427h266v-43h-408z" />
    <glyph glyph-name="braceleft" unicode="{" horiz-adv-x="309" 
d="M286 -211q-180 26 -180 181v140q0 99 -100 114v32q100 15 100 114v140q0 154 180 181v-33q-40 -10 -55 -34.5t-15 -72.5v-171q0 -58 -27 -90.5t-87 -49.5q60 -17 87 -49.5t27 -90.5v-171q0 -47 15 -72.5t55 -34.5v-33z" />
    <glyph glyph-name="bar" unicode="|" horiz-adv-x="253" 
d="M70 -190v870h113v-870h-113z" />
    <glyph glyph-name="braceright" unicode="}" horiz-adv-x="309" 
d="M23 -211v33q40 9 55 34.5t15 72.5v171q0 58 27 90.5t87 49.5q-60 17 -87 49.5t-27 90.5v171q0 48 -15 72.5t-55 34.5v33q179 -27 179 -181v-140q0 -99 100 -114v-32q-100 -15 -100 -114v-140q0 -155 -179 -181z" />
    <glyph glyph-name="asciitilde" unicode="~" horiz-adv-x="618" 
d="M445 172q-54 0 -145 40t-125 40q-80 0 -80 -64h-40q0 75 31.5 112.5t88.5 37.5q54 0 145 -40t125 -40q80 0 80 64h40q0 -75 -31.5 -112.5t-88.5 -37.5z" />
    <glyph glyph-name="uni00A0" unicode="&#xa0;" horiz-adv-x="250" 
 />
    <glyph glyph-name="exclamdown" unicode="&#xa1;" horiz-adv-x="231" 
d="M115 364q-26 0 -42 16t-16 41q0 26 16 42.5t42 16.5t42 -16.5t16 -42.5q0 -25 -16 -41t-42 -16zM57 -194l19 505h79l19 -505h-117z" />
    <glyph glyph-name="cent" unicode="&#xa2;" horiz-adv-x="491" 
d="M241 -50v41q-100 8 -153 76t-53 168t53 167.5t153 76.5v41h51v-41q91 -2 125 -34q17 -17 21 -43.5t4 -92.5h-26q-4 60 -36.5 92t-87.5 35v-403q82 2 138 82l27 -20q-61 -95 -165 -104v-41h-51zM241 41v388q-88 -36 -88 -194q0 -163 88 -194z" />
    <glyph glyph-name="sterling" unicode="&#xa3;" horiz-adv-x="532" 
d="M34 0v28q41 12 57.5 54t16.5 138v100h-65v43h65v97q0 210 192 210q115 0 150 -35q25 -25 25 -96h-51q-20 88 -104 88q-99 0 -99 -167v-97h134v-43h-134v-100q0 -122 -64 -177h188q119 0 119 118h26v-81q0 -80 -85 -80h-371z" />
    <glyph glyph-name="currency" unicode="&#xa4;" horiz-adv-x="593" 
d="M119 0v194h-54v43h54v50h-54v43h54v207q0 48 -14 72.5t-56 24.5h-14v26h269q114 0 186.5 -44t72.5 -136q0 -98 -73 -145.5t-189 -47.5h-68v-50h254v-43h-254v-194h-114zM233 330h68q60 1 99 37t39 113q0 70 -40.5 106t-96.5 36q-41 0 -69 -7v-285z" />
    <glyph glyph-name="yen" unicode="&#xa5;" horiz-adv-x="701" 
d="M334 0v139h-88v43h88v40h-88v43h88l-174 265q-71 104 -138 110v20h101q90 0 158 -110l140 -213l200 323h57l-230 -374v-21h90v-43h-90v-40h90v-43h-90v-139h-114z" />
    <glyph glyph-name="brokenbar" unicode="&#xa6;" horiz-adv-x="259" 
d="M73 328v352h113v-352h-113zM73 -190v352h113v-352h-113z" />
    <glyph glyph-name="section" unicode="&#xa7;" horiz-adv-x="443" 
d="M216 -200q-97 0 -136 41q-13 13 -19.5 30t-7.5 31.5t-1 46.5h28q8 -50 35.5 -78t70.5 -28q89 0 89 89q0 32 -17 59t-42.5 44.5l-55.5 38l-55.5 39t-42.5 48t-17 64.5q0 49 29 86.5t80 58.5q-94 62 -94 148q0 75 47.5 113.5t118.5 38.5q98 0 137 -41q13 -13 19 -30
t7 -31.5t1 -46.5h-27q-8 50 -36 78t-71 28q-88 0 -88 -89q0 -38 23.5 -68t57.5 -52l68 -44t57.5 -55t23.5 -74q0 -103 -111 -145q96 -65 96 -148q0 -75 -47.5 -113.5t-119.5 -38.5zM249 124q54 20 54 91q0 38 -28.5 69t-81.5 61q-53 -18 -53 -90q0 -69 109 -131z" />
    <glyph glyph-name="dieresis" unicode="&#xa8;" horiz-adv-x="293" 
d="M62 690q-25 0 -39.5 15t-14.5 39t14.5 38.5t39.5 14.5q24 0 38.5 -14.5t14.5 -38.5t-14.5 -39t-38.5 -15zM232 690q-25 0 -39.5 15t-14.5 39t14.5 38.5t39.5 14.5q24 0 38.5 -14.5t14.5 -38.5t-14.5 -39t-38.5 -15z" />
    <glyph glyph-name="copyright" unicode="&#xa9;" horiz-adv-x="799" 
d="M400 -27q-158 0 -261 101t-103 256t103 256t261 101t261 -101.5t103 -255.5t-103 -255.5t-261 -101.5zM400 16q134 0 220 88t86 226t-86 226t-220 88q-135 0 -220.5 -88t-85.5 -226t85.5 -226t220.5 -88zM400 103q-95 0 -152 64t-57 160q0 99 61.5 168t147.5 69
q111 0 155 -53q20 -23 20 -101h-24q-23 124 -131 124q-66 0 -106.5 -48.5t-40.5 -158.5q0 -80 37.5 -137t109.5 -57q87 0 145 94l20 -15q-31 -58 -76 -83.5t-109 -25.5z" />
    <glyph glyph-name="ordfeminine" unicode="&#xaa;" horiz-adv-x="323" 
d="M131 396q-85 0 -85 70q0 40 36.5 60.5t101.5 20.5h16q0 89 -50 89t-60 -49h-27q0 40 14 54q16 19 83 19q48 0 75.5 -23.5t27.5 -89.5v-146h-39l-19 25h-3q-26 -30 -71 -30zM150 420q27 0 50 34v69h-16q-34 0 -54.5 -16t-20.5 -41q0 -46 41 -46z" />
    <glyph glyph-name="guillemotleft" unicode="&#xab;" horiz-adv-x="403" 
d="M189 30l-156 195l156 195h55l-97 -194l97 -196h-55zM294 80l-101 145l101 145h55l-62 -145l62 -145h-55z" />
    <glyph glyph-name="logicalnot" unicode="&#xac;" horiz-adv-x="659" 
d="M519 121v103h-457v66h535v-169h-78z" />
    <glyph glyph-name="uni00AD" unicode="&#xad;" horiz-adv-x="392" 
d="M61 222v85h269v-85h-269z" />
    <glyph glyph-name="registered" unicode="&#xae;" horiz-adv-x="799" 
d="M400 -25q-158 0 -261 100.5t-103 254.5t103 254.5t261 100.5t261 -100.5t103 -254.5t-103 -254.5t-261 -100.5zM400 18q135 0 220.5 87t85.5 225t-85.5 225t-220.5 87t-220.5 -87t-85.5 -225t85.5 -225t220.5 -87zM554 118q-35 0 -60.5 20t-57.5 74l-67 109h-32v-196h-76
v351q0 33 -7 48t-29 15h-16v15h171q171 0 171 -120q0 -86 -103 -108l70 -112q24 -39 42.5 -56t41.5 -20v-13q-7 -7 -48 -7zM377 347q37 0 64 22.5t27 68.5q0 45 -27 67.5t-64 22.5q-6 0 -21.5 -2t-18.5 -2v-173q32 -4 40 -4z" />
    <glyph glyph-name="macron" unicode="&#xaf;" horiz-adv-x="250" 
 />
    <glyph glyph-name="degree" unicode="&#xb0;" horiz-adv-x="414" 
d="M207 469q-30 0 -44.5 14t-14.5 37q0 51 59 51t59 -51t-59 -51zM207 527q-12 0 -12 -7q0 -1 1.5 -2.5t4.5 -3t6 -1.5t6.5 1.5t5 3t1.5 2.5q0 2 -4 4.5t-9 2.5z" />
    <glyph glyph-name="plusminus" unicode="&#xb1;" horiz-adv-x="579" 
d="M52 57v66h199v174h-199v66h199v197h77v-197h198v-66h-198v-174h198v-66h-474z" />
    <glyph glyph-name="uni00B2" unicode="&#xb2;" horiz-adv-x="319" 
d="M56 377v23l29.5 29t27 27l22 23t20 22l14.5 19t12.5 20l8 19t6 21t1.5 22q0 62 -49 62q-59 0 -73 -77h-14q0 51 11 66q31 36 89 36q41 0 70.5 -19.5t29.5 -67.5q0 -28 -15 -55t-29.5 -42.5t-54 -50.5t-56.5 -52h85q57 0 57 44h14v-33q0 -36 -39 -36h-167z" />
    <glyph glyph-name="uni00B3" unicode="&#xb3;" horiz-adv-x="307" 
d="M153 367q-66 0 -106 50l12 11q33 -36 84 -36q25 0 41.5 17.5t16.5 52.5q0 33 -17 48.5t-42 15.5q-24 0 -47 -6l-15 26l120 109h-81q-53 0 -53 -44h-11v32q0 37 39 37h152v-18l-128 -115q16 4 40 4q41 0 74 -22t33 -67q0 -52 -36 -73.5t-76 -21.5z" />
    <glyph glyph-name="acute" unicode="&#xb4;" horiz-adv-x="190" 
d="M20 700l41 136h109l-101 -136h-49z" />
    <glyph glyph-name="uni00B5" unicode="&#xb5;" horiz-adv-x="541" 
d="M68 -190v660h113v-235q0 -96 26.5 -149t76.5 -53q60 0 94 63v374h113v-470h-71l-35 45h-5q-40 -55 -109 -55q-57 0 -102 45v-225h-101z" />
    <glyph glyph-name="paragraph" unicode="&#xb6;" horiz-adv-x="620" 
d="M257 -190v468q-100 0 -165 53t-65 138q0 86 65 138.5t165 52.5h323v-43h-55v-807h-107v807h-53v-807h-108z" />
    <glyph glyph-name="periodcentered" unicode="&#xb7;" horiz-adv-x="228" 
d="M114 272q-26 0 -42 16.5t-16 42.5q0 25 16 41.5t42 16.5t42 -16.5t16 -41.5q0 -26 -16 -42.5t-42 -16.5z" />
    <glyph glyph-name="cedilla" unicode="&#xb8;" horiz-adv-x="192" 
d="M40 -202v44h50q40 0 40 32q0 33 -40 33h-45v93h57v-50q43 0 66.5 -20t23.5 -56q0 -35 -23.5 -55.5t-62.5 -20.5h-66z" />
    <glyph glyph-name="uni00B9" unicode="&#xb9;" horiz-adv-x="213" 
d="M84 377v241l-37 -22l-14 20l67 64h48v-303h-64z" />
    <glyph glyph-name="ordmasculine" unicode="&#xba;" horiz-adv-x="336" 
d="M168 566q25 0 36.5 -12.5t11.5 -25.5q0 -12 -12 -25t-36 -13t-36 13t-12 25t12.5 25t35.5 13z" />
    <glyph glyph-name="guillemotright" unicode="&#xbb;" horiz-adv-x="403" 
d="M160 30l96 196l-96 194h54l157 -195l-157 -195h-54zM55 80l61 145l-61 145h54l101 -145l-101 -145h-54z" />
    <glyph glyph-name="onequarter" unicode="&#xbc;" horiz-adv-x="608" 
d="M110 377v241l-37 -22l-14 20l67 64h48v-303h-64zM27 0l455 660h83l-455 -660h-83zM464 0v75h-148v22l153 207h59v-204h37v-25h-37v-75h-64zM353 100h111v150z" />
    <glyph glyph-name="onehalf" unicode="&#xbd;" horiz-adv-x="624" 
d="M110 377v241l-37 -22l-14 20l67 64h48v-303h-64zM27 0l455 660h83l-455 -660h-83zM368 0v23l29.5 29t27 27l22 23t20 22l14.5 19t12.5 20l8 19t6 21t1.5 22q0 62 -49 62q-59 0 -73 -77h-14q0 51 11 66q31 36 89 36q41 0 70.5 -19.5t29.5 -67.5q0 -28 -15 -55t-29.5 -42.5
t-54 -50.5t-56.5 -52h85q57 0 57 44h14v-33q0 -36 -39 -36h-167z" />
    <glyph glyph-name="threequarters" unicode="&#xbe;" horiz-adv-x="621" 
d="M145 367q-66 0 -106 50l12 11q33 -36 84 -36q25 0 41.5 17.5t16.5 52.5q0 33 -17 48.5t-42 15.5q-24 0 -47 -6l-16 26l121 109h-81q-53 0 -53 -44h-11v32q0 37 39 37h152v-18l-128 -115q16 4 40 4q41 0 74 -22t33 -67q0 -52 -36 -73.5t-76 -21.5zM50 0l455 660h83
l-455 -660h-83zM477 0v75h-148v22l153 207h59v-204h36v-25h-36v-75h-64zM366 100h111v150z" />
    <glyph glyph-name="questiondown" unicode="&#xbf;" horiz-adv-x="484" 
d="M259 365q-27 0 -43 16.5t-16 41.5q0 26 16.5 42.5t42.5 16.5q27 0 42.5 -16.5t15.5 -42.5q0 -25 -16 -41.5t-42 -16.5zM235 -212q-87 0 -147.5 48t-60.5 144q0 39 14.5 73t36.5 57t48 47l48.5 44.5t38.5 49.5t18 61h56q-2 -43 -16.5 -79t-34 -62.5l-39 -53t-33 -61.5
t-13.5 -76q0 -77 31.5 -113t82.5 -36q61 0 105.5 45t60.5 136h26q0 -39 -0.5 -57t-6.5 -44.5t-18 -41.5q-29 -34 -83.5 -57.5t-113.5 -23.5z" />
    <glyph glyph-name="Agrave" unicode="&#xc0;" horiz-adv-x="642" 
d="M296 701l-101 136h109l41 -136h-49zM626 -4q-134 0 -186 130l-24 59h-272l-81 -185h-49l289 660h38l223 -534q21 -50 45.5 -74t60.5 -28v-23q-18 -5 -44 -5zM163 228h233l-114 273z" />
    <glyph glyph-name="Aacute" unicode="&#xc1;" horiz-adv-x="642" 
d="M301 700l41 136h109l-101 -136h-49zM626 -4q-134 0 -186 130l-24 59h-272l-81 -185h-49l289 660h38l223 -534q21 -50 45.5 -74t60.5 -28v-23q-18 -5 -44 -5zM163 228h233l-114 273z" />
    <glyph glyph-name="Acircumflex" unicode="&#xc2;" horiz-adv-x="642" 
d="M180 685l80 121h122l80 -121h-56l-85 80l-85 -80h-56zM626 -4q-134 0 -186 130l-24 59h-272l-81 -185h-49l289 660h38l223 -534q21 -50 45.5 -74t60.5 -28v-23q-18 -5 -44 -5zM163 228h233l-114 273z" />
    <glyph glyph-name="Atilde" unicode="&#xc3;" horiz-adv-x="642" 
d="M210 700q0 54 16.5 76t48.5 22q23 0 53 -20t44 -20t23.5 12.5t9.5 27.5h36q0 -54 -16 -76t-48 -22q-23 0 -53 20t-45 20q-14 0 -23.5 -12.5t-9.5 -27.5h-36zM626 -4q-134 0 -186 130l-24 59h-272l-81 -185h-49l289 660h38l223 -534q21 -50 45.5 -74t60.5 -28v-23
q-18 -5 -44 -5zM163 228h233l-114 273z" />
    <glyph glyph-name="Adieresis" unicode="&#xc4;" horiz-adv-x="642" 
d="M236 690q-25 0 -39.5 15t-14.5 39t14.5 38.5t39.5 14.5q24 0 38.5 -14.5t14.5 -38.5t-14.5 -39t-38.5 -15zM406 690q-25 0 -39.5 15t-14.5 39t14.5 38.5t39.5 14.5q24 0 38.5 -14.5t14.5 -38.5t-14.5 -39t-38.5 -15zM626 -4q-134 0 -186 130l-24 59h-272l-81 -185h-49
l289 660h38l223 -534q21 -50 45.5 -74t60.5 -28v-23q-18 -5 -44 -5zM163 228h233l-114 273z" />
    <glyph glyph-name="Aring" unicode="&#xc5;" horiz-adv-x="642" 
d="M626 -4q-134 0 -186 130l-24 59h-272l-81 -185h-49l271 621q-54 27 -54 84q0 38 26 64.5t65 26.5q38 0 64.5 -26.5t26.5 -64.5q0 -30 -17 -52t-38 -32l206 -495q21 -50 45.5 -74t60.5 -28v-23q-18 -5 -44 -5zM301 660h42q24 16 24 45q0 23 -13 36.5t-32 13.5t-32 -13.5
t-13 -36.5q0 -29 24 -45zM163 228h233l-114 273z" />
    <glyph glyph-name="AE" unicode="&#xc6;" horiz-adv-x="867" 
d="M-19 0l370 660h370q85 0 85 -80v-81h-26q0 118 -125 118h-171v-254h264v-43h-264v-277h173q62 0 100 25t63 87l24 -8l-32 -85q-11 -31 -29 -46.5t-53 -15.5h-360v190h-227l-106 -190h-56zM168 233h202v361z" />
    <glyph glyph-name="Ccedilla" unicode="&#xc7;" horiz-adv-x="673" 
d="M644 143q-44 -82 -107.5 -120.5t-154.5 -42.5v-30q43 0 66.5 -20t23.5 -56q0 -35 -23.5 -55.5t-62.5 -20.5h-66v44h50q40 0 40 32q0 33 -40 33h-45v75q-132 12 -208.5 106.5t-76.5 231.5q0 151 93 255.5t229 104.5q84 0 144 -22.5t90 -58.5q12 -15 18 -43t6.5 -47
t0.5 -61h-26q-38 189 -203 189q-229 0 -229 -317q0 -80 22 -144.5t75.5 -108.5t131.5 -44q144 0 223 142z" />
    <glyph glyph-name="Egrave" unicode="&#xc8;" horiz-adv-x="596" 
d="M295 701l-101 136h109l41 -136h-49zM100 0v534q0 51 -14 75.5t-56 24.5h-15v26h435q85 0 85 -80v-81h-26q0 118 -125 118h-171v-254h264v-43h-264v-277h173q62 0 100 25t63 87l24 -8l-32 -85q-11 -31 -29 -46.5t-53 -15.5h-359z" />
    <glyph glyph-name="Eacute" unicode="&#xc9;" horiz-adv-x="596" 
d="M278 700l41 136h109l-101 -136h-49zM100 0v534q0 51 -14 75.5t-56 24.5h-15v26h435q85 0 85 -80v-81h-26q0 118 -125 118h-171v-254h264v-43h-264v-277h173q62 0 100 25t63 87l24 -8l-32 -85q-11 -31 -29 -46.5t-53 -15.5h-359z" />
    <glyph glyph-name="Ecircumflex" unicode="&#xca;" horiz-adv-x="596" 
d="M162 722l80 121h122l80 -121h-56l-85 80l-85 -80h-56zM100 0v534q0 51 -14 75.5t-56 24.5h-15v26h435q85 0 85 -80v-81h-26q0 118 -125 118h-171v-254h264v-43h-264v-277h173q62 0 100 25t63 87l24 -8l-32 -85q-11 -31 -29 -46.5t-53 -15.5h-359z" />
    <glyph glyph-name="Edieresis" unicode="&#xcb;" horiz-adv-x="596" 
d="M217 730q-23 0 -37 14.5t-14 36.5t14 37t37 15t37.5 -15t14.5 -37q0 -21 -14.5 -36t-37.5 -15zM393 730q-23 0 -37 14.5t-14 36.5t14 37t37 15t37.5 -15t14.5 -37q0 -21 -14.5 -36t-37.5 -15zM100 0v534q0 51 -14 75.5t-56 24.5h-15v26h435q85 0 85 -80v-81h-26
q0 118 -125 118h-171v-254h264v-43h-264v-277h173q62 0 100 25t63 87l24 -8l-32 -85q-11 -31 -29 -46.5t-53 -15.5h-359z" />
    <glyph glyph-name="Igrave" unicode="&#xcc;" horiz-adv-x="296" 
d="M126 701l-101 136h109l41 -136h-49zM173 0q-53 0 -71.5 25.5t-18.5 100.5v534h114v-534q0 -51 14 -75.5t56 -24.5h14v-26h-108z" />
    <glyph glyph-name="Iacute" unicode="&#xcd;" horiz-adv-x="296" 
d="M110 700l41 136h109l-101 -136h-49zM173 0q-53 0 -71.5 25.5t-18.5 100.5v534h114v-534q0 -51 14 -75.5t56 -24.5h14v-26h-108z" />
    <glyph glyph-name="Icircumflex" unicode="&#xce;" horiz-adv-x="296" 
d="M-1 695l80 121h122l80 -121h-56l-85 80l-85 -80h-56zM173 0q-53 0 -71.5 25.5t-18.5 100.5v534h114v-534q0 -51 14 -75.5t56 -24.5h14v-26h-108z" />
    <glyph glyph-name="Idieresis" unicode="&#xcf;" horiz-adv-x="296" 
d="M59 715q-24 0 -38.5 15t-14.5 39t14.5 38.5t38.5 14.5q25 0 39.5 -14.5t14.5 -38.5t-14.5 -39t-39.5 -15zM220 715q-24 0 -38.5 15t-14.5 39t14.5 38.5t38.5 14.5q25 0 39.5 -14.5t14.5 -38.5t-14.5 -39t-39.5 -15zM173 0q-53 0 -71.5 25.5t-18.5 100.5v534h114v-534
q0 -51 14 -75.5t56 -24.5h14v-26h-108z" />
    <glyph glyph-name="Eth" unicode="&#xd0;" horiz-adv-x="727" 
d="M100 0v307h-73v46h73v181q0 51 -14 75.5t-56 24.5h-15v26h268q199 0 302 -86t103 -240q0 -151 -99 -242.5t-280 -91.5h-209zM306 38q109 0 179 79.5t70 212.5q0 131 -69.5 211.5t-181.5 80.5q-38 0 -90 -11v-258h80v-46h-80v-260q47 -9 92 -9z" />
    <glyph glyph-name="Ntilde" unicode="&#xd1;" horiz-adv-x="689" 
d="M236 694q0 54 16.5 76t48.5 22q23 0 53 -20t44 -20t23.5 12.5t9.5 27.5h36q0 -54 -16 -76t-48 -22q-23 0 -53 20t-45 20q-14 0 -23.5 -12.5t-9.5 -27.5h-36zM575 -6l-426 513v-507h-46v540q0 94 -90 94h-7v26h68q96 0 144 -60l347 -414v474h46v-666h-36z" />
    <glyph glyph-name="Ograve" unicode="&#xd2;" horiz-adv-x="724" 
d="M342 723l-101 136h109l41 -136h-49zM362 -20q-144 0 -232.5 99.5t-88.5 250.5t88.5 250.5t232.5 99.5t233 -99.5t89 -250.5t-89 -250.5t-233 -99.5zM362 23q94 0 146.5 81t52.5 226t-52.5 226t-146.5 81t-146 -81t-52 -226t52 -226t146 -81z" />
    <glyph glyph-name="Oacute" unicode="&#xd3;" horiz-adv-x="724" 
d="M337 722l41 136h109l-101 -136h-49zM362 -20q-144 0 -232.5 99.5t-88.5 250.5t88.5 250.5t232.5 99.5t233 -99.5t89 -250.5t-89 -250.5t-233 -99.5zM362 23q94 0 146.5 81t52.5 226t-52.5 226t-146.5 81t-146 -81t-52 -226t52 -226t146 -81z" />
    <glyph glyph-name="Ocircumflex" unicode="&#xd4;" horiz-adv-x="724" 
d="M217 726l80 121h122l80 -121h-56l-85 80l-85 -80h-56zM362 -20q-144 0 -232.5 99.5t-88.5 250.5t88.5 250.5t232.5 99.5t233 -99.5t89 -250.5t-89 -250.5t-233 -99.5zM362 23q94 0 146.5 81t52.5 226t-52.5 226t-146.5 81t-146 -81t-52 -226t52 -226t146 -81z" />
    <glyph glyph-name="Otilde" unicode="&#xd5;" horiz-adv-x="724" 
d="M246 738q0 54 16.5 76t48.5 22q23 0 53 -20t44 -20t23.5 12.5t9.5 27.5h36q0 -54 -16 -76t-48 -22q-23 0 -53 20t-45 20q-14 0 -23.5 -12.5t-9.5 -27.5h-36zM362 -20q-144 0 -232.5 99.5t-88.5 250.5t88.5 250.5t232.5 99.5t233 -99.5t89 -250.5t-89 -250.5t-233 -99.5z
M362 23q94 0 146.5 81t52.5 226t-52.5 226t-146.5 81t-146 -81t-52 -226t52 -226t146 -81z" />
    <glyph glyph-name="Odieresis" unicode="&#xd6;" horiz-adv-x="724" 
d="M281 735q-23 0 -37 14.5t-14 36.5t14 37t37 15t37.5 -15t14.5 -37q0 -21 -14.5 -36t-37.5 -15zM457 735q-23 0 -37 14.5t-14 36.5t14 37t37 15t37.5 -15t14.5 -37q0 -21 -14.5 -36t-37.5 -15zM362 -20q-144 0 -232.5 99.5t-88.5 250.5t88.5 250.5t232.5 99.5t233 -99.5
t89 -250.5t-89 -250.5t-233 -99.5zM362 23q94 0 146.5 81t52.5 226t-52.5 226t-146.5 81t-146 -81t-52 -226t52 -226t146 -81z" />
    <glyph glyph-name="multiply" unicode="&#xd7;" horiz-adv-x="481" 
d="M100 139l-54 55l140 140l-140 139l55 55l140 -139l140 140l55 -55l-141 -140l140 -140l-55 -54l-140 139z" />
    <glyph glyph-name="Oslash" unicode="&#xd8;" horiz-adv-x="724" 
 />
    <glyph glyph-name="Ugrave" unicode="&#xd9;" horiz-adv-x="691" 
d="M367 680l-101 136h109l41 -136h-49zM359 -10q-138 0 -201 73t-63 224v247q0 49 -13.5 74t-51.5 26h-13v26h101q53 0 71.5 -25.5t18.5 -100.5l1 -277q2 -224 166 -224q106 0 152.5 60.5t46.5 193.5v373h46v-373q0 -151 -58.5 -224t-202.5 -73z" />
    <glyph glyph-name="Uacute" unicode="&#xda;" horiz-adv-x="691" 
d="M334 680l41 136h109l-101 -136h-49zM359 -10q-138 0 -201 73t-63 224v247q0 49 -13.5 74t-51.5 26h-13v26h101q53 0 71.5 -25.5t18.5 -100.5l1 -277q2 -224 166 -224q106 0 152.5 60.5t46.5 193.5v373h46v-373q0 -151 -58.5 -224t-202.5 -73z" />
    <glyph glyph-name="Ucircumflex" unicode="&#xdb;" horiz-adv-x="691" 
d="M241 677l80 121h122l80 -121h-56l-85 80l-85 -80h-56zM359 -10q-138 0 -201 73t-63 224v247q0 49 -13.5 74t-51.5 26h-13v26h101q53 0 71.5 -25.5t18.5 -100.5l1 -277q2 -224 166 -224q106 0 152.5 60.5t46.5 193.5v373h46v-373q0 -151 -58.5 -224t-202.5 -73z" />
    <glyph glyph-name="Udieresis" unicode="&#xdc;" horiz-adv-x="691" 
d="M290 680q-23 0 -37 14.5t-14 36.5t14 37t37 15t37.5 -15t14.5 -37q0 -21 -14.5 -36t-37.5 -15zM466 680q-23 0 -37 14.5t-14 36.5t14 37t37 15t37.5 -15t14.5 -37q0 -21 -14.5 -36t-37.5 -15zM359 -10q-138 0 -201 73t-63 224v247q0 49 -13.5 74t-51.5 26h-13v26h101
q53 0 71.5 -25.5t18.5 -100.5l1 -277q2 -224 166 -224q106 0 152.5 60.5t46.5 193.5v373h46v-373q0 -151 -58.5 -224t-202.5 -73z" />
    <glyph glyph-name="Yacute" unicode="&#xdd;" horiz-adv-x="634" 
d="M317 669l41 136h109l-101 -136h-49zM284 0v268l-175 262q-71 104 -138 110v20h102q91 0 157 -110l140 -213l200 323h57l-230 -374v-286h-113z" />
    <glyph glyph-name="Thorn" unicode="&#xde;" horiz-adv-x="547" 
d="M102 -30v606q0 46 -15 67t-55 21h-14v26h108q52 0 71 -24.5t19 -89.5v-26q310 -5 310 -235q0 -232 -310 -235v-110h-114zM216 123q94 4 140 54.5t46 137.5t-46 137.5t-140 53.5v-383z" />
    <glyph glyph-name="germandbls" unicode="&#xdf;" horiz-adv-x="565" 
d="M381 -10q-85 0 -125 40q-25 25 -25 86h26q4 -32 32.5 -57.5t71.5 -25.5q34 0 54 19t20 48q0 30 -20.5 54.5t-49.5 42.5l-58.5 37.5t-50 49t-20.5 66.5q0 30 11 53.5t27 38.5l32.5 29.5t27.5 34t11 44.5q0 38 -20.5 57.5t-57.5 19.5q-43 0 -65.5 -29t-22.5 -98v-500h-114
v500q0 97 54 133.5t153 36.5q90 0 136 -27t46 -73q0 -30 -12.5 -54.5t-30 -41t-35.5 -31.5t-30.5 -33.5t-12.5 -39.5q0 -30 21.5 -54.5t52.5 -42.5l62.5 -37.5t53 -49t21.5 -66.5q0 -64 -47 -97t-116 -33z" />
    <glyph glyph-name="agrave" unicode="&#xe0;" horiz-adv-x="490" 
d="M220 525l-101 136h109l41 -136h-49zM193 -10q-70 0 -115 35.5t-45 101.5q0 76 63.5 111t200.5 35h21q0 91 -25 127.5t-74 36.5q-41 0 -67 -19t-37 -69h-51q0 69 25 96q32 35 150 35q193 0 193 -210v-270h-71l-35 45h-5q-39 -55 -128 -55zM229 38q56 0 89 63v129h-21
q-145 0 -145 -103q0 -43 21.5 -66t55.5 -23z" />
    <glyph glyph-name="aacute" unicode="&#xe1;" horiz-adv-x="490" 
d="M201 525l41 136h109l-101 -136h-49zM193 -10q-70 0 -115 35.5t-45 101.5q0 76 63.5 111t200.5 35h21q0 91 -25 127.5t-74 36.5q-41 0 -67 -19t-37 -69h-51q0 69 25 96q32 35 150 35q193 0 193 -210v-270h-71l-35 45h-5q-39 -55 -128 -55zM229 38q56 0 89 63v129h-21
q-145 0 -145 -103q0 -43 21.5 -66t55.5 -23z" />
    <glyph glyph-name="acircumflex" unicode="&#xe2;" horiz-adv-x="490" 
d="M105 530l80 121h122l80 -121h-56l-85 80l-85 -80h-56zM193 -10q-70 0 -115 35.5t-45 101.5q0 76 63.5 111t200.5 35h21q0 91 -25 127.5t-74 36.5q-41 0 -67 -19t-37 -69h-51q0 69 25 96q32 35 150 35q193 0 193 -210v-270h-71l-35 45h-5q-39 -55 -128 -55zM229 38
q56 0 89 63v129h-21q-145 0 -145 -103q0 -43 21.5 -66t55.5 -23z" />
    <glyph glyph-name="atilde" unicode="&#xe3;" horiz-adv-x="490" 
d="M126 535q0 54 16.5 76t48.5 22q23 0 53 -20t44 -20t23.5 12.5t9.5 27.5h36q0 -54 -16 -76t-48 -22q-23 0 -53 20t-45 20q-14 0 -23.5 -12.5t-9.5 -27.5h-36zM193 -10q-70 0 -115 35.5t-45 101.5q0 76 63.5 111t200.5 35h21q0 91 -25 127.5t-74 36.5q-41 0 -67 -19
t-37 -69h-51q0 69 25 96q32 35 150 35q193 0 193 -210v-270h-71l-35 45h-5q-39 -55 -128 -55zM229 38q56 0 89 63v129h-21q-145 0 -145 -103q0 -43 21.5 -66t55.5 -23z" />
    <glyph glyph-name="adieresis" unicode="&#xe4;" horiz-adv-x="490" 
d="M157 535q-23 0 -37 14.5t-14 36.5t14 37t37 15t37.5 -15t14.5 -37q0 -21 -14.5 -36t-37.5 -15zM333 535q-23 0 -37 14.5t-14 36.5t14 37t37 15t37.5 -15t14.5 -37q0 -21 -14.5 -36t-37.5 -15zM193 -10q-70 0 -115 35.5t-45 101.5q0 76 63.5 111t200.5 35h21
q0 91 -25 127.5t-74 36.5q-41 0 -67 -19t-37 -69h-51q0 69 25 96q32 35 150 35q193 0 193 -210v-270h-71l-35 45h-5q-39 -55 -128 -55zM229 38q56 0 89 63v129h-21q-145 0 -145 -103q0 -43 21.5 -66t55.5 -23z" />
    <glyph glyph-name="aring" unicode="&#xe5;" horiz-adv-x="490" 
d="M240 524q-39 0 -65 26.5t-26 64.5t26 64.5t65 26.5q38 0 64.5 -26.5t26.5 -64.5t-26.5 -64.5t-64.5 -26.5zM240 565q19 0 32 13.5t13 36.5t-13 36.5t-32 13.5t-32 -13.5t-13 -36.5t13 -36.5t32 -13.5zM193 -10q-70 0 -115 35.5t-45 101.5q0 76 63.5 111t200.5 35h21
q0 91 -25 127.5t-74 36.5q-41 0 -67 -19t-37 -69h-51q0 69 25 96q32 35 150 35q193 0 193 -210v-270h-71l-35 45h-5q-39 -55 -128 -55zM229 38q56 0 89 63v129h-21q-145 0 -145 -103q0 -43 21.5 -66t55.5 -23z" />
    <glyph glyph-name="ae" unicode="&#xe6;" horiz-adv-x="780" 
 />
    <glyph glyph-name="ccedilla" unicode="&#xe7;" horiz-adv-x="491" 
d="M462 95q-62 -98 -171 -104v-30q43 0 66.5 -20t23.5 -56q0 -35 -23.5 -55.5t-62.5 -20.5h-66v44h50q40 0 40 32q0 33 -40 33h-45v74q-94 12 -144 79t-50 164q0 106 60 175.5t171 69.5q116 0 151 -35q17 -17 21 -43.5t4 -92.5h-26q-4 63 -39 95.5t-93 32.5
q-62 0 -96.5 -53.5t-34.5 -148.5q0 -96 33.5 -149t99.5 -53q49 0 82 20.5t62 61.5z" />
    <glyph glyph-name="egrave" unicode="&#xe8;" horiz-adv-x="500" 
d="M233 525l-101 136h109l41 -136h-49zM262 -10q-103 0 -162.5 69t-59.5 176q0 111 59 178t153 67q97 0 154.5 -56t57.5 -152l-3 -54h-302q0 -90 32 -137.5t88 -47.5q47 0 80 21t62 61l26 -20q-63 -105 -185 -105zM159 261h186q0 176 -93 176q-41 0 -67 -44.5t-26 -131.5z
" />
    <glyph glyph-name="eacute" unicode="&#xe9;" horiz-adv-x="500" 
d="M219 524l41 136h109l-101 -136h-49zM262 -10q-103 0 -162.5 69t-59.5 176q0 111 59 178t153 67q97 0 154.5 -56t57.5 -152l-3 -54h-302q0 -90 32 -137.5t88 -47.5q47 0 80 21t62 61l26 -20q-63 -105 -185 -105zM159 261h186q0 176 -93 176q-41 0 -67 -44.5t-26 -131.5z
" />
    <glyph glyph-name="ecircumflex" unicode="&#xea;" horiz-adv-x="500" 
d="M113 530l80 121h122l80 -121h-56l-85 80l-85 -80h-56zM262 -10q-103 0 -162.5 69t-59.5 176q0 111 59 178t153 67q97 0 154.5 -56t57.5 -152l-3 -54h-302q0 -90 32 -137.5t88 -47.5q47 0 80 21t62 61l26 -20q-63 -105 -185 -105zM159 261h186q0 176 -93 176
q-41 0 -67 -44.5t-26 -131.5z" />
    <glyph glyph-name="edieresis" unicode="&#xeb;" horiz-adv-x="500" 
d="M159 539q-23 0 -37 14.5t-14 36.5t14 37t37 15t37.5 -15t14.5 -37q0 -21 -14.5 -36t-37.5 -15zM335 539q-23 0 -37 14.5t-14 36.5t14 37t37 15t37.5 -15t14.5 -37q0 -21 -14.5 -36t-37.5 -15zM262 -10q-103 0 -162.5 69t-59.5 176q0 111 59 178t153 67q97 0 154.5 -56
t57.5 -152l-3 -54h-302q0 -90 32 -137.5t88 -47.5q47 0 80 21t62 61l26 -20q-63 -105 -185 -105zM159 261h186q0 176 -93 176q-41 0 -67 -44.5t-26 -131.5z" />
    <glyph glyph-name="igrave" unicode="&#xec;" horiz-adv-x="258" 
d="M116 525l-101 136h109l41 -136h-49zM82 0v344q0 51 -14 75.5t-56 24.5h-14v26h108q53 0 71.5 -25.5t18.5 -100.5v-344h-114z" />
    <glyph glyph-name="iacute" unicode="&#xed;" horiz-adv-x="258" 
d="M97 525l41 136h109l-101 -136h-49zM82 0v344q0 51 -14 75.5t-56 24.5h-14v26h108q53 0 71.5 -25.5t18.5 -100.5v-344h-114z" />
    <glyph glyph-name="icircumflex" unicode="&#xee;" horiz-adv-x="258" 
d="M-11 531l80 121h122l80 -121h-56l-85 80l-85 -80h-56zM82 0v344q0 51 -14 75.5t-56 24.5h-14v26h108q53 0 71.5 -25.5t18.5 -100.5v-344h-114z" />
    <glyph glyph-name="idieresis" unicode="&#xef;" horiz-adv-x="258" 
d="M53 536q-31 0 -49 21t-18 51q0 23 14.5 37t36.5 14q31 0 49 -20.5t18 -50.5q0 -24 -14 -38t-37 -14zM225 536q-30 0 -48.5 21t-18.5 51q0 24 14.5 37.5t37.5 13.5q30 0 48.5 -20.5t18.5 -50.5q0 -24 -14.5 -38t-37.5 -14zM82 0v344q0 51 -14 75.5t-56 24.5h-14v26h108
q53 0 71.5 -25.5t18.5 -100.5v-344h-114z" />
    <glyph glyph-name="eth" unicode="&#xf0;" horiz-adv-x="549" 
d="M271 -10q-110 0 -171 69.5t-61 175.5q0 105 60.5 175t165.5 70q46 0 81.5 -21t54.5 -59q-23 105 -68 157l-44 -44l-36 36l45 44q-37 36 -107 36q-25 0 -49 -8l-12 27q32 22 89 22q69 0 123 -38l40 44l36 -35l-40 -39q125 -117 125 -332q0 -130 -60 -205t-172 -75zM271 33
q49 0 81 54.5t32 147.5q0 83 -30 142.5t-83 59.5t-83 -59.5t-30 -142.5q0 -93 32 -147.5t81 -54.5z" />
    <glyph glyph-name="ntilde" unicode="&#xf1;" horiz-adv-x="562" 
d="M174 544q0 54 16.5 76t48.5 22q23 0 53 -20t44 -20t23.5 12.5t9.5 27.5h36q0 -54 -16 -76t-48 -22q-23 0 -53 20t-45 20q-14 0 -23.5 -12.5t-9.5 -27.5h-36zM83 0v344q0 51 -14 75.5t-56 24.5h-14v26h96q65 0 84 -38q55 48 142 48q181 0 181 -182v-298h-113v298
q0 69 -28 101.5t-73 32.5q-52 0 -92 -36v-396h-113z" />
    <glyph glyph-name="ograve" unicode="&#xf2;" horiz-adv-x="543" 
d="M257 525l-101 136h109l41 -136h-49zM271 -10q-106 0 -168.5 70t-62.5 175t62.5 175t168.5 70q107 0 169.5 -70t62.5 -175t-62.5 -175t-169.5 -70zM271 33q53 0 83.5 56.5t30.5 145.5t-30.5 145.5t-83.5 56.5t-83 -56.5t-30 -145.5t30 -145.5t83 -56.5z" />
    <glyph glyph-name="oacute" unicode="&#xf3;" horiz-adv-x="543" 
d="M233 524l41 136h109l-101 -136h-49zM271 -10q-106 0 -168.5 70t-62.5 175t62.5 175t168.5 70q107 0 169.5 -70t62.5 -175t-62.5 -175t-169.5 -70zM271 33q53 0 83.5 56.5t30.5 145.5t-30.5 145.5t-83.5 56.5t-83 -56.5t-30 -145.5t30 -145.5t83 -56.5z" />
    <glyph glyph-name="ocircumflex" unicode="&#xf4;" horiz-adv-x="543" 
d="M131 524l80 121h122l80 -121h-56l-85 80l-85 -80h-56zM271 -10q-106 0 -168.5 70t-62.5 175t62.5 175t168.5 70q107 0 169.5 -70t62.5 -175t-62.5 -175t-169.5 -70zM271 33q53 0 83.5 56.5t30.5 145.5t-30.5 145.5t-83.5 56.5t-83 -56.5t-30 -145.5t30 -145.5t83 -56.5z
" />
    <glyph glyph-name="otilde" unicode="&#xf5;" horiz-adv-x="543" 
d="M156 535q0 54 16.5 76t48.5 22q23 0 53 -20t44 -20t23.5 12.5t9.5 27.5h36q0 -54 -16 -76t-48 -22q-23 0 -53 20t-45 20q-14 0 -23.5 -12.5t-9.5 -27.5h-36zM271 -10q-106 0 -168.5 70t-62.5 175t62.5 175t168.5 70q107 0 169.5 -70t62.5 -175t-62.5 -175t-169.5 -70z
M271 33q53 0 83.5 56.5t30.5 145.5t-30.5 145.5t-83.5 56.5t-83 -56.5t-30 -145.5t30 -145.5t83 -56.5z" />
    <glyph glyph-name="odieresis" unicode="&#xf6;" horiz-adv-x="543" 
d="M183 535q-23 0 -37 14.5t-14 36.5t14 37t37 15t37.5 -15t14.5 -37q0 -21 -14.5 -36t-37.5 -15zM359 535q-23 0 -37 14.5t-14 36.5t14 37t37 15t37.5 -15t14.5 -37q0 -21 -14.5 -36t-37.5 -15zM271 -10q-106 0 -168.5 70t-62.5 175t62.5 175t168.5 70q107 0 169.5 -70
t62.5 -175t-62.5 -175t-169.5 -70zM271 33q53 0 83.5 56.5t30.5 145.5t-30.5 145.5t-83.5 56.5t-83 -56.5t-30 -145.5t30 -145.5t83 -56.5z" />
    <glyph glyph-name="divide" unicode="&#xf7;" horiz-adv-x="555" 
d="M277 425q-23 0 -37 14.5t-14 36.5t14 37t37 15t37.5 -15t14.5 -37q0 -21 -14.5 -36t-37.5 -15zM51 298v63h452v-63h-452zM277 132q-23 0 -37 15t-14 37t14 36.5t37 14.5t37.5 -15t14.5 -36q0 -22 -14.5 -37t-37.5 -15z" />
    <glyph glyph-name="oslash" unicode="&#xf8;" horiz-adv-x="543" 
d="M271 -10q-64 0 -115 28l-12 -18h-84l42 59q-62 70 -62 176q0 105 62.5 175t168.5 70q65 0 115 -28l13 18h84l-43 -60q63 -68 63 -175q0 -105 -62.5 -175t-169.5 -70zM168 149l177 246q-30 42 -74 42q-53 0 -83 -56.5t-30 -145.5q0 -47 10 -86zM271 33q53 0 83.5 56.5
t30.5 145.5q0 42 -10 85l-177 -245q28 -42 73 -42z" />
    <glyph glyph-name="ugrave" unicode="&#xf9;" horiz-adv-x="553" 
d="M258 499l-101 136h109l41 -136h-49zM250 -10q-86 0 -132.5 42.5t-46.5 139.5v172q0 51 -14 75.5t-56 24.5h-10v26h104q53 0 71.5 -25.5t18.5 -100.5v-172q0 -137 95 -137q52 0 94 60v375h114v-470h-71l-35 43h-5q-49 -53 -127 -53z" />
    <glyph glyph-name="uacute" unicode="&#xfa;" horiz-adv-x="553" 
d="M241 500l41 136h109l-101 -136h-49zM250 -10q-86 0 -132.5 42.5t-46.5 139.5v172q0 51 -14 75.5t-56 24.5h-10v26h104q53 0 71.5 -25.5t18.5 -100.5v-172q0 -137 95 -137q52 0 94 60v375h114v-470h-71l-35 43h-5q-49 -53 -127 -53z" />
    <glyph glyph-name="ucircumflex" unicode="&#xfb;" horiz-adv-x="553" 
d="M135 530l80 121h122l80 -121h-56l-85 80l-85 -80h-56zM250 -10q-86 0 -132.5 42.5t-46.5 139.5v172q0 51 -14 75.5t-56 24.5h-10v26h104q53 0 71.5 -25.5t18.5 -100.5v-172q0 -137 95 -137q52 0 94 60v375h114v-470h-71l-35 43h-5q-49 -53 -127 -53z" />
    <glyph glyph-name="udieresis" unicode="&#xfc;" horiz-adv-x="553" 
d="M180 516q-23 0 -37 14.5t-14 36.5t14 37t37 15t37.5 -15t14.5 -37q0 -21 -14.5 -36t-37.5 -15zM356 516q-23 0 -37 14.5t-14 36.5t14 37t37 15t37.5 -15t14.5 -37q0 -21 -14.5 -36t-37.5 -15zM250 -10q-86 0 -132.5 42.5t-46.5 139.5v172q0 51 -14 75.5t-56 24.5h-10v26
h104q53 0 71.5 -25.5t18.5 -100.5v-172q0 -137 95 -137q52 0 94 60v375h114v-470h-71l-35 43h-5q-49 -53 -127 -53z" />
    <glyph glyph-name="yacute" unicode="&#xfd;" horiz-adv-x="511" 
d="M259 500l41 136h109l-101 -136h-49zM97 -200v33q52 0 85.5 21.5t55.5 78.5l20 55l-172 392q-30 72 -100 80v20h87q91 0 126 -80l115 -262l123 332h52l-199 -535q-29 -78 -65 -106.5t-92 -28.5h-36z" />
    <glyph glyph-name="thorn" unicode="&#xfe;" horiz-adv-x="534" 
d="M65 -190v724q0 51 -14 75.5t-56 24.5h-12v26h106q53 0 71.5 -25.5t18.5 -100.5v-97q43 43 122 43q94 0 143 -67.5t49 -177.5q0 -111 -51 -178t-151 -67q-60 0 -112 24v-204h-114zM258 33q58 0 87 54t29 148q0 92 -28 147t-78 55q-53 0 -89 -42v-341q50 -21 79 -21z" />
    <glyph glyph-name="ydieresis" unicode="&#xff;" horiz-adv-x="511" 
d="M199 519q-23 0 -37 14.5t-14 36.5t14 37t37 15t37.5 -15t14.5 -37q0 -21 -14.5 -36t-37.5 -15zM375 519q-23 0 -37 14.5t-14 36.5t14 37t37 15t37.5 -15t14.5 -37q0 -21 -14.5 -36t-37.5 -15zM97 -200v33q52 0 85.5 21.5t55.5 78.5l20 55l-172 392q-30 72 -100 80v20h87
q91 0 126 -80l115 -262l123 332h52l-199 -535q-29 -78 -65 -106.5t-92 -28.5h-36z" />
    <glyph glyph-name="Gbreve" unicode="&#x11e;" horiz-adv-x="728" 
d="M363 730q-95 0 -136 92l25 19q38 -48 111 -48q74 0 112 48l25 -19q-41 -92 -137 -92zM390 -20q-152 0 -251.5 104t-99.5 256q0 146 88.5 243t232.5 97q88 0 150 -22.5t92 -58.5q25 -32 25 -137h-26q-19 90 -70.5 132.5t-140.5 42.5q-114 0 -171 -86t-57 -211
q0 -170 62 -245t166 -75q82 0 144 30v176q0 24 6 42.5t23.5 37.5t56 29.5t96.5 10.5v-23q-38 0 -53.5 -23.5t-15.5 -71.5v-183q-108 -65 -257 -65z" />
    <glyph glyph-name="gbreve" unicode="&#x11f;" horiz-adv-x="510" 
d="M245 531q-95 0 -136 92l25 19q38 -48 111 -48q74 0 112 48l25 -19q-41 -92 -137 -92zM254 -200q-235 0 -235 155q0 48 36 81.5t89 48.5q-43 17 -43 57q0 33 38 52q-39 16 -64.5 51.5t-25.5 80.5q0 154 205 154h199v-26l-79 -11q37 -17 60.5 -49t23.5 -68
q0 -152 -204 -152q-102 0 -102 -32q0 -30 102 -30q103 -2 168.5 -41.5t65.5 -115.5q0 -155 -234 -155zM254 212q88 0 88 114q0 56 -24.5 86t-63.5 30q-41 0 -65 -28.5t-24 -87.5q0 -114 89 -114zM254 -157q55 0 86.5 28t31.5 84q0 95 -110 113l-50 5q-77 -31 -77 -118
q0 -57 31.5 -84.5t87.5 -27.5z" />
    <glyph glyph-name="Idotaccent" unicode="&#x130;" horiz-adv-x="296" 
d="M144 712q-31 0 -49 20.5t-18 50.5q0 24 14 38t37 14q31 0 49 -20.5t18 -50.5q0 -24 -14 -38t-37 -14zM173 0q-53 0 -71.5 25.5t-18.5 100.5v534h114v-534q0 -51 14 -75.5t56 -24.5h14v-26h-108z" />
    <glyph glyph-name="dotlessi" unicode="&#x131;" horiz-adv-x="258" 
d="M82 0v344q0 51 -14 75.5t-56 24.5h-14v26h108q53 0 71.5 -25.5t18.5 -100.5v-344h-114z" />
    <glyph glyph-name="OE" unicode="&#x152;" horiz-adv-x="952" 
d="M362 -20q-144 0 -232.5 99.5t-88.5 250.5t88.5 250.5t232.5 99.5q64 0 113 -20h331q85 0 85 -80v-81h-25q0 118 -125 118h-172v-254h264v-43h-264v-277h173q62 0 100 25t63 87l24 -8l-31 -85q-11 -31 -29.5 -46.5t-53.5 -15.5h-340q-47 -20 -113 -20zM362 23q54 0 94 27
v561q-41 26 -94 26q-94 0 -146 -81t-52 -226t52 -226t146 -81z" />
    <glyph glyph-name="oe" unicode="&#x153;" horiz-adv-x="829" 
 />
    <glyph glyph-name="Scedilla" unicode="&#x15e;" horiz-adv-x="550" 
d="M510 169q0 -82 -56.5 -132t-157.5 -54v-29q43 0 66.5 -20t23.5 -56q0 -35 -23.5 -55.5t-62.5 -20.5h-66v44h50q40 0 40 32q0 33 -40 33h-45v74q-78 7 -133.5 39t-55.5 80v113h24q16 -102 64 -146.5t134 -44.5q57 0 92.5 26t35.5 73q0 41 -25 70t-80 63l-123 73
q-66 39 -94 80t-28 96q0 78 58 124.5t154 46.5q85 0 153.5 -33t68.5 -87v-113h-24q-17 101 -63.5 145.5t-127.5 44.5q-51 0 -84 -27t-33 -72q0 -39 25 -65.5t82 -59.5l123 -73q68 -40 98 -78t30 -91z" />
    <glyph glyph-name="scedilla" unicode="&#x15f;" horiz-adv-x="459" 
d="M422 122q0 -59 -48 -93.5t-126 -38.5v-20q43 0 66.5 -20t23.5 -56q0 -35 -23.5 -55.5t-62.5 -20.5h-66v44h50q40 0 40 32q0 33 -40 33h-45v64q-85 7 -121 40q-11 11 -16.5 30t-6.5 34.5t-1 48.5h29q19 -111 134 -111q104 0 104 69q0 27 -22 46t-68 38l-55 24
q-62 26 -93.5 58.5t-31.5 79.5q0 63 50 97.5t130 34.5q113 0 156 -41q12 -11 17.5 -30t6.5 -34.5t1 -48.5h-29q-19 111 -132 111q-45 0 -68 -19t-23 -50q0 -46 74 -78l60 -25q72 -30 104 -61.5t32 -81.5z" />
    <glyph glyph-name="Scaron" unicode="&#x160;" horiz-adv-x="550" 
d="M201 721l-80 121h62l79 -80l79 80h62l-80 -121h-122zM277 -17q-88 0 -157.5 33.5t-69.5 87.5v113h24q16 -102 64 -146.5t134 -44.5q57 0 92.5 26t35.5 73q0 41 -25 70t-80 63l-123 73q-66 39 -94 80t-28 96q0 78 58 124.5t154 46.5q85 0 153.5 -33t68.5 -87v-113h-24
q-17 101 -63.5 145.5t-127.5 44.5q-51 0 -84 -27t-33 -72q0 -39 25 -65.5t82 -59.5l123 -73q68 -40 98 -78t30 -91q0 -86 -62 -136t-171 -50z" />
    <glyph glyph-name="scaron" unicode="&#x161;" horiz-adv-x="459" 
d="M158 520l-80 121h62l79 -80l79 80h62l-80 -121h-122zM229 -10q-115 0 -159 41q-11 11 -16.5 30t-6.5 34.5t-1 48.5h29q19 -111 134 -111q104 0 104 69q0 27 -22 46t-68 38l-55 24q-62 26 -93.5 58.5t-31.5 79.5q0 63 50 97.5t130 34.5q113 0 156 -41q12 -11 17.5 -30
t6.5 -34.5t1 -48.5h-29q-19 111 -132 111q-45 0 -68 -19t-23 -50q0 -46 74 -78l60 -25q72 -30 104 -61.5t32 -81.5q0 -63 -53.5 -97.5t-139.5 -34.5z" />
    <glyph glyph-name="Ydieresis" unicode="&#x178;" horiz-adv-x="634" 
d="M269 690q-25 0 -39.5 15t-14.5 39t14.5 38.5t39.5 14.5q24 0 38.5 -14.5t14.5 -38.5t-14.5 -39t-38.5 -15zM439 690q-25 0 -39.5 15t-14.5 39t14.5 38.5t39.5 14.5q24 0 38.5 -14.5t14.5 -38.5t-14.5 -39t-38.5 -15zM284 0v268l-175 262q-71 104 -138 110v20h102
q91 0 157 -110l140 -213l200 323h57l-230 -374v-286h-113z" />
    <glyph glyph-name="Zcaron" unicode="&#x17d;" horiz-adv-x="596" 
d="M251 711l-80 121h62l79 -80l79 80h62l-80 -121h-122zM28 0v27l390 591h-227q-119 0 -119 -119h-26v81q0 80 85 80h447l-405 -617h396v-43h-541z" />
    <glyph glyph-name="zcaron" unicode="&#x17e;" horiz-adv-x="482" 
d="M191 520l-80 121h62l79 -80l79 80h62l-80 -121h-122zM41 0v26l262 401h-117q-62 0 -90.5 -23t-28.5 -70h-26v56q0 80 85 80h335l-278 -427h266v-43h-408z" />
    <glyph glyph-name="florin" unicode="&#x192;" horiz-adv-x="228" 
 />
    <glyph glyph-name="circumflex" unicode="&#x2c6;" horiz-adv-x="322" 
d="M20 660l80 121h122l80 -121h-56l-85 80l-85 -80h-56z" />
    <glyph glyph-name="caron" unicode="&#x2c7;" horiz-adv-x="305" 
d="M92 520l-80 121h62l79 -80l79 80h62l-80 -121h-122z" />
    <glyph glyph-name="breve" unicode="&#x2d8;" horiz-adv-x="297" 
d="M148 515q-94 0 -136 88l25 18q40 -46 111 -46q72 0 112 46l25 -18q-42 -88 -137 -88z" />
    <glyph glyph-name="ring" unicode="&#x2da;" horiz-adv-x="205" 
d="M103 524q-39 0 -65 26.5t-26 64.5t26 64.5t65 26.5q38 0 64.5 -26.5t26.5 -64.5t-26.5 -64.5t-64.5 -26.5zM103 565q19 0 32 13.5t13 36.5t-13 36.5t-32 13.5t-32 -13.5t-13 -36.5t13 -36.5t32 -13.5z" />
    <glyph glyph-name="tilde" unicode="&#x2dc;" horiz-adv-x="271" 
d="M20 680q0 54 16.5 76t48.5 22q23 0 53 -20t44 -20t23.5 12.5t9.5 27.5h36q0 -54 -16 -76t-48 -22q-23 0 -53 20t-45 20q-14 0 -23.5 -12.5t-9.5 -27.5h-36z" />
    <glyph glyph-name="uni0401" unicode="&#x401;" horiz-adv-x="596" 
d="M206 730q-25 0 -39.5 15t-14.5 39t14.5 38.5t39.5 14.5q24 0 38.5 -14.5t14.5 -38.5t-14.5 -39t-38.5 -15zM376 730q-25 0 -39.5 15t-14.5 39t14.5 38.5t39.5 14.5q24 0 38.5 -14.5t14.5 -38.5t-14.5 -39t-38.5 -15zM100 0v534q0 51 -14 75.5t-56 24.5h-15v26h435
q85 0 85 -80v-81h-26q0 118 -125 118h-171v-254h264v-43h-264v-277h173q62 0 100 25t63 87l24 -8l-32 -85q-11 -31 -29 -46.5t-53 -15.5h-359z" />
    <glyph glyph-name="uni0402" unicode="&#x402;" horiz-adv-x="632" 
d="M401 -40v23q89 0 89 217q0 182 -122 182q-77 0 -134 -37v-345h-114v617h-124v43h362v-43h-124v-227q62 40 158 40q99 0 155.5 -49.5t56.5 -180.5q0 -129 -48.5 -184.5t-154.5 -55.5z" />
    <glyph glyph-name="uni0403" unicode="&#x403;" horiz-adv-x="541" 
d="M235 702l41 136h109l-101 -136h-49zM100 0v534q0 51 -14 75.5t-56 24.5h-15v26h424q85 0 85 -80v-81h-26q0 118 -125 118h-160v-617h-113z" />
    <glyph glyph-name="uni0404" unicode="&#x404;" horiz-adv-x="673" 
d="M362 -20q-148 0 -235 96t-87 244q0 151 93 255.5t229 104.5q84 0 144 -22.5t90 -58.5q12 -15 18 -43t6.5 -47t0.5 -61h-26q-38 189 -203 189q-98 0 -160 -66.5t-68 -217.5h318v-43h-319q2 -78 25 -140.5t75.5 -104.5t128.5 -42q144 0 223 142l29 -22
q-47 -86 -114.5 -124.5t-167.5 -38.5z" />
    <glyph glyph-name="uni0405" unicode="&#x405;" horiz-adv-x="550" 
d="M277 -17q-88 0 -157.5 33.5t-69.5 87.5v113h24q16 -102 64 -146.5t134 -44.5q57 0 92.5 26t35.5 73q0 41 -25 70t-80 63l-123 73q-66 39 -94 80t-28 96q0 78 58 124.5t154 46.5q85 0 153.5 -33t68.5 -87v-113h-24q-17 101 -63.5 145.5t-127.5 44.5q-51 0 -84 -27t-33 -72
q0 -39 25 -65.5t82 -59.5l123 -73q68 -40 98 -78t30 -91q0 -86 -62 -136t-171 -50z" />
    <glyph glyph-name="uni0406" unicode="&#x406;" horiz-adv-x="296" 
d="M173 0q-53 0 -71.5 25.5t-18.5 100.5v534h114v-534q0 -51 14 -75.5t56 -24.5h14v-26h-108z" />
    <glyph glyph-name="uni0407" unicode="&#x407;" horiz-adv-x="296" 
d="M59 715q-24 0 -38.5 15t-14.5 39t14.5 38.5t38.5 14.5q25 0 39.5 -14.5t14.5 -38.5t-14.5 -39t-39.5 -15zM220 715q-24 0 -38.5 15t-14.5 39t14.5 38.5t38.5 14.5q25 0 39.5 -14.5t14.5 -38.5t-14.5 -39t-39.5 -15zM173 0q-53 0 -71.5 25.5t-18.5 100.5v534h114v-534
q0 -51 14 -75.5t56 -24.5h14v-26h-108z" />
    <glyph glyph-name="uni0408" unicode="&#x408;" horiz-adv-x="271" 
d="M-15 -137v26q48 4 71 49t23 143v579h114v-579q0 -125 -43 -171.5t-165 -46.5z" />
    <glyph glyph-name="uni0409" unicode="&#x409;" horiz-adv-x="978" 
d="M49 -13q-29 0 -56 9v29q36 5 62 26.5t50 74t36.5 155t12.5 253.5q0 51 -14 75.5t-56 24.5h-10v26h509v-274h98q53 0 98 -8.5t87.5 -28.5t67 -60t24.5 -96t-24.5 -96t-67 -60t-87.5 -28.5t-98 -8.5h-212v617h-220v-83q0 -159 -15 -269t-43.5 -169t-62.5 -84t-79 -25z
M666 38q168 0 168 155t-168 155q-43 0 -83 -12v-286q36 -12 83 -12z" />
    <glyph glyph-name="uni040A" unicode="&#x40a;" horiz-adv-x="992" 
d="M100 0v534q0 51 -14 75.5t-56 24.5h-15v26h108q53 0 71.5 -25.5t18.5 -100.5v-171h267v297h114v-294h97q43 0 81 -5t76 -17.5t65 -32.5t44 -53t17 -75t-17 -75t-44 -53t-65 -32.5t-76 -17.5t-81 -5h-211v320h-267v-320h-113zM676 38q174 0 174 145t-174 145
q-51 0 -83 -12v-266q36 -12 83 -12z" />
    <glyph glyph-name="uni040B" unicode="&#x40b;" horiz-adv-x="643" 
d="M120 0v617h-124v43h362v-43h-124v-227q62 40 158 40q212 0 212 -180v-250h-114v250q0 132 -122 132q-77 0 -134 -37v-345h-114z" />
    <glyph glyph-name="uni040C" unicode="&#x40c;" horiz-adv-x="686" 
d="M290 675l41 136h109l-101 -136h-49zM627 -10q-56 0 -111 25.5t-121 94.5l-181 189v-299h-114v534q0 51 -14 75.5t-56 24.5h-15v26h108q53 0 72 -26t19 -100v-192l188 213q43 51 82 78t92 27h62v-31q-54 0 -93.5 -15.5t-74.5 -54.5l-167 -189l230 -240q40 -43 85.5 -73.5
t78.5 -34.5v-22q-30 -10 -70 -10z" />
    <glyph glyph-name="uni040E" unicode="&#x40e;" horiz-adv-x="613" 
d="M346 697q-95 0 -136 92l25 19q38 -48 111 -48q74 0 112 48l25 -19q-41 -92 -137 -92zM138 -10v34q119 0 149 71l9 19l-197 416q-23 51 -52 79t-77 31v20h108q96 0 146 -110l137 -289l178 399h63l-252 -565q-45 -105 -162 -105h-50z" />
    <glyph glyph-name="uni040F" unicode="&#x40f;" horiz-adv-x="682" 
d="M320 -175l-15 175h-205v534q0 51 -14 75.5t-56 24.5h-15v26h108q53 0 71.5 -25.5t18.5 -100.5v-491h277v617h113v-660h-206l-15 -175h-62z" />
    <glyph glyph-name="uni0410" unicode="&#x410;" horiz-adv-x="642" 
d="M626 -4q-134 0 -186 130l-24 59h-272l-81 -185h-49l289 660h38l223 -534q21 -50 45.5 -74t60.5 -28v-23q-18 -5 -44 -5zM163 228h233l-114 273z" />
    <glyph glyph-name="uni0411" unicode="&#x411;" horiz-adv-x="624" 
d="M100 0v534q0 51 -14 75.5t-56 24.5h-15v26h432q85 0 85 -80v-81h-26q0 118 -125 118h-168v-237h98q283 0 283 -190t-283 -190h-211zM296 38q88 0 131 37t43 115t-43 115t-131 37q-36 0 -83 -12v-280q42 -12 83 -12z" />
    <glyph glyph-name="uni0412" unicode="&#x412;" horiz-adv-x="635" 
d="M100 0v534q0 51 -14 75.5t-56 24.5h-15v26h266q285 0 285 -175q0 -46 -34.5 -85.5t-100.5 -58.5q91 -12 129 -53.5t38 -105.5q0 -182 -287 -182h-211zM213 359h83q65 0 107 32.5t42 98.5q0 68 -49.5 100t-116.5 32q-26 0 -66 -8v-255zM296 38q86 0 132.5 36t46.5 103
q0 139 -179 139h-83v-266q42 -12 83 -12z" />
    <glyph glyph-name="uni0413" unicode="&#x413;" horiz-adv-x="541" 
d="M100 0v534q0 51 -14 75.5t-56 24.5h-15v26h424q85 0 85 -80v-81h-26q0 118 -125 118h-160v-617h-113z" />
    <glyph glyph-name="uni0414" unicode="&#x414;" horiz-adv-x="691" 
d="M1 -182v190q0 15 10 25t25 10h37q85 184 85 491q0 51 -14 75.5t-56 24.5h-12v26h517v-617h43q15 0 25 -10t10 -25v-190h-48q-12 102 -40.5 142t-84.5 40h-324q-56 0 -84.5 -40t-40.5 -142h-48zM163 43h316v574h-236q0 -207 -18 -340t-62 -234z" />
    <glyph glyph-name="uni0415" unicode="&#x415;" horiz-adv-x="596" 
d="M100 0v534q0 51 -14 75.5t-56 24.5h-15v26h435q85 0 85 -80v-81h-26q0 118 -125 118h-171v-254h264v-43h-264v-277h173q62 0 100 25t63 87l24 -8l-32 -85q-11 -31 -29 -46.5t-53 -15.5h-359z" />
    <glyph glyph-name="uni0416" unicode="&#x416;" horiz-adv-x="973" 
d="M55 -10q-35 0 -65 10v22q33 5 76 34.5t79 73.5l196 240l-146 189q-33 40 -68 55t-89 15v31h56q52 0 91.5 -27.5t78.5 -77.5l166 -213v318h113v-318l166 213q81 105 170 105h56v-31q-54 0 -89.5 -15t-68.5 -55l-145 -189l196 -240q36 -44 79 -73.5t75 -34.5v-22
q-30 -10 -64 -10q-61 0 -116 26.5t-112 99.5l-147 187v-303h-113v303l-147 -187q-58 -73 -113 -99.5t-115 -26.5z" />
    <glyph glyph-name="uni0417" unicode="&#x417;" horiz-adv-x="576" 
d="M276 -20q-85 0 -146.5 31t-105.5 100l25 21q82 -109 206 -109q72 0 117.5 37.5t45.5 104.5q0 72 -46.5 111t-132.5 39h-80v43h80q64 0 111.5 37.5t47.5 104.5t-42 102t-96 35q-69 0 -117 -43.5t-67 -119.5h-27q0 38 1 56.5t6.5 41.5t17.5 38q25 31 80.5 50.5t110.5 19.5
q251 0 251 -179q0 -51 -38.5 -95t-109.5 -63q90 -13 131.5 -60.5t41.5 -112.5q0 -53 -24.5 -92t-65 -59.5t-84.5 -29.5t-91 -9z" />
    <glyph glyph-name="uni0418" unicode="&#x418;" horiz-adv-x="702" 
d="M100 0v534q0 51 -14 75.5t-56 24.5h-15v26h108q53 0 71.5 -25.5t18.5 -100.5v-420l302 546h108v-660h-113v546l-303 -546h-107z" />
    <glyph glyph-name="uni0419" unicode="&#x419;" horiz-adv-x="702" 
d="M363 704q-95 0 -136 92l25 19q38 -48 111 -48q74 0 112 48l25 -19q-41 -92 -137 -92zM100 0v534q0 51 -14 75.5t-56 24.5h-15v26h108q53 0 71.5 -25.5t18.5 -100.5v-420l302 546h108v-660h-113v546l-303 -546h-107z" />
    <glyph glyph-name="uni041A" unicode="&#x41a;" horiz-adv-x="686" 
d="M627 -10q-56 0 -111 25.5t-121 94.5l-181 189v-299h-114v534q0 51 -14 75.5t-56 24.5h-15v26h108q53 0 72 -26t19 -100v-192l188 213q43 51 82 78t92 27h62v-31q-54 0 -93.5 -15.5t-74.5 -54.5l-167 -189l230 -240q40 -43 85.5 -73.5t78.5 -34.5v-22q-30 -10 -70 -10z
" />
    <glyph glyph-name="uni041B" unicode="&#x41b;" horiz-adv-x="671" 
d="M49 -13q-29 0 -56 9v29q36 5 62 26.5t50 74t36.5 155t12.5 253.5q0 51 -14 75.5t-56 24.5h-10v26h518v-660h-113v617h-230v-83q0 -159 -15 -269t-43.5 -169t-62.5 -84t-79 -25z" />
    <glyph glyph-name="uni041C" unicode="&#x41c;" horiz-adv-x="862" 
d="M845 -45q-107 0 -151.5 50t-44.5 165v367l-232 -537h-27l-265 553v-553h-46v660h111l241 -503l217 503h115v-490q0 -93 19 -140.5t63 -51.5v-23z" />
    <glyph glyph-name="uni041D" unicode="&#x41d;" horiz-adv-x="709" 
d="M100 0v534q0 51 -14 75.5t-56 24.5h-15v26h108q53 0 71.5 -25.5t18.5 -100.5v-171h282v297h114v-534q0 -51 14 -75.5t56 -24.5h14v-26h-108q-53 0 -71.5 25.5t-18.5 100.5v194h-282v-320h-113z" />
    <glyph glyph-name="uni041E" unicode="&#x41e;" horiz-adv-x="724" 
d="M362 -20q-144 0 -232.5 99.5t-88.5 250.5t88.5 250.5t232.5 99.5t233 -99.5t89 -250.5t-89 -250.5t-233 -99.5zM362 23q94 0 146.5 81t52.5 226t-52.5 226t-146.5 81t-146 -81t-52 -226t52 -226t146 -81z" />
    <glyph glyph-name="uni041F" unicode="&#x41f;" horiz-adv-x="682" 
d="M100 0v534q0 51 -14 75.5t-56 24.5h-15v26h588v-660h-113v617h-277v-617h-113z" />
    <glyph glyph-name="uni0420" unicode="&#x420;" horiz-adv-x="567" 
d="M100 0v534q0 51 -14 75.5t-56 24.5h-15v26h269q32 0 61.5 -3t68 -15.5t66 -33t47 -59t19.5 -90.5q0 -49 -19 -86t-45.5 -56t-61.5 -31t-59.5 -15t-46.5 -3h-101v-268h-113zM213 306h66q57 0 100 37.5t43 120.5t-42.5 120.5t-97.5 37.5q-26 0 -69 -8v-308z" />
    <glyph glyph-name="uni0421" unicode="&#x421;" horiz-adv-x="673" 
d="M362 -20q-148 0 -235 96t-87 244q0 151 93 255.5t229 104.5q84 0 144 -22.5t90 -58.5q12 -15 18 -43t6.5 -47t0.5 -61h-26q-38 189 -203 189q-229 0 -229 -317q0 -80 22 -144.5t75.5 -108.5t131.5 -44q144 0 223 142l29 -22q-47 -86 -114.5 -124.5t-167.5 -38.5z" />
    <glyph glyph-name="uni0422" unicode="&#x422;" horiz-adv-x="578" 
d="M242 0v617h-79q-119 0 -119 -118h-26v81q0 80 85 80h468v-43h-216v-617h-113z" />
    <glyph glyph-name="uni0423" unicode="&#x423;" horiz-adv-x="613" 
d="M138 -10v34q119 0 149 71l9 19l-197 416q-23 51 -52 79t-77 31v20h108q96 0 146 -110l137 -289l178 399h63l-252 -565q-45 -105 -162 -105h-50z" />
    <glyph glyph-name="uni0424" unicode="&#x424;" horiz-adv-x="804" 
d="M346 -36v71q-154 0 -235 74.5t-81 205.5t81 205.5t235 74.5q0 36 -15.5 55.5t-54.5 19.5h-15v26h108q52 0 71 -21.5t19 -79.5q154 0 235 -74.5t81 -205.5t-81 -205.5t-235 -74.5v-71h-113zM346 78v474q-98 0 -145.5 -66t-47.5 -171t47.5 -171t145.5 -66zM459 78
q97 0 144.5 66t47.5 171t-47.5 171t-144.5 66v-474z" />
    <glyph glyph-name="uni0425" unicode="&#x425;" horiz-adv-x="655" 
d="M27 0l247 317l-141 213q-67 104 -144 110v20h114q82 0 153 -110l93 -141l196 251h58l-227 -291l158 -239q69 -103 139 -110v-20h-108q-85 0 -154 110l-109 166l-216 -276h-59z" />
    <glyph glyph-name="uni0426" unicode="&#x426;" horiz-adv-x="701" 
d="M633 -183q-12 103 -40.5 143t-84.5 40h-408v534q0 51 -14 75.5t-56 24.5h-15v26h108q53 0 71.5 -25.5t18.5 -100.5v-491h277v617h113v-617h43q15 0 25 -10t10 -25v-191h-48z" />
    <glyph glyph-name="uni0427" unicode="&#x427;" horiz-adv-x="654" 
d="M461 0v264q-46 -20 -131 -20q-121 0 -185 49.5t-64 166.5v74q0 51 -14 75.5t-56 24.5h-10v26h108q53 0 71.5 -25.5t18.5 -100.5v-84q0 -163 144 -163q67 0 118 20v353h114v-660h-114z" />
    <glyph glyph-name="uni0428" unicode="&#x428;" horiz-adv-x="942" 
d="M100 0v534q0 51 -14 75.5t-56 24.5h-15v26h108q53 0 71.5 -25.5t18.5 -100.5v-491h212v617h113v-617h212v617h113v-660h-763z" />
    <glyph glyph-name="uni0429" unicode="&#x429;" horiz-adv-x="961" 
d="M893 -183q-12 103 -40.5 143t-84.5 40h-668v534q0 51 -14 75.5t-56 24.5h-15v26h108q53 0 71.5 -25.5t18.5 -100.5v-491h212v617h113v-617h212v617h113v-617h43q15 0 25 -10t10 -25v-191h-48z" />
    <glyph glyph-name="uni042A" unicode="&#x42a;" horiz-adv-x="715" 
d="M200 0v617h-19q-61 0 -88 -34.5t-31 -118.5h-36v161q0 15 10 25t25 10h252v-274h99q55 0 101 -8.5t89 -28.5t67.5 -60t24.5 -96t-24.5 -96t-67.5 -60t-89 -28.5t-101 -8.5h-212zM397 38q174 0 174 155t-174 155q-37 0 -84 -12v-286q42 -12 84 -12z" />
    <glyph glyph-name="uni042B" unicode="&#x42b;" horiz-adv-x="869" 
d="M100 0v534q0 51 -14 75.5t-56 24.5h-15v26h108q53 0 71.5 -25.5t18.5 -100.5v-148h92q52 0 97 -8.5t88 -28.5t67.5 -60t24.5 -96t-24.5 -96t-67.5 -60t-88 -28.5t-97 -8.5h-205zM745 0q-53 0 -71.5 25.5t-18.5 100.5v534h114v-534q0 -51 14 -75.5t56 -24.5h14v-26h-108z
M290 38q168 0 168 155t-168 155q-34 0 -77 -12v-286q34 -12 77 -12z" />
    <glyph glyph-name="uni042C" unicode="&#x42c;" horiz-adv-x="614" 
d="M100 0v534q0 51 -14 75.5t-56 24.5h-15v26h108q53 0 71.5 -25.5t18.5 -100.5v-148h98q55 0 101 -8.5t89.5 -28.5t68 -59.5t24.5 -96.5t-24.5 -96.5t-68 -59.5t-89.5 -28.5t-101 -8.5h-211zM296 38q174 0 174 155t-174 155q-36 0 -83 -12v-286q42 -12 83 -12z" />
    <glyph glyph-name="uni042D" unicode="&#x42d;" horiz-adv-x="674" 
d="M312 -20q-100 0 -168 38t-115 125l29 22q79 -142 224 -142q111 0 168 82.5t60 204.5h-319v43h318q-6 151 -67.5 217.5t-159.5 66.5q-166 0 -204 -189h-26q0 42 0.5 61t6.5 47t19 43q29 36 89.5 58.5t144.5 22.5q136 0 229 -104.5t93 -255.5q0 -147 -87 -243.5t-235 -96.5
z" />
    <glyph glyph-name="uni042E" unicode="&#x42e;" horiz-adv-x="899" 
d="M566 -20q-122 0 -205.5 95t-86.5 245h-61v-320h-113v534q0 51 -14 75.5t-56 24.5h-15v26h108q53 0 71.5 -25.5t18.5 -100.5v-171h62q11 143 92 230t199 87q125 0 208 -97.5t83 -252.5t-83 -252.5t-208 -97.5zM566 23q74 0 121.5 80.5t47.5 226.5t-47.5 226.5t-121.5 80.5
t-121 -80t-47 -227t47 -227t121 -80z" />
    <glyph glyph-name="uni042F" unicode="&#x42f;" horiz-adv-x="619" 
d="M76 -14q-36 0 -65 11v22q61 9 118 98l99 163q-63 14 -109 59t-46 122q0 60 26 102t69.5 61.5t83.5 27.5t83 8h266v-26h-10q-42 0 -56 -24.5t-14 -75.5v-534h-115v271h-65l-97 -162q-41 -68 -80.5 -95.5t-87.5 -27.5zM340 309q38 0 66 4v301q-45 8 -69 8
q-51 0 -95.5 -40.5t-44.5 -115.5q0 -77 45 -117t98 -40z" />
    <glyph glyph-name="uni0430" unicode="&#x430;" horiz-adv-x="490" 
d="M193 -10q-70 0 -115 35.5t-45 101.5q0 76 63.5 111t200.5 35h21q0 91 -25 127.5t-74 36.5q-41 0 -67 -19t-37 -69h-51q0 69 25 96q32 35 150 35q193 0 193 -210v-270h-71l-35 45h-5q-39 -55 -128 -55zM229 38q56 0 89 63v129h-21q-145 0 -145 -103q0 -43 21.5 -66
t55.5 -23z" />
    <glyph glyph-name="uni0431" unicode="&#x431;" horiz-adv-x="538" 
d="M273 -10q-102 0 -162 63t-60 183v34q0 122 20 194t53 101.5t90 42.5l144 33q42 10 63 20.5t24 27.5h26v-74q0 -45 -48 -57l-169 -38q-67 -16 -104 -65t-42 -149h5q21 67 64.5 100.5t115.5 33.5q89 0 145.5 -57t56.5 -168q0 -112 -59.5 -168.5t-162.5 -56.5zM273 33
q43 0 73 41.5t30 140.5q0 96 -30.5 139t-72.5 43t-72.5 -43t-30.5 -139q0 -99 30 -140.5t73 -41.5z" />
    <glyph glyph-name="uni0432" unicode="&#x432;" horiz-adv-x="515" 
d="M77 0v344q0 51 -14 75.5t-56 24.5h-7v26h259q89 0 143 -29.5t54 -90.5q0 -85 -116 -105q63 -10 99.5 -39.5t36.5 -75.5q0 -130 -217 -130h-182zM191 268h43q46 0 74.5 21.5t28.5 60.5q0 40 -27 61t-66 21q-29 0 -53 -8v-156zM244 38q53 0 83 23.5t30 68.5q0 95 -123 95
h-43v-179q24 -8 53 -8z" />
    <glyph glyph-name="uni0433" unicode="&#x433;" horiz-adv-x="438" 
d="M77 0v344q0 51 -14 75.5t-56 24.5h-7v26h339q75 0 75 -80v-66h-26q0 103 -99 103h-98v-427h-114z" />
    <glyph glyph-name="uni0434" unicode="&#x434;" horiz-adv-x="578" 
d="M12 -158v166q0 15 10 25t25 10h33q60 133 60 307q0 47 -14.5 70.5t-58.5 23.5v26h427v-427h34q15 0 25 -10t10 -25v-166h-46q-8 89 -33.5 123.5t-75.5 34.5h-241q-51 0 -76 -34.5t-33 -123.5h-46zM170 43h210v384h-155q0 -247 -55 -384z" />
    <glyph glyph-name="uni0435" unicode="&#x435;" horiz-adv-x="500" 
d="M262 -10q-103 0 -162.5 69t-59.5 176q0 111 59 178t153 67q97 0 154.5 -56t57.5 -152l-3 -54h-302q0 -90 32 -137.5t88 -47.5q47 0 80 21t62 61l26 -20q-63 -105 -185 -105zM159 261h186q0 176 -93 176q-41 0 -67 -44.5t-26 -131.5z" />
    <glyph glyph-name="uni0436" unicode="&#x436;" horiz-adv-x="718" 
d="M65 -10q-39 0 -61 10v22q54 11 102 78l116 163l-91 133q-32 48 -98 48v26h22q49 0 80.5 -17.5t58.5 -54.5l108 -159v231h114v-231l108 159q27 37 58.5 54.5t80.5 17.5h22v-26q-66 0 -98 -48l-91 -133l116 -163q48 -67 102 -78v-22q-22 -10 -61 -10q-83 0 -143 86l-94 132
v-208h-114v208l-94 -132q-60 -86 -143 -86z" />
    <glyph glyph-name="uni0437" unicode="&#x437;" horiz-adv-x="458" 
d="M213 -10q-119 0 -181 80l26 21q51 -58 129 -58q114 0 114 92q0 48 -30.5 71.5t-98.5 23.5h-47v43h47q60 0 87 21t27 66q0 43 -27 65t-67 22q-49 0 -82.5 -30t-36.5 -78h-26q0 35 1 51t6.5 34.5t17.5 30.5q35 35 140 35q87 0 139.5 -32t52.5 -98q0 -44 -30 -72t-82 -38
q60 -10 93.5 -40t33.5 -75q0 -135 -206 -135z" />
    <glyph glyph-name="uni0438" unicode="&#x438;" horiz-adv-x="560" 
d="M82 0v344q0 51 -14 75.5t-56 24.5h-12v26h105q53 0 71.5 -25.5t18.5 -100.5v-233l193 359h107v-470h-113v359l-192 -359h-108z" />
    <glyph glyph-name="uni0439" unicode="&#x439;" horiz-adv-x="560" 
d="M283 515q-94 0 -136 88l25 18q40 -46 111 -46q72 0 112 46l25 -18q-42 -88 -137 -88zM82 0v344q0 51 -14 75.5t-56 24.5h-12v26h105q53 0 71.5 -25.5t18.5 -100.5v-233l193 359h107v-470h-113v359l-192 -359h-108z" />
    <glyph glyph-name="uni043A" unicode="&#x43a;" horiz-adv-x="513" 
d="M448 -10q-86 0 -148 80l-103 134v-204h-114v344q0 51 -14 75.5t-56 24.5h-14v26h108q53 0 71.5 -25.5t18.5 -100.5v-105l122 159q30 37 60.5 54.5t78.5 17.5h22v-26q-59 0 -96 -48l-103 -133l126 -163q52 -68 102 -78v-22q-22 -10 -61 -10z" />
    <glyph glyph-name="uni043B" unicode="&#x43b;" horiz-adv-x="558" 
d="M63 -13q-31 0 -56 9v27q38 4 64 28t45 98.5t19 200.5q0 47 -15 70.5t-58 23.5v26h431v-470h-113v427h-155v-77q0 -363 -162 -363z" />
    <glyph glyph-name="uni043C" unicode="&#x43c;" horiz-adv-x="659" 
d="M651 -23q-100 0 -144 46t-44 139v191l-152 -353h-28l-172 363v-362h-46v469h111l149 -313l138 319h114v-314q0 -155 74 -162v-23z" />
    <glyph glyph-name="uni043D" unicode="&#x43d;" horiz-adv-x="568" 
d="M82 0v344q0 51 -14 75.5t-56 24.5h-12v26h105q53 0 71.5 -25.5t18.5 -100.5v-86h177v212h113v-344q0 -51 14 -75.5t56 -24.5h13v-26h-106q-53 0 -71.5 25.5t-18.5 100.5v89h-177v-215h-113z" />
    <glyph glyph-name="uni043E" unicode="&#x43e;" horiz-adv-x="543" 
d="M271 -10q-106 0 -168.5 70t-62.5 175t62.5 175t168.5 70q107 0 169.5 -70t62.5 -175t-62.5 -175t-169.5 -70zM271 33q53 0 83.5 56.5t30.5 145.5t-30.5 145.5t-83.5 56.5t-83 -56.5t-30 -145.5t30 -145.5t83 -56.5z" />
    <glyph glyph-name="uni043F" unicode="&#x43f;" horiz-adv-x="546" 
d="M77 0v344q0 51 -14 75.5t-56 24.5h-7v26h481v-470h-114v427h-176v-427h-114z" />
    <glyph glyph-name="uni0440" unicode="&#x440;" horiz-adv-x="555" 
d="M83 -190v534q0 51 -14 75.5t-56 24.5h-14v26h96q66 0 84 -43q58 53 138 53q95 0 146 -69t51 -176q0 -108 -52 -176.5t-152 -68.5q-64 0 -114 30v-210h-113zM286 33q110 0 110 202q0 92 -25.5 147t-77.5 55q-58 0 -97 -45v-329q49 -30 90 -30z" />
    <glyph glyph-name="uni0441" unicode="&#x441;" horiz-adv-x="491" 
d="M271 -10q-111 0 -171 69.5t-60 175.5t60 175.5t171 69.5q116 0 151 -35q17 -17 21 -43.5t4 -92.5h-26q-4 63 -39 95.5t-93 32.5q-62 0 -96.5 -53.5t-34.5 -148.5q0 -96 33.5 -149t99.5 -53q49 0 82 20.5t62 61.5l27 -20q-65 -105 -191 -105z" />
    <glyph glyph-name="uni0442" unicode="&#x442;" horiz-adv-x="470" 
d="M188 0v427h-38q-99 0 -99 -103h-26v66q0 80 75 80h358v-43h-156v-427h-114z" />
    <glyph glyph-name="uni0443" unicode="&#x443;" horiz-adv-x="511" 
d="M97 -200v33q52 0 85.5 21.5t55.5 78.5l20 55l-172 392q-30 72 -100 80v20h87q91 0 126 -80l115 -262l123 332h52l-199 -535q-29 -78 -65 -106.5t-92 -28.5h-36z" />
    <glyph glyph-name="uni0444" unicode="&#x444;" horiz-adv-x="687" 
d="M287 -190v180q-117 7 -181.5 73.5t-64.5 171.5t64.5 171.5t181.5 73.5v54q0 51 -14 75.5t-56 24.5h-12v26h105q53 0 71.5 -25.5t18.5 -100.5v-54q117 -7 181.5 -73.5t64.5 -171.5t-64.5 -171.5t-181.5 -73.5v-180h-113zM290 25v420q-60 -9 -95.5 -63t-35.5 -147
t35.5 -147t95.5 -63zM397 25q59 8 94.5 62.5t35.5 147.5t-35.5 147.5t-94.5 62.5v-420z" />
    <glyph glyph-name="uni0445" unicode="&#x445;" horiz-adv-x="493" 
d="M29 0l165 216l-92 154q-42 72 -97 80v20h91q75 0 122 -80l54 -91l130 171h60l-165 -215l93 -155q42 -72 99 -80v-20h-93q-75 0 -122 80l-54 91l-131 -171h-60z" />
    <glyph glyph-name="uni0446" unicode="&#x446;" horiz-adv-x="569" 
d="M512 -158q-8 89 -33.5 123.5t-76.5 34.5h-320v344q0 51 -14 75.5t-56 24.5h-12v26h105q53 0 71.5 -25.5t18.5 -100.5v-301h177v427h113v-427h35q15 0 25 -10t10 -25v-166h-43z" />
    <glyph glyph-name="uni0447" unicode="&#x447;" horiz-adv-x="545" 
d="M367 0v184q-45 -18 -94 -18q-82 0 -134 34.5t-52 113.5v30q0 51 -14 75.5t-56 24.5h-10v26h106q53 0 71.5 -25.5t18.5 -100.5v-34q0 -101 85 -101q45 0 79 17v244h113v-470h-113z" />
    <glyph glyph-name="uni0448" unicode="&#x448;" horiz-adv-x="750" 
d="M82 0v344q0 51 -14 75.5t-56 24.5h-12v26h105q53 0 71.5 -25.5t18.5 -100.5v-301h132v427h113v-427h132v427h113v-470h-603z" />
    <glyph glyph-name="uni0449" unicode="&#x449;" horiz-adv-x="769" 
d="M712 -158q-8 89 -33.5 123.5t-76.5 34.5h-520v344q0 51 -14 75.5t-56 24.5h-12v26h105q53 0 71.5 -25.5t18.5 -100.5v-301h132v427h113v-427h132v427h113v-427h35q15 0 25 -10t10 -25v-166h-43z" />
    <glyph glyph-name="uni044A" unicode="&#x44a;" horiz-adv-x="592" 
d="M175 0v427h-9q-49 0 -73 -33t-28 -100h-34v141q0 15 10 25t25 10h223v-190h75q95 0 150 -34.5t55 -105.5t-55 -105.5t-150 -34.5h-189zM342 38q108 0 108 102t-108 102q-29 0 -53 -8v-188q24 -8 53 -8z" />
    <glyph glyph-name="uni044B" unicode="&#x44b;" horiz-adv-x="718" 
d="M82 0v344q0 51 -14 75.5t-56 24.5h-12v26h105q53 0 71.5 -25.5t18.5 -100.5v-64h70q92 0 146 -34.5t54 -105.5t-54 -105.5t-146 -34.5h-183zM612 0q-53 0 -71.5 25.5t-18.5 100.5v344h113v-344q0 -51 14 -75.5t56 -24.5h12v-26h-105zM249 38q44 0 71 24.5t27 77.5
t-27 77.5t-71 24.5q-30 0 -54 -8v-188q24 -8 54 -8z" />
    <glyph glyph-name="uni044C" unicode="&#x44c;" horiz-adv-x="499" 
d="M82 0v344q0 51 -14 75.5t-56 24.5h-12v26h105q53 0 71.5 -25.5t18.5 -100.5v-64h75q95 0 150 -34.5t55 -105.5t-55 -105.5t-150 -34.5h-188zM249 38q108 0 108 102t-108 102q-30 0 -54 -8v-188q24 -8 54 -8z" />
    <glyph glyph-name="uni044D" unicode="&#x44d;" horiz-adv-x="496" 
d="M225 -10q-126 0 -191 105l27 20q30 -41 62.5 -61.5t81.5 -20.5q61 0 94.5 46t37.5 131h-197v43h197q-4 86 -37.5 135t-91.5 49q-59 0 -94 -32.5t-39 -95.5h-26q0 66 4 92.5t21 43.5q35 35 151 35q111 0 171 -69.5t60 -175.5t-60 -175.5t-171 -69.5z" />
    <glyph glyph-name="uni044E" unicode="&#x44e;" horiz-adv-x="717" 
d="M460 -10q-92 0 -151.5 63t-64.5 162h-49v-215h-113v344q0 51 -14 75.5t-56 24.5h-12v26h105q53 0 71.5 -25.5t18.5 -100.5v-86h49q7 98 65.5 160t150.5 62q98 0 157.5 -69t59.5 -176t-59.5 -176t-157.5 -69zM460 33q47 0 73 54t26 148t-26 148t-73 54q-46 0 -72 -54
t-26 -148t26 -148t72 -54z" />
    <glyph glyph-name="uni044F" unicode="&#x44f;" horiz-adv-x="521" 
d="M77 -13q-31 0 -61 10v24q48 6 89 76l60 104q-51 8 -83 42.5t-32 85.5q0 141 212 141h249v-26h-4q-40 -1 -54 -25.5t-14 -74.5v-344h-114v196h-58l-60 -119q-24 -47 -53 -68.5t-77 -21.5zM272 235q5 0 53 8v181q-48 8 -53 8q-103 0 -103 -97q0 -51 28 -75.5t75 -24.5z" />
    <glyph glyph-name="uni0451" unicode="&#x451;" horiz-adv-x="500" 
d="M163 535q-23 0 -37 14.5t-14 36.5t14 37t37 15t37.5 -15t14.5 -37q0 -21 -14.5 -36t-37.5 -15zM339 535q-23 0 -37 14.5t-14 36.5t14 37t37 15t37.5 -15t14.5 -37q0 -21 -14.5 -36t-37.5 -15zM262 -10q-103 0 -162.5 69t-59.5 176q0 111 59 178t153 67q97 0 154.5 -56
t57.5 -152l-3 -54h-302q0 -90 32 -137.5t88 -47.5q47 0 80 21t62 61l26 -20q-63 -105 -185 -105zM159 261h186q0 176 -93 176q-41 0 -67 -44.5t-26 -131.5z" />
    <glyph glyph-name="uni0452" unicode="&#x452;" horiz-adv-x="539" 
d="M277 -140v23q88 9 88 180v187q0 69 -25.5 100.5t-66.5 31.5q-49 0 -94 -50v-332h-114v497h-70v43h70v60l50 60h64v-120h108v-43h-108v-117q48 50 124 50q176 0 176 -180v-187q0 -106 -47.5 -154.5t-154.5 -48.5z" />
    <glyph glyph-name="uni0453" unicode="&#x453;" horiz-adv-x="438" 
d="M194 510l41 136h109l-101 -136h-49zM77 0v344q0 51 -14 75.5t-56 24.5h-7v26h339q75 0 75 -80v-66h-26q0 103 -99 103h-98v-427h-114z" />
    <glyph glyph-name="uni0454" unicode="&#x454;" horiz-adv-x="496" 
d="M271 -10q-111 0 -171 69.5t-60 175.5t60 175.5t171 69.5q116 0 151 -35q17 -17 21 -43.5t4 -92.5h-26q-4 63 -39 95.5t-93 32.5q-59 0 -92.5 -49t-37.5 -135h197v-43h-197q4 -85 37.5 -131t94.5 -46q49 0 82 20.5t62 61.5l27 -20q-65 -105 -191 -105z" />
    <glyph glyph-name="uni0455" unicode="&#x455;" horiz-adv-x="459" 
d="M229 -10q-115 0 -159 41q-11 11 -16.5 30t-6.5 34.5t-1 48.5h29q19 -111 134 -111q104 0 104 69q0 27 -22 46t-68 38l-55 24q-62 26 -93.5 58.5t-31.5 79.5q0 63 50 97.5t130 34.5q113 0 156 -41q12 -11 17.5 -30t6.5 -34.5t1 -48.5h-29q-19 111 -132 111q-45 0 -68 -19
t-23 -50q0 -46 74 -78l60 -25q72 -30 104 -61.5t32 -81.5q0 -63 -53.5 -97.5t-139.5 -34.5z" />
    <glyph glyph-name="uni0456" unicode="&#x456;" horiz-adv-x="258" 
d="M136 526q-31 0 -49 21t-18 51q0 23 14.5 37t36.5 14q31 0 49.5 -20.5t18.5 -50.5q0 -24 -14.5 -38t-37.5 -14zM82 0v344q0 51 -14 75.5t-56 24.5h-14v26h108q53 0 71.5 -25.5t18.5 -100.5v-344h-114z" />
    <glyph glyph-name="uni0457" unicode="&#x457;" horiz-adv-x="258" 
d="M53 536q-31 0 -49 21t-18 51q0 23 14.5 37t36.5 14q31 0 49 -20.5t18 -50.5q0 -24 -14 -38t-37 -14zM225 536q-30 0 -48.5 21t-18.5 51q0 24 14.5 37.5t37.5 13.5q30 0 48.5 -20.5t18.5 -50.5q0 -24 -14.5 -38t-37.5 -14zM82 0v344q0 51 -14 75.5t-56 24.5h-14v26h108
q53 0 71.5 -25.5t18.5 -100.5v-344h-114z" />
    <glyph glyph-name="uni0458" unicode="&#x458;" horiz-adv-x="258" 
d="M136 526q-31 0 -49 21t-18 51q0 23 14.5 37t36.5 14q31 0 49.5 -20.5t18.5 -50.5q0 -24 -14.5 -38t-37.5 -14zM-9 -190v23q47 5 69 50t22 142v319q0 51 -14 75.5t-56 24.5h-14v26h108q53 0 71.5 -25.5t18.5 -100.5v-319q0 -120 -44 -167.5t-161 -47.5z" />
    <glyph glyph-name="uni0459" unicode="&#x459;" horiz-adv-x="786" 
d="M63 -13q-31 0 -56 9v27q38 4 64 28t45 98.5t19 200.5q0 47 -15 70.5t-58 23.5v26h420v-190h75q95 0 150 -34.5t55 -105.5t-55 -105.5t-150 -34.5h-189v427h-143v-77q0 -363 -162 -363zM535 38q108 0 108 102t-108 102q-29 0 -53 -8v-188q24 -8 53 -8z" />
    <glyph glyph-name="uni045A" unicode="&#x45a;" horiz-adv-x="778" 
d="M82 0v344q0 51 -14 75.5t-56 24.5h-12v26h105q53 0 71.5 -25.5t18.5 -100.5v-78h167v204h113v-204h75q94 0 149.5 -33.5t55.5 -99.5q0 -67 -55 -100t-150 -33h-188v223h-167v-223h-113zM529 38q108 0 108 95t-108 95q-30 0 -54 -8v-174q24 -8 54 -8z" />
    <glyph glyph-name="uni045B" unicode="&#x45b;" horiz-adv-x="539" 
d="M65 0v497h-70v43h70v60l50 60h64v-120h108v-43h-108v-117q48 50 124 50q176 0 176 -180v-250h-114v250q0 69 -25.5 100.5t-66.5 31.5q-49 0 -94 -50v-332h-114z" />
    <glyph glyph-name="uni045C" unicode="&#x45c;" horiz-adv-x="513" 
d="M221 485l41 136h109l-101 -136h-49zM448 -10q-86 0 -148 80l-103 134v-204h-114v344q0 51 -14 75.5t-56 24.5h-14v26h108q53 0 71.5 -25.5t18.5 -100.5v-105l122 159q30 37 60.5 54.5t78.5 17.5h22v-26q-59 0 -96 -48l-103 -133l126 -163q52 -68 102 -78v-22
q-22 -10 -61 -10z" />
    <glyph glyph-name="uni045E" unicode="&#x45e;" horiz-adv-x="511" 
d="M296 502q-94 0 -136 88l25 18q40 -46 111 -46q72 0 112 46l25 -18q-42 -88 -137 -88zM97 -200v33q52 0 85.5 21.5t55.5 78.5l20 55l-172 392q-30 72 -100 80v20h87q91 0 126 -80l115 -262l123 332h52l-199 -535q-29 -78 -65 -106.5t-92 -28.5h-36z" />
    <glyph glyph-name="uni045F" unicode="&#x45f;" horiz-adv-x="550" 
d="M258 -150l-15 150h-161v344q0 51 -14 75.5t-56 24.5h-12v26h105q53 0 71.5 -25.5t18.5 -100.5v-301h177v427h113v-470h-160l-15 -150h-52z" />
    <glyph glyph-name="uni0490" unicode="&#x490;" horiz-adv-x="537" 
d="M100 0v534q0 51 -14 75.5t-56 24.5h-15v26h358q125 0 125 118h26v-95q0 -28 -16.5 -47t-52.5 -19h-242v-617h-113z" />
    <glyph glyph-name="uni0491" unicode="&#x491;" horiz-adv-x="433" 
d="M77 0v344q0 51 -14 75.5t-56 24.5h-7v26h289q99 0 99 103h26v-82q0 -64 -61 -64h-162v-427h-114z" />
    <glyph glyph-name="uni060C" unicode="&#x60c;" horiz-adv-x="235" 
d="M118 -15q-31 0 -48.5 21t-17.5 54q0 116 113 188l15 -21q-81 -55 -81 -129l21 6q27 0 43 -16t16 -42q0 -27 -16.5 -44t-44.5 -17z" />
    <glyph glyph-name="uni0615" unicode="&#x615;" 
d="M-100 510q-8 0 -8 21t8 21h13v127q0 20 -12 24q-1 5 4.5 9t14.5 4q25 0 25 -32v-86q34 51 88 51q33 0 55.5 -19.5t22.5 -56.5q0 -31 -16 -47t-40 -16h-155zM-55 552h92q21 0 21 28q0 15 -10 24.5t-28 9.5q-29 0 -52 -21.5t-23 -40.5z" />
    <glyph glyph-name="uni061B" unicode="&#x61b;" horiz-adv-x="251" 
d="M174 600l14 -20q-81 -57 -81 -129q12 5 21 5q27 0 43 -16t16 -42q0 -27 -16.5 -44t-44.5 -17q-31 0 -48 21t-17 54q0 119 113 188zM124 -19q-26 0 -42 16.5t-16 41.5q0 26 16 42t42 16q27 0 43 -16t16 -42q0 -25 -16 -41.5t-43 -16.5z" />
    <glyph glyph-name="uni061F" unicode="&#x61f;" horiz-adv-x="448" 
d="M234 160q-4 0 -5.5 4.5t-4 17t-4.5 19.5q-13 59 -91.5 199t-78.5 188q0 20 9 43.5t27.5 47.5t55.5 40t86 16q86 0 128 -43t42 -90q0 -23 -13.5 -41t-45.5 -18q-24 0 -48 12l1 32q-1 28 -16.5 48.5t-41.5 20.5q-28 0 -46 -23t-18 -54q0 -26 15.5 -56.5t33.5 -56.5
t33.5 -69t15.5 -90q0 -45 -9.5 -96t-24.5 -51zM239 -12q-26 0 -44.5 18t-18.5 43t18.5 43t44.5 18q25 0 42.5 -18t17.5 -43t-17.5 -43t-42.5 -18z" />
    <glyph glyph-name="uni0621" unicode="&#x621;" horiz-adv-x="476" 
d="M387 121q25 0 34.5 -21t2 -42.5t-24.5 -22.5q-78 -6 -196.5 -21.5t-134.5 -27.5q-17 24 -17 48t25 40.5t64 12.5q-27 17 -48.5 53t-21.5 81q0 69 51 120.5t143 51.5q60 0 89 -23t29 -61q0 -31 -16.5 -46.5t-37 -13.5t-39.5 9q1 29 -15.5 50t-42.5 23q-18 -10 -33.5 -36
t-15.5 -61q0 -56 39 -88.5t96 -32.5q18 0 42.5 4t27.5 4z" />
    <glyph glyph-name="uni0622" unicode="&#x622;" horiz-adv-x="263" 
d="M184 640q-33 0 -81.5 21.5t-71.5 21.5q-16 0 -29.5 -8t-18.5 -8q-13 0 -7 22q9 33 46 48q17 7 38 7q29 0 79 -19t73 -19q19 0 33.5 9.5t19.5 9.5q11 -1 6 -25q-8 -39 -50 -54q-17 -6 -37 -6zM156 0q-56 0 -56 66v386q0 67 -50 98q3 14 23 31.5t51 17.5q39 0 64 -30.5
t25 -85.5v-418q0 -65 -57 -65z" />
    <glyph glyph-name="uni0623" unicode="&#x623;" horiz-adv-x="263" 
d="M39 634q-24 14 -15.5 39t45.5 21q-15 9 -26.5 29.5t-11.5 44.5q0 38 28 67t79 29q65 0 65 -47q0 -24 -18.5 -30.5t-32.5 2.5q1 15 -8 27t-24 13q-24 -14 -24 -52q0 -33 21.5 -50.5t51.5 -17.5q7 0 14 1t14 2.5t9 1.5q14 0 19 -12t1 -24t-13 -12q-171 -13 -174 -32zM156 0
q-56 0 -56 66v386q0 67 -50 98q3 14 23 31.5t51 17.5q39 0 64 -30.5t25 -85.5v-418q0 -65 -57 -65z" />
    <glyph glyph-name="uni0624" unicode="&#x624;" horiz-adv-x="528" 
d="M178 539q-24 14 -15.5 39t45.5 21q-15 9 -26.5 29.5t-11.5 44.5q0 38 28 67t79 29q65 0 65 -47q0 -24 -18.5 -30.5t-32.5 2.5q1 15 -8 27t-24 13q-24 -14 -24 -52q0 -33 21.5 -50.5t51.5 -17.5q7 0 14 1t14 2.5t9 1.5q14 0 19 -12t1 -24t-13 -12q-171 -13 -174 -32z
M275 480q48 0 80 -8.5t58 -31t38 -65t12 -107.5v-324q0 -20 -3.5 -40t-14 -45t-28 -43.5t-48.5 -31.5t-72 -13q-66 0 -99.5 31.5t-34.5 70.5q44 -27 90 -27q41 0 68.5 21t27.5 58l1 75l-98 -2q-96 0 -141.5 57.5t-45.5 180.5q0 77 17 128.5t49.5 75t65.5 32t78 8.5zM179 240
q0 -149 88 -149h82v217q0 43 -22.5 62t-56.5 19q-49 0 -70 -37t-21 -112z" />
    <glyph glyph-name="uni0625" unicode="&#x625;" horiz-adv-x="263" 
d="M156 0q-56 0 -56 66v447q0 67 -50 98q3 14 23 31.5t51 17.5q39 0 64 -30.5t25 -85.5v-479q0 -65 -57 -65zM70 -279q-24 13 -15.5 38t45.5 22q-14 9 -25.5 29t-11.5 44q0 39 28 67.5t80 28.5q65 0 65 -46q0 -25 -19 -31.5t-33 3.5q1 15 -8 27t-24 13q-24 -17 -24 -53
q0 -32 21.5 -50t51.5 -18q2 0 37 5q14 0 19 -12t1 -23.5t-13 -11.5q-172 -13 -175 -32z" />
    <glyph glyph-name="uni0626" unicode="&#x626;" horiz-adv-x="867" 
d="M110 325q-24 14 -15.5 39t45.5 21q-15 9 -26.5 29.5t-11.5 44.5q0 38 28 67t79 29q65 0 65 -47q0 -24 -18.5 -30.5t-32.5 2.5q1 15 -8 27t-24 13q-24 -14 -24 -52q0 -33 21.5 -50.5t51.5 -17.5q7 0 14 1t14 2.5t9 1.5q14 0 19 -12t1 -24t-13 -12q-171 -13 -174 -32z
M602 194q38 0 70.5 -7t63.5 -24t48.5 -50t17.5 -79q0 -50 -22 -96.5t-66 -86t-120.5 -63.5t-175.5 -24q-92 0 -159.5 21.5t-103.5 52t-57.5 74.5t-27 77t-5.5 71q0 99 35.5 148.5t84.5 49.5q25 0 40.5 -13t19.5 -29q-26 -23 -46 -69t-20 -103q0 -189 251 -189
q74 0 127.5 16.5t80.5 43.5t39 54t12 54q0 34 -18.5 53t-49 22.5t-58.5 2t-60.5 -6t-41.5 -4.5q-33 0 -47.5 32t-14.5 76q0 126 71.5 204t171.5 78q67 0 91 -34.5t14 -73.5q-41 17 -84 17q-82 0 -127.5 -61.5t-45.5 -146.5q49 13 112 13z" />
    <glyph glyph-name="uni0627" unicode="&#x627;" horiz-adv-x="263" 
d="M156 0q-56 0 -56 66v447q0 67 -50 98q3 14 23 31.5t51 17.5q39 0 64 -30.5t25 -85.5v-479q0 -65 -57 -65z" />
    <glyph glyph-name="uni0628" unicode="&#x628;" horiz-adv-x="794" 
d="M195 0q-66 0 -98 38t-32 102v234q0 25 14.5 41t42.5 16t42.5 -16.5t14.5 -42.5v-202q0 -42 13.5 -60.5t45.5 -18.5h291q45 0 65.5 48t20.5 112q0 66 -17 108.5t-58 76.5q4 16 22 30t48 14q60 0 89.5 -56t29.5 -145q0 -53 -11 -100.5t-33.5 -88.5t-63 -65.5t-94.5 -24.5
h-332zM389 -212q-28 0 -47.5 19.5t-19.5 46.5t19.5 46.5t47.5 19.5q27 0 46.5 -19.5t19.5 -46.5t-19.5 -46.5t-46.5 -19.5z" />
    <glyph glyph-name="uni0629" unicode="&#x629;" horiz-adv-x="527" 
d="M185 548q-25 0 -43 18t-18 43q0 26 18 44.5t43 18.5q26 0 44 -18.5t18 -44.5t-18 -43.5t-44 -17.5zM341 548q-26 0 -44 18t-18 43q0 26 18 44.5t44 18.5t43.5 -18.5t17.5 -44.5t-17.5 -43.5t-43.5 -17.5zM263 -9q-102 0 -150 61t-48 185q0 121 47 182t151 61
q105 0 152 -61t47 -182q0 -123 -48.5 -184.5t-150.5 -61.5zM263 82q85 0 85 160q0 147 -85 147q-84 0 -84 -148q0 -159 84 -159z" />
    <glyph glyph-name="uni062A" unicode="&#x62a;" horiz-adv-x="794" 
d="M310 503q-25 0 -43 18t-18 43q0 26 18 44.5t43 18.5q26 0 44 -18.5t18 -44.5t-18 -43.5t-44 -17.5zM466 503q-26 0 -44 18t-18 43q0 26 18 44.5t44 18.5t43.5 -18.5t17.5 -44.5t-17.5 -43.5t-43.5 -17.5zM195 0q-66 0 -98 38t-32 102v234q0 25 14.5 41t42.5 16
t42.5 -16.5t14.5 -42.5v-202q0 -42 13.5 -60.5t45.5 -18.5h291q45 0 65.5 48t20.5 112q0 66 -17 108.5t-58 76.5q4 16 22 30t48 14q60 0 89.5 -56t29.5 -145q0 -53 -11 -100.5t-33.5 -88.5t-63 -65.5t-94.5 -24.5h-332z" />
    <glyph glyph-name="uni062B" unicode="&#x62b;" horiz-adv-x="794" 
d="M388 755q23 0 40 -16.5t17 -40.5t-17 -41t-40 -17q-24 0 -40.5 17t-16.5 41t16 40.5t41 16.5zM310 624q26 0 44 -18t18 -44t-18 -44t-44 -18q-25 0 -43 18.5t-18 43.5t18 43.5t43 18.5zM466 624q26 0 43.5 -18t17.5 -44t-17.5 -44t-43.5 -18t-44 18t-18 44t18 44t44 18z
M195 0q-66 0 -98 38t-32 102v234q0 25 14.5 41t42.5 16t42.5 -16.5t14.5 -42.5v-202q0 -42 13.5 -60.5t45.5 -18.5h291q45 0 65.5 48t20.5 112q0 66 -17 108.5t-58 76.5q4 16 22 30t48 14q60 0 89.5 -56t29.5 -145q0 -53 -11 -100.5t-33.5 -88.5t-63 -65.5t-94.5 -24.5h-332
z" />
    <glyph glyph-name="uni062C" unicode="&#x62c;" horiz-adv-x="636" 
d="M320 480q111 0 184 -64.5t73 -177.5q0 -41 -10 -80t-31.5 -76t-62.5 -59.5t-95 -22.5h-217q0 -174 79 -235q-5 -12 -22.5 -21.5t-40.5 -9.5q-33 0 -58 21t-37 54t-17.5 64.5t-5.5 60.5q0 74 30 115.5t91 41.5h165q44 0 81 33.5t37 110.5q0 155 -191 155h-81
q-38 0 -59.5 25.5t-24.5 56.5t13 38q21 -33 94 -33q12 0 52 1.5t54 1.5zM345 -50q27 0 46.5 -19t19.5 -47q0 -27 -19.5 -46.5t-46.5 -19.5q-28 0 -47.5 19.5t-19.5 46.5q0 28 19.5 47t47.5 19z" />
    <glyph glyph-name="uni062D" unicode="&#x62d;" horiz-adv-x="636" 
d="M320 480q111 0 184 -64.5t73 -177.5q0 -41 -10 -80t-31.5 -76t-62.5 -59.5t-95 -22.5h-217q0 -174 79 -235q-5 -12 -22.5 -21.5t-40.5 -9.5q-33 0 -58 21t-37 54t-17.5 64.5t-5.5 60.5q0 74 30 115.5t91 41.5h165q44 0 81 33.5t37 110.5q0 155 -191 155h-81
q-38 0 -59.5 25.5t-24.5 56.5t13 38q21 -33 94 -33q12 0 52 1.5t54 1.5z" />
    <glyph glyph-name="uni062E" unicode="&#x62e;" horiz-adv-x="636" 
d="M319 545q-28 0 -47.5 19.5t-19.5 46.5q0 28 19.5 47t47.5 19q27 0 46.5 -19t19.5 -47q0 -27 -19.5 -46.5t-46.5 -19.5zM320 480q111 0 184 -64.5t73 -177.5q0 -41 -10 -80t-31.5 -76t-62.5 -59.5t-95 -22.5h-217q0 -174 79 -235q-5 -12 -22.5 -21.5t-40.5 -9.5
q-33 0 -58 21t-37 54t-17.5 64.5t-5.5 60.5q0 74 30 115.5t91 41.5h165q44 0 81 33.5t37 110.5q0 155 -191 155h-81q-38 0 -59.5 25.5t-24.5 56.5t13 38q21 -33 94 -33q12 0 52 1.5t54 1.5z" />
    <glyph glyph-name="uni062F" unicode="&#x62f;" horiz-adv-x="503" 
d="M228 480q83 0 150 -66t67 -161q0 -27 -5.5 -57.5t-19.5 -66t-35.5 -63.5t-58 -47t-81.5 -19h-150q-36 0 -36 45q0 46 40 46h59q90 0 131.5 43.5t41.5 111.5q0 60 -29 101.5t-71 47.5q-55 -15 -55 -88q-30 -9 -56 -5q-23 2 -39 19t-16 47q0 55 53 83.5t110 28.5zM244 397
l8 1q-5 0 -8 -1z" />
    <glyph glyph-name="uni0630" unicode="&#x630;" horiz-adv-x="503" 
d="M253 545q-28 0 -47.5 19.5t-19.5 46.5q0 28 19.5 47t47.5 19q27 0 46.5 -19t19.5 -47q0 -27 -19.5 -46.5t-46.5 -19.5zM228 480q83 0 150 -66t67 -161q0 -27 -5.5 -57.5t-19.5 -66t-35.5 -63.5t-58 -47t-81.5 -19h-150q-36 0 -36 45q0 46 40 46h59q90 0 131.5 43.5
t41.5 111.5q0 60 -29 101.5t-71 47.5q-55 -15 -55 -88q-30 -9 -56 -5q-23 2 -39 19t-16 47q0 55 53 83.5t110 28.5zM244 397l8 1q-5 0 -8 -1z" />
    <glyph glyph-name="uni0631" unicode="&#x631;" horiz-adv-x="309" 
d="M87 -229q-69 0 -102 33t-29 68q42 -26 90 -26q42 0 67.5 22t25.5 55v503q0 26 16 40t41 14t40.5 -14t15.5 -41v-483q0 -25 -6.5 -50.5t-22.5 -55t-51 -47.5t-85 -18z" />
    <glyph glyph-name="uni0632" unicode="&#x632;" horiz-adv-x="309" 
d="M197 545q-28 0 -47.5 19.5t-19.5 46.5q0 28 19.5 47t47.5 19q27 0 46.5 -19t19.5 -47q0 -27 -19.5 -46.5t-46.5 -19.5zM87 -229q-69 0 -102 33t-29 68q42 -26 90 -26q42 0 67.5 22t25.5 55v503q0 26 16 40t41 14t40.5 -14t15.5 -41v-483q0 -25 -6.5 -50.5t-22.5 -55
t-51 -47.5t-85 -18z" />
    <glyph glyph-name="uni0633" unicode="&#x633;" horiz-adv-x="1316" 
d="M1127 480q62 0 93 -58t31 -156q0 -32 -3.5 -62.5t-16.5 -69t-34.5 -67t-61 -48t-91.5 -19.5h-13q-96 0 -153 58q-40 -58 -104 -58h-89q-45 1 -81 28q-2 -147 -62.5 -214.5t-205.5 -67.5q-139 0 -205 67.5t-66 216.5q0 132 38 185t92 53q26 0 44.5 -11t24.5 -24
q-33 -28 -60 -91t-27 -142q0 -54 13 -90.5t37.5 -53t49 -23t59.5 -6.5q83 0 118.5 47t35.5 163v327q0 61 57 61t57 -61v-190q0 -82 42 -83h92q65 0 65 77v219q0 32 16 47t40 15t40.5 -15t16.5 -47v-196q0 -100 50 -100h85q31 0 51.5 27t27.5 59.5t7 67.5q0 67 -21 117.5
t-58 75.5q13 42 69 42z" />
    <glyph glyph-name="uni0634" unicode="&#x634;" horiz-adv-x="1316" 
d="M858 685q-24 0 -40.5 17t-16.5 41t16 40.5t41 16.5q23 0 40 -16.5t17 -40.5t-17 -41t-40 -17zM780 545q-25 0 -43 18.5t-18 43.5t18 43.5t43 18.5q26 0 44 -18t18 -44t-18 -44t-44 -18zM874 607q0 25 18 43.5t44 18.5t43.5 -18t17.5 -44t-17.5 -44t-43.5 -18t-44 18.5
t-18 43.5zM1127 480q62 0 93 -58t31 -156q0 -32 -3.5 -62.5t-16.5 -69t-34.5 -67t-61 -48t-91.5 -19.5h-13q-96 0 -153 58q-40 -58 -104 -58h-89q-45 1 -81 28q-2 -147 -62.5 -214.5t-205.5 -67.5q-139 0 -205 67.5t-66 216.5q0 132 38 185t92 53q26 0 44.5 -11t24.5 -24
q-33 -28 -60 -91t-27 -142q0 -54 13 -90.5t37.5 -53t49 -23t59.5 -6.5q83 0 118.5 47t35.5 163v327q0 61 57 61t57 -61v-190q0 -82 42 -83h92q65 0 65 77v219q0 32 16 47t40 15t40.5 -15t16.5 -47v-196q0 -100 50 -100h85q31 0 51.5 27t27.5 59.5t7 67.5q0 67 -21 117.5
t-58 75.5q13 42 69 42z" />
    <glyph glyph-name="uni0635" unicode="&#x635;" horiz-adv-x="1143" 
d="M807 480q48 0 92 -12t86 -38.5t67.5 -76.5t25.5 -118q0 -26 -3.5 -51.5t-16 -60.5t-33 -60.5t-60 -44t-92.5 -18.5h-270q-6 -132 -67.5 -193t-199.5 -61q-139 0 -205 67.5t-66 216.5q0 132 38 185t92 53q26 0 44.5 -11t24.5 -24q-33 -28 -60 -91t-27 -142q0 -54 13 -90.5
t37.5 -53t49 -23t59.5 -6.5q83 0 118.5 47t35.5 163v275q0 26 -14.5 47t-31.5 30q7 15 27 27.5t49 12.5q48 0 69 -38q26 35 83.5 62t134.5 27zM860 91q52 0 78 41.5t26 94.5q0 83 -53 122.5t-121 39.5q-58 0 -112 -27.5t-74 -64.5v-206h256z" />
    <glyph glyph-name="uni0636" unicode="&#x636;" horiz-adv-x="1143" 
d="M801 545q-28 0 -47.5 19.5t-19.5 46.5q0 28 19.5 47t47.5 19q27 0 46.5 -19t19.5 -47q0 -27 -19.5 -46.5t-46.5 -19.5zM807 480q48 0 92 -12t86 -38.5t67.5 -76.5t25.5 -118q0 -26 -3.5 -51.5t-16 -60.5t-33 -60.5t-60 -44t-92.5 -18.5h-270q-6 -132 -67.5 -193
t-199.5 -61q-139 0 -205 67.5t-66 216.5q0 132 38 185t92 53q26 0 44.5 -11t24.5 -24q-33 -28 -60 -91t-27 -142q0 -54 13 -90.5t37.5 -53t49 -23t59.5 -6.5q83 0 118.5 47t35.5 163v275q0 26 -14.5 47t-31.5 30q7 15 27 27.5t49 12.5q48 0 69 -38q26 35 83.5 62t134.5 27z
M860 91q52 0 78 41.5t26 94.5q0 83 -53 122.5t-121 39.5q-58 0 -112 -27.5t-74 -64.5v-206h256z" />
    <glyph glyph-name="uni0637" unicode="&#x637;" horiz-adv-x="826" 
d="M496 480q48 0 93.5 -15.5t84.5 -46t63 -82t24 -117.5q0 -43 -10.5 -80t-33.5 -69.5t-65.5 -51t-100.5 -18.5h-500q-16 0 -23.5 15.5t-7.5 30.5q0 14 7.5 29.5t23.5 15.5h60v422q0 67 -50 98q3 15 23 32t51 17q39 0 64 -30t25 -86v-248q30 70 102.5 127t169.5 57zM511 91
q67 0 102 38t35 97q0 78 -53 120.5t-125 42.5q-40 0 -77 -15.5t-63.5 -38t-49 -52t-35 -53.5t-21.5 -46v-93h287z" />
    <glyph glyph-name="uni0638" unicode="&#x638;" horiz-adv-x="826" 
d="M418 545q-28 0 -47.5 19.5t-19.5 46.5q0 28 19.5 47t47.5 19q27 0 46.5 -19t19.5 -47q0 -27 -19.5 -46.5t-46.5 -19.5zM496 480q48 0 93.5 -15.5t84.5 -46t63 -82t24 -117.5q0 -43 -10.5 -80t-33.5 -69.5t-65.5 -51t-100.5 -18.5h-500q-16 0 -23.5 15.5t-7.5 30.5
q0 14 7.5 29.5t23.5 15.5h60v422q0 67 -50 98q3 15 23 32t51 17q39 0 64 -30t25 -86v-248q30 70 102.5 127t169.5 57zM511 91q67 0 102 38t35 97q0 78 -53 120.5t-125 42.5q-40 0 -77 -15.5t-63.5 -38t-49 -52t-35 -53.5t-21.5 -46v-93h287z" />
    <glyph glyph-name="uni0639" unicode="&#x639;" horiz-adv-x="554" 
d="M453 91q36 0 36 -45q0 -46 -36 -46h-286q0 -174 79 -235q-5 -12 -22.5 -21.5t-40.5 -9.5q-33 0 -58 21t-37 54t-17.5 64.5t-5.5 60.5q0 125 89 151q-51 80 -51 166q0 99 67 164t154 65q33 0 66.5 -8.5t63 -34.5t29.5 -66q0 -32 -17 -49.5t-41 -19.5q-22 -1 -54 10
q0 68 -55 83q-39 -6 -69 -46.5t-30 -99.5q0 -69 42 -113.5t132 -44.5h62z" />
    <glyph glyph-name="uni063A" unicode="&#x63a;" horiz-adv-x="554" 
d="M302 545q-28 0 -47.5 19.5t-19.5 46.5q0 28 19.5 47t47.5 19q27 0 46.5 -19t19.5 -47q0 -27 -19.5 -46.5t-46.5 -19.5zM453 91q36 0 36 -45q0 -46 -36 -46h-286q0 -174 79 -235q-5 -12 -22.5 -21.5t-40.5 -9.5q-33 0 -58 21t-37 54t-17.5 64.5t-5.5 60.5q0 125 89 151
q-51 80 -51 166q0 99 67 164t154 65q33 0 66.5 -8.5t63 -34.5t29.5 -66q0 -32 -17 -49.5t-41 -19.5q-22 -1 -54 10q0 68 -55 83q-39 -6 -69 -46.5t-30 -99.5q0 -69 42 -113.5t132 -44.5h62z" />
    <glyph glyph-name="uni0640" unicode="&#x640;" horiz-adv-x="153" 
d="M0 0v91h153v-91h-153z" />
    <glyph glyph-name="uni0641" unicode="&#x641;" horiz-adv-x="974" 
d="M722 545q-28 0 -47.5 19.5t-19.5 46.5q0 28 19.5 47t47.5 19q27 0 46.5 -19t19.5 -47q0 -27 -19.5 -46.5t-46.5 -19.5zM710 480q50 0 83.5 -8t61 -29.5t41 -63t13.5 -105.5v-134q0 -64 -32 -102t-98 -38h-515q-98 0 -148.5 57t-50.5 156q0 84 33 130t82 46q50 0 65 -41
q-26 -16 -46 -55.5t-20 -96.5q0 -105 94 -105h272q-36 60 -36 159q0 60 12 104t29.5 67.5t46 37.5t53.5 17.5t60 3.5zM796 170v139q0 44 -22.5 62.5t-53.5 18.5q-46 0 -71.5 -37.5t-25.5 -103.5q0 -21 4 -44.5t13 -51t28.5 -45t46.5 -17.5h21q32 0 46 18.5t14 60.5z" />
    <glyph glyph-name="uni0642" unicode="&#x642;" horiz-adv-x="897" 
d="M567 548q-25 0 -43 18t-18 43q0 26 18 44.5t43 18.5q26 0 44 -18.5t18 -44.5t-18 -43.5t-44 -17.5zM723 548q-26 0 -44 18t-18 43q0 26 18 44.5t44 18.5t43.5 -18.5t17.5 -44.5t-17.5 -43.5t-43.5 -17.5zM641 480q67 0 106 -16t62 -64.5t23 -137.5v-191
q0 -160 -95 -233.5t-281 -73.5q-94 0 -165.5 18t-113.5 46.5t-68 68.5t-35 78t-9 81q0 85 30 144t87 59q23 0 38.5 -10t19.5 -22q-25 -22 -43 -72t-18 -111q0 -89 60.5 -139t210.5 -50q240 0 258 145h-97q-178 0 -178 252q0 134 51 181t157 47zM547 246q0 -24 4 -47
t14 -49.5t32 -42.5t53 -16h68v218q0 43 -22 61.5t-53 18.5q-46 0 -71 -38t-25 -105z" />
    <glyph glyph-name="uni0643" unicode="&#x643;" horiz-adv-x="833" 
d="M195 0q-65 0 -97.5 43t-32.5 109v108q0 25 14.5 41t42.5 16t42.5 -16.5t14.5 -42.5v-88q0 -42 13.5 -60.5t45.5 -18.5h354q30 0 46 24.5t16 62.5v335q0 67 -49 98q3 15 23 32t50 17q40 0 65 -30t25 -86v-369q0 -80 -37.5 -127.5t-101.5 -47.5h-434zM333 314
q-24 14 -15.5 39t45.5 21q-15 9 -26.5 29.5t-11.5 44.5q0 38 28 67t79 29q65 0 65 -47q0 -24 -18.5 -30.5t-32.5 2.5q1 15 -8 27t-24 13q-24 -14 -24 -52q0 -33 21.5 -50.5t51.5 -17.5q7 0 14 1t14 2.5t9 1.5q14 0 19 -12t1 -24t-13 -12q-171 -13 -174 -32z" />
    <glyph glyph-name="uni0644" unicode="&#x644;" horiz-adv-x="696" 
d="M359 -236q-146 0 -220 74.5t-74 198.5q0 78 30 137.5t91 59.5q39 0 68 -23q-24 -18 -48.5 -66.5t-24.5 -114.5q0 -89 53.5 -132t128.5 -43q47 0 80 17t48 46.5t21 57t6 59.5v478q0 67 -50 98q3 15 23 32t50 17q39 0 64.5 -30t25.5 -86v-509q0 -271 -272 -271z" />
    <glyph glyph-name="uni0645" unicode="&#x645;" horiz-adv-x="632" 
d="M357 480q45 0 78 -8.5t65.5 -32t49.5 -75t17 -128.5q0 -122 -45.5 -179t-142.5 -57h-82q-48 0 -71 -23t-23 -56v-83q0 -55 -25 -85.5t-64 -30.5q-31 0 -51 17.5t-23 31.5q50 31 50 98v51q0 16 3.5 34.5t11 41t24.5 43.5t40 34v196q0 65 12 107t37.5 64.5t58 31t80.5 8.5z
M365 91q88 0 88 150q0 75 -21 111.5t-70 36.5q-34 0 -57 -19t-23 -62v-217h83z" />
    <glyph glyph-name="uni0646" unicode="&#x646;" horiz-adv-x="696" 
d="M349 480q-28 0 -47.5 19.5t-19.5 46.5q0 28 19.5 47t47.5 19q27 0 46.5 -19t19.5 -47q0 -27 -19.5 -46.5t-46.5 -19.5zM359 -236q-146 0 -220 74.5t-74 198.5q0 78 30 137.5t91 59.5q39 0 68 -23q-24 -18 -48.5 -66.5t-24.5 -114.5q0 -89 53.5 -132t128.5 -43q47 0 80 17
t48 46.5t21 57t6 59.5v390q0 25 15.5 40t40.5 15q26 0 41.5 -15t15.5 -42v-388q0 -271 -272 -271z" />
    <glyph glyph-name="uni0647" unicode="&#x647;" horiz-adv-x="527" 
d="M263 -9q-102 0 -150 61t-48 185q0 121 47 182t151 61q105 0 152 -61t47 -182q0 -123 -48.5 -184.5t-150.5 -61.5zM263 82q85 0 85 160q0 147 -85 147q-84 0 -84 -148q0 -159 84 -159z" />
    <glyph glyph-name="uni0648" unicode="&#x648;" horiz-adv-x="528" 
d="M275 480q48 0 80 -8.5t58 -31t38 -65t12 -107.5v-324q0 -20 -3.5 -40t-14 -45t-28 -43.5t-48.5 -31.5t-72 -13q-66 0 -99.5 31.5t-34.5 70.5q44 -27 90 -27q41 0 68.5 21t27.5 58l1 75l-98 -2q-96 0 -141.5 57.5t-45.5 180.5q0 77 17 128.5t49.5 75t65.5 32t78 8.5z
M179 240q0 -149 88 -149h82v217q0 43 -22.5 62t-56.5 19q-49 0 -70 -37t-21 -112z" />
    <glyph glyph-name="uni0649" unicode="&#x649;" horiz-adv-x="867" 
d="M602 194q38 0 70.5 -7t63.5 -24t48.5 -50t17.5 -79q0 -50 -22 -96.5t-66 -86t-120.5 -63.5t-175.5 -24q-92 0 -159.5 21.5t-103.5 52t-57.5 74.5t-27 77t-5.5 71q0 99 35.5 148.5t84.5 49.5q25 0 40.5 -13t19.5 -29q-26 -23 -46 -69t-20 -103q0 -189 251 -189
q74 0 127.5 16.5t80.5 43.5t39 54t12 54q0 34 -18.5 53t-49 22.5t-58.5 2t-60.5 -6t-41.5 -4.5q-33 0 -47.5 32t-14.5 76q0 126 71.5 204t171.5 78q67 0 91 -34.5t14 -73.5q-41 17 -84 17q-82 0 -127.5 -61.5t-45.5 -146.5q49 13 112 13z" />
    <glyph glyph-name="uni064A" unicode="&#x64a;" horiz-adv-x="867" 
d="M602 194q38 0 70.5 -7t63.5 -24t48.5 -50t17.5 -79q0 -50 -22 -96.5t-66 -86t-120.5 -63.5t-175.5 -24q-92 0 -159.5 21.5t-103.5 52t-57.5 74.5t-27 77t-5.5 71q0 99 35.5 148.5t84.5 49.5q25 0 40.5 -13t19.5 -29q-26 -23 -46 -69t-20 -103q0 -189 251 -189
q74 0 127.5 16.5t80.5 43.5t39 54t12 54q0 34 -18.5 53t-49 22.5t-58.5 2t-60.5 -6t-41.5 -4.5q-33 0 -47.5 32t-14.5 76q0 126 71.5 204t171.5 78q67 0 91 -34.5t14 -73.5q-41 17 -84 17q-82 0 -127.5 -61.5t-45.5 -146.5q49 13 112 13zM351 -299q26 0 44 -18t18 -44
t-18 -44t-44 -18q-25 0 -43 18.5t-18 43.5t18 43.5t43 18.5zM507 -299q26 0 43.5 -18t17.5 -44t-17.5 -44t-43.5 -18q-25 0 -43.5 18.5t-18.5 43.5t18.5 43.5t43.5 18.5z" />
    <glyph glyph-name="uni064B" unicode="&#x64b;" 
d="M-87 649q-25 -9 -35 17q-4 10 1 20t16 14l192 67q11 4 21 -1t14 -16q4 -10 -1 -20t-16 -14zM-87 547q-25 -9 -35 17q-4 10 1 20t16 14l192 67q11 4 21 -1t14 -16q4 -10 -1 -20t-16 -14z" />
    <glyph glyph-name="uni064C" unicode="&#x64c;" 
d="M34 484q-38 0 -68.5 21.5t-43.5 48.5l-33 -11q-9 -3 -18.5 3.5t-11.5 15.5q-4 21 14 31l55 23q21 10 35 -23q24 -55 68 -55q18 0 27 5q-26 5 -43 25t-17 47q0 30 21.5 51.5t52.5 21.5q28 0 50.5 -19.5t22.5 -65.5q0 -51 -32 -85t-79 -34zM72 595q8 0 13.5 6t5.5 14
t-5.5 13t-13.5 5t-13.5 -5.5t-5.5 -12.5q0 -8 5.5 -14t13.5 -6z" />
    <glyph glyph-name="uni064D" unicode="&#x64d;" 
d="M-87 -159q-11 -4 -21 1t-14 15q-4 11 1 21t16 14l192 67q11 4 21 -1t14 -16q4 -10 -1 -20t-16 -14zM-87 -261q-11 -4 -21 1t-14 15q-4 11 1 21t16 14l192 67q11 4 21 -1t14 -16q4 -10 -1 -20t-16 -14z" />
    <glyph glyph-name="uni064E" unicode="&#x64e;" 
d="M-87 547q-25 -9 -35 17q-4 10 1 20t16 14l192 67q11 4 21 -1t14 -16q4 -10 -1 -20t-16 -14z" />
    <glyph glyph-name="uni064F" unicode="&#x64f;" 
d="M-74 496q-11 0 -19.5 7.5t-8.5 20.5q0 23 27 26l58 7q-29 19 -29 59q0 30 21.5 52t51.5 22q31 0 52.5 -22t21.5 -57q0 -39 -32.5 -67t-70.5 -38t-72 -10zM27 597q7 0 13 5.5t6 13.5t-5.5 13.5t-13.5 5.5q-19 0 -19 -19q0 -8 5.5 -13.5t13.5 -5.5z" />
    <glyph glyph-name="uni0650" unicode="&#x650;" 
d="M-87 -159q-11 -4 -21 1t-14 15q-4 11 1 21t16 14l192 67q11 4 21 -1t14 -16q4 -10 -1 -20t-16 -14z" />
    <glyph glyph-name="uni0651" unicode="&#x651;" 
d="M-38 497q-40 0 -66.5 43t-27.5 70q-1 12 7 21.5t19 9.5q17 0 27 -22q2 -6 6.5 -18.5l7 -19t7 -14.5t9.5 -11.5t11 -3.5q7 0 10 5t3 13.5t-1 16.5t-3 16.5t-2 11.5q-1 11 7 20.5t21 9.5q14 0 24 -17q3 -6 9 -21t11.5 -22.5t13.5 -7.5q12 0 14 16.5t-2.5 41t-4.5 26.5
q-2 11 6 20t20 9q28 0 31 -53q2 -47 -12 -81t-49 -34q-20 0 -39 12q-19 -37 -57 -37z" />
    <glyph glyph-name="uni0652" unicode="&#x652;" 
d="M0 511q-39 0 -66.5 27.5t-27.5 66.5q0 38 27.5 65.5t66.5 27.5t66.5 -27.5t27.5 -65.5q0 -39 -27.5 -66.5t-66.5 -27.5zM0 566q16 0 27.5 11t11.5 28q0 16 -11.5 27t-27.5 11t-27.5 -11t-11.5 -27q0 -17 11.5 -28t27.5 -11z" />
    <glyph glyph-name="uni0653" unicode="&#x653;" 
d="M62 547q-33 0 -81.5 21.5t-71.5 21.5q-16 0 -29.5 -8t-18.5 -8q-13 0 -7 22q9 33 46 48q17 7 38 7q29 0 79 -19t73 -19q19 0 33.5 9.5t19.5 9.5q11 -1 6 -25q-8 -39 -50 -54q-17 -6 -37 -6z" />
    <glyph glyph-name="uni0654" unicode="&#x654;" 
d="M-84 541q-24 14 -15.5 39t45.5 21q-15 9 -26.5 29.5t-11.5 44.5q0 38 28 67t79 29q65 0 65 -47q0 -24 -18.5 -30.5t-32.5 2.5q1 15 -8 27t-24 13q-24 -14 -24 -52q0 -33 21.5 -50.5t51.5 -17.5q7 0 14 1t14 2.5t9 1.5q14 0 19 -12t1 -24t-13 -12q-171 -13 -174 -32z" />
    <glyph glyph-name="uni0655" unicode="&#x655;" 
d="M-81 -258q-24 13 -15.5 38t45.5 22q-14 9 -25.5 29t-11.5 44q0 39 28 67.5t80 28.5q65 0 65 -46q0 -25 -19 -31.5t-33 3.5q1 15 -8 27t-24 13q-24 -17 -24 -53q0 -32 21.5 -50t51.5 -18q2 0 37 5q14 0 19 -11.5t1 -23.5t-13 -12q-172 -13 -175 -32z" />
    <glyph glyph-name="uni0656" unicode="&#x656;" 
d="M22 -169q-11 0 -19 8t-8 19q0 26 -7 43t-19 31.5t-16 24.5q-3 10 2.5 20.5t15.5 12.5q13 6 25 -5q53 -45 53 -127q0 -11 -7.5 -19t-19.5 -8z" />
    <glyph glyph-name="uni0658" unicode="&#x658;" 
d="M5 485q-55 0 -83.5 28t-28.5 74q0 29 11.5 51.5t34.5 22.5q15 0 26 -9q-10 -6 -19 -24t-9 -43q0 -37 20 -53.5t49 -16.5q58 0 58 68v149q0 21 21 21q22 0 22 -21v-146q0 -101 -102 -101z" />
    <glyph glyph-name="uni0660" unicode="&#x660;" horiz-adv-x="309" 
d="M155 118q-37 0 -63.5 26t-26.5 64q0 37 26.5 63t63.5 26t63 -26t26 -63t-26 -63.5t-63 -26.5z" />
    <glyph glyph-name="uni0661" unicode="&#x661;" horiz-adv-x="240" 
d="M132 0q-29 0 -43 19.5t-14 44.5v398q0 60 -25 110l85 42l55 -28v-521q0 -25 -15 -45t-43 -20z" />
    <glyph glyph-name="uni0662" unicode="&#x662;" horiz-adv-x="496" 
d="M132 0q-29 0 -43 19.5t-14 44.5v398q0 60 -25 110l84 42h265q47 0 47 -49q0 -51 -46 -51l-210 10v-459q0 -25 -15 -45t-43 -20z" />
    <glyph glyph-name="uni0663" unicode="&#x663;" horiz-adv-x="618" 
d="M132 0q-29 0 -43 19.5t-14 44.5v399q0 62 -25 110l85 41l55 -27v-152q14 -8 28 -8q22 0 39.5 25.5t17.5 53.5q0 19 -9 53q1 19 19.5 31.5t36.5 12.5q21 0 40.5 -16.5t19.5 -54.5q0 -50 -14 -88q23 -17 36 -17q23 0 39 24.5t16 53.5q0 19 -7 54q1 18 19.5 31t40.5 13
q21 0 38.5 -16.5t17.5 -61.5q0 -23 -6.5 -49t-21.5 -57.5t-48.5 -52t-79.5 -20.5q-53 0 -99 30q-33 -30 -78 -30q-19 0 -45 7v-288q0 -25 -15 -45t-43 -20z" />
    <glyph glyph-name="uni0664" unicode="&#x664;" horiz-adv-x="408" 
d="M256 -18q-48 0 -87.5 19t-61.5 45t-37.5 55.5t-20.5 48t-5 24.5q0 4 4.5 9.5t17 17l25.5 23l38 34l46 41.5l-27 29l-24 26l-20.5 22t-17.5 19l-13.5 15.5t-11 13.5l-7 10.5t-5 9.5t-1.5 7q0 38 65 100.5t155 62.5q60 0 80 -31t8 -69q-20 18 -66 18q-50 0 -95 -25.5
t-57 -46.5l128 -138q14 -14 14 -30q0 -19 -19 -33l-124 -112q2 -20 47.5 -51.5t104.5 -31.5q49 0 67 18q11 -38 -12.5 -69t-87.5 -31z" />
    <glyph glyph-name="uni0665" unicode="&#x665;" horiz-adv-x="529" 
d="M265 -18q-52 0 -91.5 15.5t-62.5 39.5t-37 60t-19 71t-5 77q0 49 5.5 96t20 98t38 88.5t62.5 62t89 24.5q62 0 106.5 -35.5t66.5 -94t31.5 -117.5t9.5 -123q0 -42 -4.5 -76.5t-18.5 -70.5t-37 -60t-62.5 -39.5t-91.5 -15.5zM265 63q101 0 101 216q0 123 -30 188.5
t-71 65.5t-71 -65.5t-30 -188.5q0 -216 101 -216z" />
    <glyph glyph-name="uni0666" unicode="&#x666;" horiz-adv-x="496" 
d="M364 0q-28 0 -43 20t-15 45v459l-210 -10q-46 0 -46 51q-2 49 47 49h265l84 -42q-25 -50 -25 -110v-398q0 -25 -14 -44.5t-43 -19.5z" />
    <glyph glyph-name="uni0667" unicode="&#x667;" horiz-adv-x="552" 
d="M276 0q-59 0 -105 40t-71 103.5t-37.5 131.5t-12.5 136q0 56 9.5 97.5t21.5 61t28.5 30t25.5 12.5t17 1q29 -1 46 -18q-34 -73 -34 -200q0 -113 33.5 -205.5t78.5 -108.5q45 18 78.5 111.5t33.5 204.5q0 123 -34 198q16 18 49 18q27 0 47 -18t31 -49t16 -65.5t5 -74.5
q0 -65 -12.5 -132.5t-37.5 -130.5t-71 -103t-105 -40z" />
    <glyph glyph-name="uni0668" unicode="&#x668;" horiz-adv-x="552" 
d="M152 0q-8 -1 -17 1t-25.5 12.5t-28.5 30t-21.5 61t-9.5 97.5q0 68 12.5 136t37.5 131.5t71 103.5t105 40t105 -40t71 -103t37.5 -130.5t12.5 -132.5q0 -40 -5 -74.5t-16 -65.5t-31 -49t-47 -18q-33 0 -49 18q34 75 34 198q0 111 -33.5 204.5t-78.5 111.5
q-45 -16 -78.5 -108.5t-33.5 -205.5q0 -127 34 -200q-17 -17 -46 -18z" />
    <glyph glyph-name="uni0669" unicode="&#x669;" horiz-adv-x="500" 
d="M368 0q-29 0 -43 20t-14 45v243q-55 -19 -103 -19q-86 0 -122 47.5t-36 116.5q0 48 16 82.5t44 52t58.5 25.5t67.5 8q66 0 103 -19l27 12l84 -41q-26 -47 -26 -110v-399q0 -24 -14 -44t-42 -20zM255 371q36 0 56 20v36q0 113 -71 113q-76 0 -76 -96q0 -28 16.5 -45.5
t35 -22.5t39.5 -5z" />
    <glyph glyph-name="uni066A" unicode="&#x66a;" horiz-adv-x="756" 
d="M287 -25q-22 0 -38 7.5t-24 18.5t-13 25t-6 24t-1 20q0 35 14 67l224 453h61q50 0 50 -35q0 -13 -14 -41l-95 -188l-64 -127l-19 -38q-17 -39 -17 -66q0 -29 15 -76q-7 -17 -26.5 -30.5t-46.5 -13.5zM161 327q-50 0 -85.5 35.5t-35.5 85.5t35.5 86t85.5 36t86 -36t36 -86
t-36 -85.5t-86 -35.5zM161 382q28 0 47.5 19t19.5 47t-19.5 47t-47.5 19t-47 -19t-19 -47t19 -47t47 -19zM595 -27q-51 0 -86 35.5t-35 86.5q0 50 35 85.5t86 35.5q50 0 85.5 -35.5t35.5 -85.5t-35.5 -86t-85.5 -36zM595 29q27 0 46.5 19t19.5 47q0 27 -19.5 46.5
t-46.5 19.5q-28 0 -47.5 -19.5t-19.5 -46.5q0 -28 19.5 -47t47.5 -19z" />
    <glyph glyph-name="uni066B" unicode="&#x66b;" horiz-adv-x="229" 
d="M66 -158l-14 20q81 57 81 129q-13 -5 -21 -5q-27 0 -43 16t-16 42q0 27 16.5 44t44.5 17q31 0 48 -21t17 -54q0 -119 -113 -188z" />
    <glyph glyph-name="uni066C" unicode="&#x66c;" horiz-adv-x="277" 
d="M140 -11q-3 0 -5 2t-1.5 5t3.5 7q13 17 11 34q-3 -1 -9 -1q-17 0 -28 11t-11 27t11.5 27t27.5 11q14 0 26 -10t12 -33q0 -25 -12 -52.5t-25 -27.5z" />
    <glyph glyph-name="uni066D" unicode="&#x66d;" horiz-adv-x="430" 
d="M166 326l26 133l-105 -95l-45 79l144 50l-144 50l45 80l105 -96l-26 133h98l-26 -133l105 96l45 -80l-144 -50l144 -50l-45 -79l-106 96l27 -134h-98z" />
    <glyph glyph-name="uni066E" unicode="&#x66e;" horiz-adv-x="794" 
d="M195 0q-66 0 -98 38t-32 102v234q0 25 14.5 41t42.5 16t42.5 -16.5t14.5 -42.5v-202q0 -42 13.5 -60.5t45.5 -18.5h291q45 0 65.5 48t20.5 112q0 66 -17 108.5t-58 76.5q4 16 22 30t48 14q60 0 89.5 -56t29.5 -145q0 -53 -11 -100.5t-33.5 -88.5t-63 -65.5t-94.5 -24.5
h-332z" />
    <glyph glyph-name="uni066F" unicode="&#x66f;" horiz-adv-x="897" 
d="M641 480q67 0 106 -16t62 -64.5t23 -137.5v-191q0 -160 -95 -233.5t-281 -73.5q-94 0 -165.5 18t-113.5 46.5t-68 68.5t-35 78t-9 81q0 85 30 144t87 59q23 0 38.5 -10t19.5 -22q-25 -22 -43 -72t-18 -111q0 -89 60.5 -139t210.5 -50q240 0 258 145h-97q-178 0 -178 252
q0 134 51 181t157 47zM547 246q0 -24 4 -47t14 -49.5t32 -42.5t53 -16h68v218q0 43 -22 61.5t-53 18.5q-46 0 -71 -38t-25 -105z" />
    <glyph glyph-name="uni0670" unicode="&#x670;" 
d="M9 486q-11 0 -19.5 8t-8.5 19q0 27 -7 43.5t-19 31t-16 24.5q-3 11 2.5 21t15.5 12q13 5 28 -6q51 -47 51 -126q0 -11 -8 -19t-19 -8z" />
    <glyph glyph-name="uni0671" unicode="&#x671;" horiz-adv-x="263" 
d="M23 639q-9 0 -9 21.5t9 21.5h23q0 8 9.5 28.5t36.5 44t63 23.5q34 0 56 -19.5t22 -56.5q0 -31 -16 -47t-40 -16h-154zM68 682h91q21 0 21 27q0 16 -10 25.5t-28 9.5q-29 0 -51.5 -21.5t-22.5 -40.5zM156 0q-56 0 -56 66v386q0 67 -50 98q3 14 23 31.5t51 17.5
q39 0 64 -30.5t25 -85.5v-418q0 -65 -57 -65z" />
    <glyph glyph-name="uni0679" unicode="&#x679;" horiz-adv-x="794" 
d="M286 500q-8 0 -8 21t8 21h13v127q0 20 -12 24q-1 5 4.5 9t14.5 4q25 0 25 -32v-86q34 51 88 51q33 0 55.5 -19.5t22.5 -56.5q0 -31 -16 -47t-40 -16h-155zM331 542h92q21 0 21 28q0 15 -10 24.5t-28 9.5q-29 0 -52 -21.5t-23 -40.5zM195 0q-66 0 -98 38t-32 102v234
q0 25 14.5 41t42.5 16t42.5 -16.5t14.5 -42.5v-202q0 -42 13.5 -60.5t45.5 -18.5h291q45 0 65.5 48t20.5 112q0 66 -17 108.5t-58 76.5q4 16 22 30t48 14q60 0 89.5 -56t29.5 -145q0 -53 -11 -100.5t-33.5 -88.5t-63 -65.5t-94.5 -24.5h-332z" />
    <glyph glyph-name="uni067E" unicode="&#x67e;" horiz-adv-x="794" 
d="M195 0q-66 0 -98 38t-32 102v234q0 25 14.5 41t42.5 16t42.5 -16.5t14.5 -42.5v-202q0 -42 13.5 -60.5t45.5 -18.5h291q45 0 65.5 48t20.5 112q0 66 -17 108.5t-58 76.5q4 16 22 30t48 14q60 0 89.5 -56t29.5 -145q0 -53 -11 -100.5t-33.5 -88.5t-63 -65.5t-94.5 -24.5
h-332zM310 -204q-25 0 -43 18.5t-18 43.5t18 43.5t43 18.5q26 0 44 -18t18 -44t-18 -44t-44 -18zM466 -204q-26 0 -44 18t-18 44t18 44t44 18t43.5 -18t17.5 -44t-17.5 -44t-43.5 -18zM388 -335q-25 0 -41 16.5t-16 40.5t16.5 41t40.5 17q23 0 40 -17t17 -41t-17 -40.5
t-40 -16.5z" />
    <glyph glyph-name="uni0686" unicode="&#x686;" horiz-adv-x="636" 
d="M161 0q0 -174 79 -235q-5 -12 -22.5 -21.5t-40.5 -9.5q-33 0 -58 21t-37 54t-17.5 64.5t-5.5 60.5q0 74 30 115.5t91 41.5h165q44 0 81 33.5t37 110.5q0 155 -191 155h-81q-38 0 -59.5 25.5t-24.5 56.5t13 38q21 -33 94 -33q12 0 52 1.5t54 1.5q111 0 184 -64.5
t73 -177.5q0 -41 -10 -80t-31.5 -76t-62.5 -59.5t-95 -22.5h-217zM369 -117q0 -26 -18 -44t-44 -18q-25 0 -43 18.5t-18 43.5t18 43.5t43 18.5q26 0 44 -18t18 -44zM463 -55q26 0 43.5 -18t17.5 -44t-17.5 -44t-43.5 -18q-25 0 -43.5 18.5t-18.5 43.5t18.5 43.5t43.5 18.5z
M385 -195q23 0 40 -17t17 -41t-17 -40.5t-40 -16.5q-25 0 -41 16.5t-16 40.5t16.5 41t40.5 17z" />
    <glyph glyph-name="uni0688" unicode="&#x688;" horiz-adv-x="503" 
d="M150 545q-8 0 -8 21t8 21h13v127q0 20 -12 24q-1 5 4.5 9t14.5 4q25 0 25 -32v-86q34 51 88 51q33 0 55.5 -19.5t22.5 -56.5q0 -31 -16 -47t-40 -16h-155zM270 649q-29 0 -52 -21.5t-23 -40.5h92q21 0 21 28q0 15 -10 24.5t-28 9.5zM228 480q83 0 150 -66t67 -161
q0 -27 -5.5 -57.5t-19.5 -66t-35.5 -63.5t-58 -47t-81.5 -19h-150q-36 0 -36 45q0 46 40 46h59q90 0 131.5 43.5t41.5 111.5q0 60 -29 101.5t-71 47.5q-55 -15 -55 -88q-30 -9 -56 -5q-23 2 -39 19t-16 47q0 55 53 83.5t110 28.5zM244 397l8 1q-5 0 -8 -1z" />
    <glyph glyph-name="uni0691" unicode="&#x691;" horiz-adv-x="309" 
d="M94 545q-8 0 -8 21t8 21h13v127q0 20 -12 24q-1 5 4.5 9t14.5 4q25 0 25 -32v-86q34 51 88 51q33 0 55.5 -19.5t22.5 -56.5q0 -31 -16 -47t-40 -16h-155zM139 587h92q21 0 21 28q0 15 -10 24.5t-28 9.5q-29 0 -52 -21.5t-23 -40.5zM87 -229q-69 0 -102 33t-29 68
q42 -26 90 -26q42 0 67.5 22t25.5 55v503q0 26 16 40t41 14t40.5 -14t15.5 -41v-483q0 -25 -6.5 -50.5t-22.5 -55t-51 -47.5t-85 -18z" />
    <glyph glyph-name="uni0698" unicode="&#x698;" horiz-adv-x="309" 
d="M196 800q23 0 40 -16.5t17 -40.5t-17 -41t-40 -17q-24 0 -40.5 17t-16.5 41t16 40.5t41 16.5zM118 669q26 0 44 -18t18 -44t-18 -44t-44 -18q-25 0 -43 18.5t-18 43.5t18 43.5t43 18.5zM274 669q26 0 43.5 -18t17.5 -44t-17.5 -44t-43.5 -18t-44 18.5t-18 43.5t18 43.5
t44 18.5zM87 -229q-69 0 -102 33t-29 68q42 -26 90 -26q42 0 67.5 22t25.5 55v503q0 26 16 40t41 14t40.5 -14t15.5 -41v-483q0 -25 -6.5 -50.5t-22.5 -55t-51 -47.5t-85 -18z" />
    <glyph glyph-name="uni06A1" unicode="&#x6a1;" horiz-adv-x="974" 
d="M710 480q50 0 83.5 -8t61 -29.5t41 -63t13.5 -105.5v-134q0 -64 -32 -102t-98 -38h-515q-98 0 -148.5 57t-50.5 156q0 84 33 130t82 46q50 0 65 -41q-26 -16 -46 -55.5t-20 -96.5q0 -105 94 -105h272q-36 60 -36 159q0 60 12 104t29.5 67.5t46 37.5t53.5 17.5t60 3.5z
M796 170v139q0 44 -22.5 62.5t-53.5 18.5q-46 0 -71.5 -37.5t-25.5 -103.5q0 -21 4 -44.5t13 -51t28.5 -45t46.5 -17.5h21q32 0 46 18.5t14 60.5z" />
    <glyph glyph-name="uni06A4" unicode="&#x6a4;" horiz-adv-x="974" 
d="M721 685q-24 0 -40.5 17t-16.5 41t16 40.5t41 16.5q23 0 40 -16.5t17 -40.5t-17 -41t-40 -17zM643 545q-25 0 -43 18.5t-18 43.5t18 43.5t43 18.5q26 0 44 -18t18 -44t-18 -44t-44 -18zM737 607q0 25 18.5 43.5t43.5 18.5q26 0 43.5 -18t17.5 -44t-17.5 -44t-43.5 -18
q-25 0 -43.5 18.5t-18.5 43.5zM710 480q50 0 83.5 -8t61 -29.5t41 -63t13.5 -105.5v-134q0 -64 -32 -102t-98 -38h-515q-98 0 -148.5 57t-50.5 156q0 84 33 130t82 46q50 0 65 -41q-26 -16 -46 -55.5t-20 -96.5q0 -105 94 -105h272q-36 60 -36 159q0 60 12 104t29.5 67.5
t46 37.5t53.5 17.5t60 3.5zM796 170v139q0 44 -22.5 62.5t-53.5 18.5q-46 0 -71.5 -37.5t-25.5 -103.5q0 -21 4 -44.5t13 -51t28.5 -45t46.5 -17.5h21q32 0 46 18.5t14 60.5z" />
    <glyph glyph-name="uni06A9" unicode="&#x6a9;" horiz-adv-x="833" 
d="M569 343q199 0 199 -175q0 -78 -37 -122.5t-108 -44.5h-428q-65 0 -97.5 43t-32.5 109v108q0 25 14.5 40.5t42.5 15.5t42.5 -16t14.5 -42v-88q0 -42 13.5 -60.5t45.5 -18.5h344q35 0 53.5 22t18.5 57q0 81 -98 81h-104q-76 0 -116 44.5t-40 121.5q0 176 220 176
q16 0 64 -1.5t58 -1.5q71 0 94 33q15 -7 14 -38q-3 -33 -24.5 -58t-59.5 -25h-140q-113 0 -113 -81q0 -36 21 -57.5t60 -21.5h79z" />
    <glyph glyph-name="uni06AF" unicode="&#x6af;" horiz-adv-x="833" 
d="M377 620q-15 5 -13 38q3 33 24 58t59 25q104 0 176 -2q71 0 95 34q14 -7 13 -39q-3 -33 -24.5 -58t-59.5 -25q-103 0 -175 2q-70 0 -95 -33zM569 343q199 0 199 -175q0 -78 -37 -122.5t-108 -44.5h-428q-65 0 -97.5 43t-32.5 109v108q0 25 14.5 40.5t42.5 15.5t42.5 -16
t14.5 -42v-88q0 -42 13.5 -60.5t45.5 -18.5h344q35 0 53.5 22t18.5 57q0 81 -98 81h-104q-76 0 -116 44.5t-40 121.5q0 176 220 176q16 0 64 -1.5t58 -1.5q71 0 94 33q15 -7 14 -38q-3 -33 -24.5 -58t-59.5 -25h-140q-113 0 -113 -81q0 -36 21 -57.5t60 -21.5h79z" />
    <glyph glyph-name="uni06BA" unicode="&#x6ba;" horiz-adv-x="696" 
d="M359 -236q-146 0 -220 74.5t-74 198.5q0 78 30 137.5t91 59.5q39 0 68 -23q-24 -18 -48.5 -66.5t-24.5 -114.5q0 -89 53.5 -132t128.5 -43q47 0 80 17t48 46.5t21 57t6 59.5v390q0 25 15.5 40t40.5 15q26 0 41.5 -15t15.5 -42v-388q0 -271 -272 -271z" />
    <glyph glyph-name="uni06BE" unicode="&#x6be;" horiz-adv-x="752" 
d="M408 595q44 1 89.5 -15t89.5 -49.5t72 -96t28 -144.5q0 -134 -71.5 -212t-202.5 -78q-88 0 -147 24q-47 -24 -164 -24h-37v91h21q29 -13 59 -13q17 0 33 4q-48 62 -48 161q0 76 33.5 129t101.5 53q67 0 101.5 -53t34.5 -127q0 -53 -17 -103.5t-37 -67.5q16 -4 42 -4
q85 0 134.5 51t49.5 154q0 61 -19.5 106.5t-51.5 70.5t-67 37t-72 12h-106q-60 0 -84 37.5t-18 90.5q26 -38 125 -38q11 0 41 1t55 2t32 1zM265 108q17 18 29 54t12 74t-11.5 68t-29.5 30t-29 -29.5t-11 -69.5q0 -83 40 -127zM199 93q4 4 4 6z" />
    <glyph glyph-name="uni06C1" unicode="&#x6c1;" horiz-adv-x="527" 
d="M263 -9q-102 0 -150 61t-48 185q0 121 47 182t151 61q105 0 152 -61t47 -182q0 -123 -48.5 -184.5t-150.5 -61.5zM263 82q85 0 85 160q0 147 -85 147q-84 0 -84 -148q0 -159 84 -159z" />
    <glyph glyph-name="uni06C2" unicode="&#x6c2;" horiz-adv-x="527" 
d="M178 539q-24 14 -15.5 39t45.5 21q-15 9 -26.5 29.5t-11.5 44.5q0 38 28 67t79 29q65 0 65 -47q0 -24 -18.5 -30.5t-32.5 2.5q1 15 -8 27t-24 13q-24 -14 -24 -52q0 -33 21.5 -50.5t51.5 -17.5q7 0 14 1t14 2.5t9 1.5q14 0 19 -12t1 -24t-13 -12q-171 -13 -174 -32z
M263 -9q-102 0 -150 61t-48 185q0 121 47 182t151 61q105 0 152 -61t47 -182q0 -123 -48.5 -184.5t-150.5 -61.5zM263 82q85 0 85 160q0 147 -85 147q-84 0 -84 -148q0 -159 84 -159z" />
    <glyph glyph-name="uni06C3" unicode="&#x6c3;" horiz-adv-x="527" 
d="M185 548q-25 0 -43 18t-18 43q0 26 18 44.5t43 18.5q26 0 44 -18.5t18 -44.5t-18 -43.5t-44 -17.5zM341 548q-26 0 -44 18t-18 43q0 26 18 44.5t44 18.5t43.5 -18.5t17.5 -44.5t-17.5 -43.5t-43.5 -17.5zM263 -9q-102 0 -150 61t-48 185q0 121 47 182t151 61
q105 0 152 -61t47 -182q0 -123 -48.5 -184.5t-150.5 -61.5zM263 82q85 0 85 160q0 147 -85 147q-84 0 -84 -148q0 -159 84 -159z" />
    <glyph glyph-name="uni06CC" unicode="&#x6cc;" horiz-adv-x="867" 
d="M602 194q38 0 70.5 -7t63.5 -24t48.5 -50t17.5 -79q0 -50 -22 -96.5t-66 -86t-120.5 -63.5t-175.5 -24q-92 0 -159.5 21.5t-103.5 52t-57.5 74.5t-27 77t-5.5 71q0 99 35.5 148.5t84.5 49.5q25 0 40.5 -13t19.5 -29q-26 -23 -46 -69t-20 -103q0 -189 251 -189
q74 0 127.5 16.5t80.5 43.5t39 54t12 54q0 34 -18.5 53t-49 22.5t-58.5 2t-60.5 -6t-41.5 -4.5q-33 0 -47.5 32t-14.5 76q0 126 71.5 204t171.5 78q67 0 91 -34.5t14 -73.5q-41 17 -84 17q-82 0 -127.5 -61.5t-45.5 -146.5q49 13 112 13z" />
    <glyph glyph-name="uni06D2" unicode="&#x6d2;" horiz-adv-x="623" 
d="M283 -236q-218 0 -218 163q0 42 15 73t36.5 48t51.5 27t53 13t48 3h96q51 0 51 88v61h114v-75q0 -25 -1.5 -43.5t-8 -43t-18.5 -40t-35.5 -27t-55.5 -11.5h-121q-21 0 -36.5 -2t-34.5 -8.5t-29.5 -22.5t-10.5 -40q0 -40 29.5 -56t87.5 -16h377v-91h-390z" />
    <glyph glyph-name="uni06D3" unicode="&#x6d3;" horiz-adv-x="623" 
d="M110 152q-24 14 -15.5 39t45.5 21q-15 9 -26.5 29.5t-11.5 44.5q0 38 28 67t79 29q65 0 65 -47q0 -24 -18.5 -30.5t-32.5 2.5q1 15 -8 27t-24 13q-24 -14 -24 -52q0 -33 21.5 -50.5t51.5 -17.5q7 0 14 1t14 2.5t9 1.5q14 0 19 -12t1 -24t-13 -12q-171 -13 -174 -32z
M283 -236q-218 0 -218 163q0 42 15 73t36.5 48t51.5 27t53 13t48 3h96q51 0 51 88v61h114v-75q0 -25 -1.5 -43.5t-8 -43t-18.5 -40t-35.5 -27t-55.5 -11.5h-121q-21 0 -36.5 -2t-34.5 -8.5t-29.5 -22.5t-10.5 -40q0 -40 29.5 -56t87.5 -16h377v-91h-390z" />
    </font>
</defs>
</svg>
